<svg width="1443" height="602" viewBox="0 0 1443 602" fill="none" xmlns="http://www.w3.org/2000/svg">
<path fill-rule="evenodd" clip-rule="evenodd" d="M492.2 400.83H531.2V258.97C531.2 241.5 546 234.16 558.1 237.65C566.1 239.98 572.2 247.37 572.2 258.97V343.77C572.2 368.13 583.399 384.93 598.399 394.68C633.299 417.41 691.5 400.52 691.2 343.73V200.97H652.2V343.82C652.3 358.08 642.2 365.43 631.8 365.43C621.4 365.43 611.2 358.05 611.2 343.79V343.78V258.93C611.1 226.04 591.599 206.77 568.899 200.2C534.899 190.34 492.2 209.7 492.2 258.97V400.83ZM438.861 200.923H478.861V400.924H438.861V200.923ZM1011.6 400.92V200.92H1111.6C1137.7 200.92 1160 217.63 1168.2 240.92C1170.4 247.18 1171.6 253.91 1171.6 260.92C1171.6 267.94 1170.4 274.67 1168.2 280.92C1166.3 286.33 1163.6 291.38 1160.3 295.96C1167.9 302.64 1173.8 311.21 1177.2 320.92C1179.4 327.18 1180.6 333.91 1180.6 340.92V400.92H1140.6V340.92C1140.6 329.89 1131.7 320.92 1120.6 320.92H1051.6V400.92H1011.6ZM1051.6 280.92H1111.6C1122.7 280.92 1131.6 271.96 1131.6 260.92C1131.6 249.89 1122.7 240.92 1111.6 240.92H1051.6V280.92ZM418.1 240.99C409.9 217.7 387.7 200.99 361.6 200.99H261.6V400.99H370.6C396.7 400.99 418.9 384.29 427.1 360.99C429.3 354.74 430.6 348.01 430.6 340.99C430.6 333.98 429.3 327.25 427.1 320.99C423.7 311.28 417.799 302.71 410.299 296.03C413.599 291.45 416.2 286.4 418.1 280.99C420.3 274.74 421.6 268.01 421.6 260.99C421.6 253.98 420.3 247.25 418.1 240.99ZM301.6 280.99V240.99H361.6C372.6 240.99 381.6 249.96 381.6 260.99C381.6 272.03 372.6 280.99 361.6 280.99H301.6ZM301.6 360.99V320.99H370.6C381.6 320.99 390.6 329.96 390.6 340.99C390.6 352.03 381.6 360.99 370.6 360.99H301.6ZM758.42 200.92C791.11 200.92 820.15 216.638 838.41 240.92C850.97 257.638 858.42 278.416 858.42 300.92C858.42 323.424 850.97 344.202 838.41 360.92C820.15 385.203 791.11 400.92 758.42 400.92H708.42V200.92H758.42ZM758.42 240.92H748.42V360.92H758.42C791.54 360.92 818.42 334.035 818.42 300.92C818.42 267.805 791.54 240.92 758.42 240.92ZM942.184 255.033C926.902 255.133 913.773 259.061 902.868 265.547C902.82 263.519 902.905 261.511 903.146 259.548C904.488 248.508 911.573 239.029 925.27 238.501C925.294 238.499 995.087 238.499 995.087 238.499V199.499H924.677C887.551 200.598 868.014 225.345 864.436 254.841C862.61 269.782 865.294 285.98 872.161 300.459C865.439 315.165 862.924 331.546 864.859 346.542C868.727 376.57 888.724 400.971 925.113 400.499H995.087V361.498H924.823C911.585 361.694 904.935 352.347 903.545 341.559C903.255 339.334 903.146 337.042 903.231 334.723C914.124 341.009 927.18 344.772 942.28 344.796C979.382 344.854 994.12 320.65 993.334 299.129C992.56 277.865 975.744 254.814 942.184 255.033ZM942.341 305.796C934.216 305.783 927.301 303.615 921.631 300.04C927.289 296.349 934.229 294.087 942.437 294.033C949.195 293.989 954.2 296.275 954.357 300.554C954.515 304.672 949.449 305.806 942.341 305.796Z" fill="#5D14F0"/>
</svg>
