<svg width="765" height="614" viewBox="0 0 765 614" fill="none" xmlns="http://www.w3.org/2000/svg">
<path fill-rule="evenodd" clip-rule="evenodd" d="M631.042 493.397C654.941 475.043 670.917 450.669 690.409 429.524C690.981 428.9 691.54 428.242 691.969 427.523C708.375 399.855 724.47 372.164 734.132 341.061C739.777 322.899 741.499 304.804 740.596 286.115C740.147 276.818 740.525 267.463 739.653 258.219C736.966 229.845 725.941 204.231 712.445 179.558C708.383 172.138 703.563 165.122 699.637 157.628C684.934 129.564 662.096 110.105 634.676 95.3485C616.829 85.7466 598.365 77.2949 581.029 66.7326C578.896 65.4329 576.52 64.2207 574.101 63.7358C544.225 57.7407 514.369 51.635 484.407 46.0813C455.187 40.6611 425.606 38.2437 395.927 37.0789C379.843 36.4434 363.755 35.2204 347.673 35.1803C312.79 35.0989 278.607 39.4255 245.105 50.1128C221.703 57.5797 198.184 64.391 175.492 74.0068C149.417 85.0564 126.617 100.959 104.769 118.537C94.7707 126.586 86.7363 136.399 79.3856 146.831C74.9898 153.057 70.9914 159.639 66.0126 165.362C37.0693 198.651 27.4675 238.069 29.1891 280.981C29.5922 291.101 31.7795 301.157 29.8763 311.335C32.719 332.334 35.4182 353.398 45.7715 372.403C53.8971 387.308 62.8862 401.643 74.6397 414.07C78.7118 418.378 82.8132 422.714 86.4101 427.415C94.2049 437.612 104.199 445.376 113.545 453.965C133.675 472.467 156.784 486.453 179.576 501.009C182.404 502.815 185.447 504.338 188.545 505.642C201.011 510.904 213.54 516.035 226.058 521.19C240.149 526.991 254.149 533.048 268.393 538.471C290.689 546.967 314.464 549.529 337.503 555.062C340.752 555.842 344.27 555.967 347.623 555.745C372.993 554.105 398.39 555.443 423.765 554.922C427.98 554.838 432.182 554.181 436.386 553.749C465.042 550.826 493.797 548.573 521.976 542.118C529.029 540.503 535.133 541.669 541.095 546.061C547.901 551.072 555.241 555.359 562.433 559.831C577.649 569.28 590.443 581.678 603.815 593.388C607.612 596.711 611.635 599.792 615.737 602.728C618.911 604.996 624.988 602.717 626.287 598.806C627.888 594.01 629.468 589.26 628.557 583.945C623.444 554.305 626.794 524.878 631.042 493.397ZM608.337 564.436C605.917 563.879 602.797 564.109 601.186 562.654C584.727 547.84 564.521 538.266 547.606 524.12C543.521 520.703 538.743 519.322 533.384 520.341C525.91 521.759 518.388 522.931 510.951 524.522C461.875 535.013 412.592 542.458 362.237 535.314C359.724 534.956 357.163 534.987 354.636 534.7C326.848 531.512 299.168 528.143 272.296 519.556C254.478 513.858 237.533 506.264 220.582 498.654C180.838 480.814 145.283 456.187 113.314 427.011C88.5659 404.426 71.8656 376.074 63.1328 343.113C54.7458 311.468 52.3687 279.884 57.9709 247.522C61.3342 228.102 67.6881 209.701 75.9135 192.097C84.5315 173.658 95.3424 156.251 111.835 143.449C136.615 124.205 161.244 104.64 191.081 93.4512C212.466 85.4286 233.963 77.7233 255.41 69.8761C284.613 64.8625 313.239 56.7406 342.762 53.5218C350.328 52.7001 358.052 51.6697 365.558 52.346C376.586 53.3482 387.543 53.1689 398.562 53.0925C408.72 53.0231 418.928 53.4012 429.029 54.4197C437.402 55.2665 446.372 55.7894 453.784 59.2307C463.328 63.6659 473.17 65.2366 483.146 66.6121C510.129 70.3358 536.173 77.7581 561.957 86.1267C589.524 95.0747 614.857 109.099 639.014 124.601C659.779 137.925 677.367 155.503 688.533 178.22C706.296 214.372 719.282 251.603 713.605 292.95C712.683 299.651 712.959 306.508 712.314 313.253C711.029 326.769 709.285 340.285 704.498 353.058C699.16 367.335 693.557 381.535 687.325 395.437C682.488 406.218 677.31 417.021 670.819 426.842C663.841 437.401 655.625 447.26 647.082 456.626C636.833 467.858 626.199 478.929 611.138 484.07C606.401 485.693 604.994 489.938 605.323 494.276C606.746 512.842 605.336 531.573 608.724 550.039C609.639 555.008 609.89 560.174 607.666 565.009C608.187 564.79 608.408 564.596 608.337 564.436Z" fill="#69F5CA"/>
<path d="M226.603 206.288C227.197 205.098 228.345 204.591 230.047 204.769C230.563 204.822 231.017 204.974 231.408 205.223C232.76 209.276 234.206 214.929 235.747 222.182C237.287 229.436 238.902 236.228 240.59 242.558C242.33 248.893 244.428 254.301 246.883 258.781C249.807 258.251 253.524 252.092 258.037 240.304C259.899 235.439 261.784 230.602 263.692 225.793C265.601 220.985 267.609 216.969 269.718 213.746C271.827 210.523 273.81 209.008 275.667 209.201C276.39 209.276 277.142 209.563 277.925 210.062C276.449 211.212 274.732 213.928 272.774 218.21C270.816 222.492 268.841 227.189 266.849 232.302C264.862 237.363 262.775 242.388 260.587 247.376C258.456 252.318 256.078 256.374 253.454 259.543C250.881 262.718 248.33 264.174 245.802 263.911C242.293 263.546 238.885 257.193 235.579 244.853C233.798 238.409 232.473 233.342 231.605 229.653C230.743 225.912 229.752 221.402 228.632 216.122C227.569 210.796 226.893 207.518 226.603 206.288ZM278.439 249.546C278.229 250.567 278.105 251.258 278.067 251.62C277.745 254.716 278.424 257.212 280.105 259.108C281.837 261.009 283.993 262.094 286.573 262.362C289.152 262.63 291.28 262.487 292.955 261.931C294.681 261.38 295.948 260.729 296.756 259.979C298.855 257.85 300.679 256.866 302.227 257.027C302.795 257.087 303.449 257.311 304.191 257.701C303.412 260.176 301.21 262.294 297.584 264.055C294.016 265.77 289.677 266.362 284.569 265.831C280.957 265.455 277.953 263.995 275.558 261.451C273.219 258.861 272.257 255.579 272.67 251.606C273.083 247.633 274.257 243.869 276.192 240.315C278.183 236.715 280.786 233.752 284.001 231.426C287.273 229.054 290.431 228.027 293.475 228.343C296.571 228.665 298.981 229.568 300.704 231.051C302.485 232.488 303.249 234.419 302.996 236.844C302.529 241.334 300.131 244.839 295.8 247.362C291.526 249.838 287.145 250.843 282.656 250.376C281.469 250.252 280.063 249.976 278.439 249.546ZM284.587 247.604C287.012 247.856 289.26 247.307 291.33 245.958C293.4 244.609 294.911 243.123 295.862 241.501C296.865 239.884 297.438 238.379 297.583 236.985C297.728 235.592 297.313 234.323 296.336 233.179C295.366 231.982 294.158 231.309 292.713 231.159C290.133 230.89 287.549 232.421 284.959 235.751C282.422 239.086 280.49 242.614 279.164 246.336C281.386 247.036 283.194 247.459 284.587 247.604ZM344.991 209.684C341.184 227.23 338.886 239.795 338.097 247.38C337.313 254.914 337.226 262.52 337.836 270.198C336.696 271.123 335.74 271.545 334.966 271.464C334.192 271.384 333.557 271.213 333.063 270.953C332.377 267.022 332.164 262.801 332.424 258.291C330.982 260.123 329.908 261.419 329.203 262.181C328.55 262.947 327.417 264.055 325.806 265.504C322.853 268.326 319.57 269.55 315.958 269.174C313.223 268.89 311.368 267.419 310.393 264.762C309.474 262.058 309.222 258.72 309.635 254.747C310.054 250.722 310.889 246.949 312.142 243.429C313.452 239.862 315.353 236.878 317.846 234.477C320.344 232.025 323.218 230.968 326.469 231.306C328.429 231.51 330.192 232.111 331.758 233.108C333.323 234.105 334.343 235.333 334.817 236.79C335.065 235.408 335.391 233.277 335.795 230.398C336.199 227.52 336.568 224.976 336.902 222.768C337.292 220.514 337.763 218.242 338.315 215.952C339.397 211.058 340.919 208.712 342.88 208.916C343.551 208.986 344.254 209.242 344.991 209.684ZM332.747 239.391C332.246 238.192 331.48 237.278 330.451 236.649C329.426 235.969 328.011 235.535 326.205 235.347C324.45 235.164 322.695 235.999 320.937 237.85C317.48 241.506 315.359 247.101 314.575 254.635C314.323 257.06 314.458 259.525 314.98 262.031C315.507 264.485 316.519 265.79 318.015 265.946C320.182 266.171 322.445 264.972 324.804 262.349C327.163 259.726 329.101 256.641 330.617 253.096C332.139 249.499 333.053 246.23 333.359 243.289C333.504 241.895 333.3 240.596 332.747 239.391ZM357.444 216.064C357.269 217.246 357.106 218.559 356.956 220.003C356.806 221.448 356.727 222.953 356.721 224.517C355.913 225.267 354.89 225.578 353.651 225.449C352.103 225.288 351.458 223.969 351.716 221.493C351.726 221.389 351.767 221.002 351.836 220.332C351.906 219.661 351.968 219.067 352.022 218.551C352.132 217.989 352.302 217.355 352.532 216.649C353.022 215.448 353.887 214.912 355.125 215.041C356.363 215.169 357.136 215.511 357.444 216.064ZM348.545 253.474C349.597 243.361 350.72 237.584 351.913 236.143C352.333 235.613 352.801 235.375 353.317 235.429C353.833 235.482 354.655 235.855 355.783 236.546C355.069 240.905 354.443 245.664 353.906 250.824C353.906 250.824 353.365 256.531 352.282 267.945C352.116 269.545 351.636 270.642 350.844 271.238C350.109 271.788 349.432 272.03 348.813 271.966C348.245 271.907 347.668 271.69 347.081 271.316C347.52 264.581 348.009 258.634 348.545 253.474ZM390.399 219.492C390.224 220.674 390.061 221.987 389.911 223.431C389.76 224.876 389.682 226.381 389.676 227.945C388.868 228.695 387.844 229.006 386.606 228.877C385.058 228.716 384.413 227.397 384.67 224.92C384.681 224.817 384.721 224.43 384.791 223.759C384.861 223.089 384.923 222.495 384.976 221.979C385.087 221.417 385.257 220.783 385.487 220.077C385.977 218.876 386.841 218.34 388.08 218.469C389.318 218.597 390.091 218.939 390.399 219.492ZM381.5 256.902C382.552 246.789 383.675 241.012 384.868 239.571C385.288 239.041 385.756 238.803 386.272 238.857C386.788 238.91 387.61 239.283 388.738 239.974C388.023 244.333 387.398 249.092 386.861 254.252C386.861 254.252 386.32 259.959 385.237 271.373C385.07 272.973 384.591 274.07 383.799 274.666C383.064 275.215 382.387 275.458 381.767 275.394C381.2 275.334 380.623 275.118 380.036 274.744C380.475 268.009 380.964 262.062 381.5 256.902ZM401.841 231.479C402.373 226.371 402.033 222.867 400.822 220.968C401.595 220.057 402.807 219.688 404.458 219.859C404.768 219.891 405.1 219.952 405.456 220.041C406.612 221.465 406.868 225.273 406.224 231.465C405.875 234.819 405.315 238.699 404.544 243.104C403.12 250.78 402.22 256.423 401.844 260.035C400.829 269.787 402.206 274.859 405.972 275.251C405.972 275.251 406.946 275.17 408.892 275.007C409.357 275.056 409.722 275.302 409.989 275.747C409.641 277.589 408.022 278.359 405.133 278.059C402.295 277.763 400.19 276.684 398.819 274.82C397.454 272.905 396.699 270.636 396.555 268.013C396.467 265.344 396.512 263.158 396.689 261.455C396.866 259.752 397.085 257.897 397.346 255.89C397.612 253.832 398.151 250.915 398.961 247.139C400.591 239.485 401.551 234.265 401.841 231.479ZM437.531 247.787C438.099 247.846 438.028 251.281 437.32 258.092C437.207 259.176 437.002 260.902 436.703 263.27C436.456 265.644 436.327 266.882 436.317 266.985C437.439 261.208 438.368 257.289 439.104 255.227C439.892 253.17 440.648 251.423 441.371 249.986C442.099 248.497 442.842 247.375 443.599 246.619C445.47 244.675 447.489 243.816 449.656 244.041C452.391 244.326 454.287 245.905 455.344 248.78C456.453 251.659 456.797 255.372 456.376 259.918C458.637 250.713 462.529 246.397 468.05 246.972C470.423 247.219 471.974 248.606 472.702 251.133C473.43 253.66 473.62 256.6 473.271 259.954L471.815 271.695C471.01 279.435 472.285 283.479 475.639 283.828L480.123 283.59C480.381 283.617 480.636 283.67 480.889 283.748C480.292 284.468 479.273 284.988 477.832 285.308C476.396 285.576 475.007 285.64 473.665 285.5C471.034 285.226 469.168 283.859 468.068 281.397C467.025 278.89 466.586 276.34 466.751 273.75C466.921 271.107 467.103 268.858 467.297 267L468.168 260.128C468.404 257.857 468.475 255.674 468.38 253.578C468.336 251.487 467.721 250.38 466.535 250.257C464.78 250.074 462.694 253.586 460.275 260.793C457.913 267.954 456.208 274.818 455.16 281.385C454.186 282.222 453.026 282.597 451.679 282.509C451.266 282.466 450.887 282.349 450.542 282.156C450.357 279.425 450.563 274.935 451.161 268.686C451.816 262.391 452.027 257.353 451.794 253.574C451.561 249.794 450.361 247.792 448.194 247.566C446.75 247.416 445.396 248.892 444.135 251.995C442.118 256.844 439.966 264.496 437.679 274.95C437.112 277.395 436.694 279.151 436.427 280.218C435.246 281.035 434.089 281.384 432.954 281.265L431.809 280.99C431.983 272.298 432.732 261.579 434.058 248.834C434.722 247.965 435.88 247.616 437.531 247.787ZM493.496 230.216C493.321 231.397 493.158 232.711 493.008 234.155C492.857 235.6 492.779 237.105 492.773 238.669C491.965 239.419 490.941 239.73 489.703 239.601C488.155 239.44 487.51 238.121 487.768 235.644C487.778 235.541 487.818 235.154 487.888 234.483C487.958 233.813 488.02 233.219 488.073 232.703C488.184 232.141 488.354 231.507 488.584 230.801C489.074 229.6 489.938 229.064 491.177 229.193C492.415 229.321 493.188 229.663 493.496 230.216ZM484.597 267.626C485.649 257.513 486.772 251.736 487.965 250.295C488.385 249.765 488.853 249.527 489.369 249.581C489.885 249.634 490.707 250.007 491.835 250.698C491.12 255.057 490.495 259.816 489.958 264.976C489.958 264.976 489.417 270.683 488.334 282.097C488.167 283.697 487.688 284.794 486.896 285.39C486.161 285.939 485.484 286.182 484.864 286.117C484.297 286.058 483.72 285.842 483.133 285.468C483.572 278.733 484.061 272.786 484.597 267.626ZM503.542 256.375C506.593 252.624 510.594 251.006 515.548 251.521C520.501 252.036 524.239 254.459 526.762 258.79C529.336 263.126 530.355 267.874 529.818 273.034C529.287 278.142 527.21 282.307 523.589 285.53C519.968 288.752 515.655 290.103 510.65 289.582C505.645 289.061 502.152 287.29 500.172 284.267C498.197 281.193 497.475 277.102 498.006 271.994C498.698 265.337 500.544 260.131 503.542 256.375ZM506.521 260.831C505.641 262.774 504.916 264.732 504.345 266.707C503.826 268.687 503.476 270.555 503.293 272.309C503.116 274.012 503.081 275.599 503.189 277.071C503.302 278.491 503.596 279.929 504.07 281.387C504.55 282.793 505.366 283.973 506.518 284.928C507.676 285.83 509.107 286.37 510.809 286.547C514.266 286.907 517.304 285.789 519.921 283.192C522.589 280.601 524.133 277.293 524.552 273.269C524.97 269.244 524.292 265.235 522.517 261.243C520.798 257.205 518.391 255.025 515.295 254.703C513.438 254.509 511.745 254.985 510.218 256.13C508.691 257.275 507.458 258.842 506.521 260.831ZM236.598 334.342C236.257 333.107 235.476 332.087 234.256 331.282C233.036 330.477 231.471 329.976 229.562 329.777C227.653 329.578 225.788 329.958 223.967 330.916C222.198 331.88 221.214 333.316 221.015 335.225C220.817 337.134 221.432 338.737 222.862 340.033C224.349 341.283 226.172 342.307 228.332 343.106C230.543 343.909 232.749 344.765 234.95 345.672C237.156 346.527 238.955 347.783 240.347 349.441C241.797 351.052 242.398 353.044 242.151 355.418C241.791 358.875 240.073 361.356 236.995 362.862C233.97 364.372 230.444 364.918 226.42 364.5C224.046 364.253 220.991 363.283 217.256 361.591C213.572 359.904 211.823 358.157 212.011 356.351C212.151 355.009 213.356 354.457 215.626 354.693C216.297 354.763 217.131 355.267 218.129 356.205C221.179 358.974 224.432 360.538 227.89 360.897C229.747 361.091 231.379 360.947 232.785 360.468C235.385 359.539 236.822 357.758 237.096 355.127C237.262 353.527 236.597 352.154 235.099 351.007C233.653 349.866 231.824 348.893 229.613 348.09C227.453 347.291 225.273 346.438 223.073 345.532C220.872 344.625 219.052 343.314 217.614 341.6C216.232 339.839 215.668 337.746 215.92 335.321C216.247 332.173 217.932 329.767 220.974 328.101C224.016 326.436 227.626 325.82 231.806 326.255C234.644 326.55 237.12 327.564 239.235 329.297C241.407 330.983 242.348 333.219 242.058 336.006C241.864 337.863 240.71 338.682 238.595 338.462C237.717 338.371 237.14 338.154 236.863 337.812C236.637 337.476 236.538 336.918 236.567 336.139C236.653 335.313 236.663 334.714 236.598 334.342ZM276.686 340.468C275.604 341.347 274.572 341.735 273.592 341.633C272.611 341.531 271.855 341.035 271.321 340.145C270.845 339.209 270.477 338.232 270.218 337.214C269.964 336.144 269.39 335.146 268.495 334.218C267.658 333.244 266.517 332.682 265.072 332.532C263.038 332.529 261.056 333.783 259.126 336.295C257.201 338.754 255.685 341.544 254.578 344.662C253.472 347.781 252.771 350.759 252.475 353.597C252.186 356.383 252.707 358.889 254.041 361.114C255.431 363.293 257.468 364.522 260.151 364.801C263.247 365.123 265.836 364.297 267.919 362.323C268.79 361.475 269.609 360.621 270.376 359.762C272.253 357.767 273.862 356.839 275.203 356.978C275.668 357.027 276.325 357.225 277.175 357.575C276.977 359.484 274.959 361.83 271.123 364.612C267.344 367.348 263.416 368.505 259.34 368.081C255.264 367.657 252.173 366.031 250.068 363.204C248.02 360.331 247.21 356.831 247.64 352.703C248.192 347.388 250.035 342.208 253.168 337.161C254.726 334.716 256.701 332.782 259.091 331.362C261.487 329.89 264.052 329.296 266.787 329.581C269.522 329.865 271.618 331.022 273.076 333.051C274.591 335.035 275.794 337.507 276.686 340.468ZM284.334 354.407L288.637 319.805C288.916 317.122 288.952 315.274 288.745 314.262C289.759 313.533 291.221 313.268 293.13 313.466C293.33 319.068 292.979 326.203 292.077 334.871C291.809 337.451 290.954 343.413 289.513 352.755C293.296 339.953 298.309 333.877 304.553 334.526C306.771 334.757 308.351 336.121 309.291 338.618C310.288 341.069 310.766 343.987 310.727 347.373C310.688 350.759 310.597 354.14 310.454 357.516C310.133 365.619 311.159 369.794 313.533 370.041C313.584 370.046 314.091 369.942 315.052 369.729C317.18 369.325 318.357 369.291 318.583 369.627C318.524 370.195 317.649 370.834 315.958 371.545C314.273 372.204 312.759 372.464 311.418 372.324C309.147 372.088 307.514 370.744 306.517 368.294C305.577 365.797 305.127 362.855 305.166 359.469C305.257 356.088 305.397 352.739 305.585 349.42C305.831 346.056 305.791 343.183 305.465 340.802C305.144 338.369 304.313 337.083 302.971 336.943C301.32 336.772 299.61 338.419 297.841 341.886C296.129 345.307 294.661 349.144 293.436 353.398C292.211 357.652 290.843 361.526 289.333 365.02C287.879 368.467 286.584 370.132 285.449 370.014C283.643 369.826 283.271 364.624 284.334 354.407ZM325.577 359.01C325.366 360.032 325.242 360.723 325.205 361.084C324.883 364.18 325.562 366.676 327.242 368.572C328.974 370.473 331.13 371.558 333.71 371.826C336.29 372.095 338.418 371.951 340.092 371.395C341.819 370.844 343.086 370.194 343.894 369.443C345.993 367.315 347.817 366.331 349.365 366.492C349.932 366.551 350.587 366.775 351.329 367.165C350.55 369.64 348.348 371.758 344.722 373.519C341.153 375.235 336.815 375.826 331.707 375.295C328.095 374.919 325.091 373.459 322.696 370.915C320.357 368.325 319.395 365.043 319.808 361.07C320.221 357.097 321.395 353.334 323.329 349.779C325.321 346.179 327.924 343.216 331.139 340.89C334.411 338.519 337.569 337.491 340.613 337.808C343.709 338.13 346.119 339.032 347.842 340.516C349.622 341.953 350.386 343.884 350.134 346.309C349.667 350.798 347.268 354.304 342.938 356.826C338.664 359.302 334.283 360.307 329.794 359.84C328.607 359.717 327.201 359.44 325.577 359.01ZM331.725 357.068C334.15 357.32 336.398 356.772 338.468 355.422C340.538 354.073 342.049 352.587 343 350.965C344.002 349.348 344.576 347.843 344.721 346.45C344.866 345.057 344.45 343.788 343.474 342.643C342.503 341.447 341.296 340.773 339.851 340.623C337.271 340.355 334.686 341.885 332.097 345.215C329.56 348.55 327.628 352.078 326.302 355.8C328.524 356.5 330.332 356.923 331.725 357.068ZM364.952 371.321L364.725 375.757C364.607 376.892 364.189 377.657 363.47 378.051C362.808 378.4 362.141 378.539 361.47 378.469C360.851 378.405 360.217 378.235 359.568 377.958C359.055 371.855 358.953 364.308 359.263 355.317C359.624 346.331 359.814 341.239 359.834 340.042C360.684 339.4 361.521 339.122 362.347 339.208C363.224 339.299 363.987 339.483 364.636 339.759C364.687 341.277 364.498 344.595 364.07 349.714C363.642 354.833 363.438 358.046 363.459 359.352C364.632 355.093 366.343 351.176 368.593 347.603C369.845 345.595 371.361 344.057 373.141 342.991C374.978 341.878 376.851 341.421 378.76 341.619C380.721 341.823 382.41 342.886 383.827 344.806C385.301 346.681 385.965 348.315 385.82 349.708C385.767 350.224 385.414 350.604 384.763 350.85C384.117 351.043 383.407 351.1 382.633 351.019C381.91 350.944 381.372 350.601 381.019 349.991C380.665 349.38 380.445 348.731 380.36 348.045C380.281 347.306 380.012 346.626 379.556 346.005C379.099 345.384 378.432 345.027 377.554 344.936C375.232 344.695 373.028 346.578 370.943 350.586C367.765 356.566 365.768 363.478 364.952 371.321ZM394.572 347.88C395.14 347.939 395.07 351.374 394.361 358.185C394.248 359.269 394.043 360.995 393.744 363.363C393.497 365.736 393.369 366.975 393.358 367.078C394.48 361.301 395.41 357.381 396.146 355.319C396.933 353.263 397.689 351.516 398.412 350.079C399.141 348.59 399.883 347.467 400.64 346.712C402.511 344.768 404.53 343.909 406.697 344.134C409.432 344.418 411.328 345.998 412.385 348.872C413.494 351.752 413.838 355.465 413.417 360.011C415.679 350.806 419.57 346.49 425.091 347.064C427.465 347.311 429.015 348.698 429.744 351.225C430.472 353.753 430.661 356.693 430.312 360.047L428.856 371.787C428.051 379.527 429.326 383.572 432.68 383.92L437.164 383.683C437.422 383.71 437.677 383.762 437.93 383.841C437.333 384.561 436.314 385.081 434.873 385.4C433.437 385.668 432.048 385.732 430.706 385.593C428.075 385.319 426.209 383.951 425.109 381.49C424.066 378.982 423.627 376.433 423.792 373.842C423.963 371.2 424.145 368.95 424.338 367.093L425.209 360.22C425.445 357.95 425.516 355.767 425.421 353.67C425.378 351.58 424.763 350.473 423.576 350.349C421.821 350.167 419.735 353.679 417.316 360.886C414.955 368.046 413.25 374.91 412.201 381.477C411.228 382.315 410.067 382.69 408.72 382.602C408.308 382.559 407.929 382.441 407.583 382.249C407.398 379.517 407.604 375.027 408.202 368.778C408.857 362.483 409.068 357.446 408.835 353.666C408.603 349.887 407.403 347.884 405.236 347.659C403.791 347.509 402.438 348.985 401.176 352.087C399.159 356.937 397.007 364.589 394.72 375.043C394.153 377.488 393.735 379.244 393.468 380.311C392.288 381.127 391.13 381.476 389.995 381.358L388.85 381.083C389.024 372.39 389.774 361.672 391.099 348.927C391.764 348.057 392.921 347.708 394.572 347.88ZM445.089 354.856C448.139 351.105 452.141 349.487 457.094 350.002C462.048 350.517 465.786 352.94 468.308 357.271C470.883 361.607 471.901 366.355 471.364 371.515C470.833 376.623 468.757 380.788 465.136 384.011C461.515 387.233 457.202 388.584 452.197 388.063C447.191 387.542 443.699 385.771 441.718 382.748C439.743 379.674 439.021 375.583 439.552 370.475C440.245 363.818 442.09 358.612 445.089 354.856ZM448.068 359.312C447.188 361.255 446.462 363.213 445.892 365.188C445.373 367.168 445.022 369.036 444.84 370.79C444.663 372.493 444.628 374.08 444.736 375.551C444.849 376.971 445.142 378.41 445.617 379.868C446.096 381.274 446.912 382.454 448.065 383.408C449.223 384.311 450.653 384.851 452.356 385.028C455.813 385.388 458.85 384.269 461.467 381.673C464.136 379.082 465.68 375.774 466.098 371.749C466.517 367.725 465.839 363.716 464.063 359.724C462.345 355.686 459.938 353.506 456.842 353.183C454.984 352.99 453.292 353.466 451.764 354.611C450.237 355.756 449.005 357.323 448.068 359.312ZM482.629 342.722C482.184 342.989 481.704 343.095 481.188 343.042C480.723 342.993 480.177 342.728 479.549 342.245C478.973 341.768 478.709 341.297 478.757 340.833C478.811 340.317 479.195 339.888 479.909 339.545C483.523 337.886 488.22 337.358 493.999 337.959C501.068 338.694 505.285 340.28 506.648 342.717C507.269 343.773 507.485 345.203 507.297 347.009C507.114 348.764 506.11 350.902 504.283 353.424C502.461 355.895 500.506 358.143 498.418 360.168C496.335 362.142 494.333 364.333 492.414 366.741C490.546 369.155 489.469 371.234 489.183 372.977C489.057 373.694 488.585 374.219 487.768 374.551C487.003 374.889 486.31 375.025 485.691 374.961L485.072 374.897C484.216 374.599 483.808 374.009 483.848 373.126C484.25 370.769 485.392 368.306 487.276 365.738C489.16 363.169 491.084 360.97 493.048 359.14C495.069 357.264 496.93 355.163 498.633 352.836C500.387 350.515 501.352 348.503 501.529 346.801C501.706 345.098 501.131 343.864 499.802 343.1C498.473 342.336 495.951 341.761 492.236 341.374C488.572 340.993 485.37 341.443 482.629 342.722ZM487.392 383.431C488.258 383.625 488.997 384.041 489.609 384.679C490.226 385.264 490.481 386.073 490.374 387.105C490.272 388.086 489.559 388.924 488.234 389.621C486.91 390.318 485.577 390.596 484.236 390.457C482.223 390.247 481.292 389.42 481.443 387.976C481.598 386.479 482.24 385.32 483.369 384.499C484.503 383.626 485.844 383.27 487.392 383.431Z" fill="#69F5CA"/>
</svg>
