<svg width="702" height="509" viewBox="0 0 702 509" fill="none" xmlns="http://www.w3.org/2000/svg">
<path fill-rule="evenodd" clip-rule="evenodd" d="M664.382 372.56C613.687 474.791 394.311 562.788 176.311 468.306C50.9204 413.962 3.48867 283.008 1.00504 222.437C-0.948081 174.804 34.5626 124.019 56.0003 102.199C101.569 55.8177 344.763 -1.95143 400.311 1.01554C478.73 -1.18469 527.652 66.874 589.377 70.1193C633.265 72.4268 764.687 170.285 664.382 372.56Z" fill="#5D14F0" fill-opacity="0.88"/>
<path fill-rule="evenodd" clip-rule="evenodd" d="M358.801 215.063C358.546 218.864 358.858 222.702 359.723 226.412C360.087 227.976 362.435 228.265 363.655 227.22C364.875 226.175 365.201 224.439 365.332 222.838C365.526 220.471 365.464 218.083 365.146 215.73C364.982 214.514 364.73 213.259 363.997 212.275C363.263 211.292 361.923 210.661 360.777 211.101C359.317 211.66 358.905 213.504 358.801 215.063Z" fill="white"/>
<path fill-rule="evenodd" clip-rule="evenodd" d="M174.183 121.794C187.581 115.159 203.581 113.97 217.812 118.553C221.388 111.682 226.655 105.7 233.017 101.284C234.245 100.432 236.002 99.6622 237.106 100.669C236.661 107.729 236.216 114.81 236.633 121.871C236.958 127.368 237.805 132.833 237.882 138.339C238.106 154.252 231.867 169.665 223.381 183.128C243.755 196.831 259.115 217.824 266.01 241.39C263.126 242.878 187.68 245.5 146.869 242.237C145.924 242.878 145.04 241.331 144.932 240.194C143.84 228.696 143.227 216.989 145.612 205.689C147.998 194.388 153.699 183.404 163.117 176.72C154.376 157.689 157.776 134.343 147.112 116.319C146.479 115.249 145.946 113.58 147.055 113.016C147.466 112.807 147.957 112.872 148.412 112.949C155.847 114.211 162.932 117.48 168.715 122.32C170.207 123.569 172.44 122.657 174.183 121.794Z" fill="white"/>
<path fill-rule="evenodd" clip-rule="evenodd" d="M463.296 240.225C463.245 240.225 471.042 228.534 475.824 223.095C480.19 218.129 482.75 211.607 482.927 204.997C467.829 204.4 452.807 201.906 438.327 197.591C436.111 196.931 433.825 196.181 432.145 194.592C428.223 190.882 429.193 184.412 431.216 179.406C433.671 173.329 437.239 167.704 441.689 162.893C443.211 161.248 444.861 159.66 445.858 157.653C446.854 155.646 447.064 153.064 445.72 151.272C443.454 148.251 442.976 144.284 442.74 140.515C442.504 136.747 442.397 132.829 440.685 129.463C438.973 126.098 435.086 123.481 431.475 124.585C430.6 123.248 432.33 121.704 433.853 121.221C439.605 119.393 446.048 120.993 451.091 124.31C456.133 127.627 459.959 132.491 463.245 137.553C464.528 139.53 466.697 141.852 468.789 140.765C483.072 133.349 500.504 132.268 515.595 137.863C517.692 138.641 520.916 138.974 521.344 136.778C523.473 125.844 532.599 116.608 543.508 114.348C539.221 117.423 538.961 123.677 539.819 128.882C540.678 134.087 542.189 139.633 540.049 144.454C538.322 148.346 542.673 152.005 546.196 154.396C551.517 158.007 556.275 162.446 560.247 167.504C564.176 172.508 567.451 178.939 565.657 185.044C563.307 193.035 553.903 196.198 545.811 198.171C537.911 200.096 530.011 202.022 522.112 203.948C521.966 211.655 524.718 219.382 529.701 225.262C533.698 229.979 539.506 234.84 538.235 240.891C540.896 245.111 515.917 244.889 463.296 240.225Z" fill="white"/>
<path fill-rule="evenodd" clip-rule="evenodd" d="M482.255 344.441C484.977 346.126 487.995 348.142 491.107 347.392C498.312 345.654 506.027 346.09 512.991 348.63C515.922 349.699 518.579 346.666 520.416 344.145C525.748 336.825 532.721 330.707 540.672 326.372C546.155 335.372 540.601 347.825 545.368 357.224C552.746 371.77 550.786 390.557 540.565 403.267C551.292 413.747 558.585 427.686 561.08 442.473C559.804 442.849 494.47 450.953 458.595 441.23C458.198 430.808 461.956 420.284 468.865 412.471C458.608 400.391 453.604 383.999 455.366 368.251C455.549 366.612 455.785 364.864 455.055 363.385C451.228 355.636 448.591 347.3 447.267 338.759C447.188 338.249 447.123 337.69 447.392 337.249C447.75 336.664 448.532 336.537 449.215 336.481C460.698 335.545 472.458 338.379 482.255 344.441Z" fill="white"/>
<path fill-rule="evenodd" clip-rule="evenodd" d="M171.527 443.89C172.832 436.075 174.138 428.26 175.443 420.444C175.782 418.416 175.734 415.699 173.779 415.064C167.68 413.082 162.526 408.367 160.01 402.468C159.218 400.61 156.772 399.949 154.827 400.496C152.882 401.043 151.331 402.473 149.859 403.858C150.698 400.577 153.713 397.97 157.081 397.614C158.224 395.688 156.587 393.026 154.418 392.467C152.248 391.907 149.964 392.885 148.152 394.203C148.011 392.115 150.552 391.093 152.477 390.273C154.403 389.453 156.283 386.862 154.641 385.564C153.926 384.998 152.908 385.099 152.005 385.228C149.395 385.601 146.784 385.975 144.174 386.348C144.471 384.246 147.202 383.707 149.318 383.544C151.435 383.382 154.168 382.351 153.932 380.241C153.025 372.112 154.993 363.867 158.279 356.376C161.001 350.17 152.99 343.954 153.516 337.198C153.557 336.675 153.681 336.102 154.104 335.79C154.607 335.417 155.313 335.566 155.912 335.751C160.036 337.023 163.859 339.258 166.992 342.226C168.513 343.667 170.963 342.685 172.876 341.831C179.932 338.682 188.201 338.356 195.483 340.939C202.059 343.272 207.891 332.019 214.407 334.512C212.744 339.986 211.081 345.46 209.417 350.934C208.959 352.444 208.524 354.178 209.359 355.518C212.169 360.032 213.873 365.23 214.281 370.532C214.569 374.267 215.292 379.312 219.026 379.605C217.4 380.32 215.606 381.212 215.043 382.897C214.48 384.582 216.405 386.806 217.862 385.789C219.12 384.912 221.152 385.644 221.562 387.122C219.407 386.911 217.069 387.146 215.385 388.506C213.7 389.867 213.039 392.618 214.467 394.246C217.599 392.955 221.3 393.124 224.302 394.696C222.513 396.011 220.055 395.622 217.839 395.49C215.622 395.358 212.923 395.87 212.138 397.947C209.52 404.881 203.086 410.231 195.792 411.541C192.198 412.186 191.622 417.046 191.918 420.685C192.54 428.319 193.161 435.952 193.783 443.586C192.503 444.801 177.643 446.485 171.527 443.89Z" fill="white"/>
<path fill-rule="evenodd" clip-rule="evenodd" d="M72.086 411.105C71.8314 414.905 72.1431 418.743 73.0079 422.453C73.3726 424.018 75.7202 424.307 76.9403 423.262C78.1605 422.217 78.4857 420.48 78.6171 418.879C78.8114 416.512 78.7491 414.125 78.4316 411.771C78.2675 410.555 78.0155 409.301 77.282 408.317C76.5486 407.333 75.2078 406.703 74.062 407.142C72.6026 407.702 72.1905 409.545 72.086 411.105V411.105Z" fill="white"/>
<path fill-rule="evenodd" clip-rule="evenodd" d="M367.199 432.056C367.654 432.312 367.59 433.045 367.206 433.399C366.822 433.752 366.266 433.828 365.747 433.888C363.938 434.096 361.949 434.263 360.449 433.229C361.211 432.686 361.974 432.142 362.736 431.599C362.256 430.912 361.316 430.772 360.485 430.671C359.653 430.57 358.707 430.37 358.302 429.637C357.896 428.904 358.78 427.737 359.445 428.247C361.499 429.819 364.519 429.998 366.745 428.679C368.209 427.811 369.596 426.305 371.267 426.631C370.099 428.905 367.785 430.553 365.254 430.914C365.312 431.798 366.399 432.436 367.199 432.056Z" fill="#00160A"/>
<path fill-rule="evenodd" clip-rule="evenodd" d="M76.7348 430.871C74.9241 431.081 72.9317 431.249 71.4322 430.213C72.2001 429.668 72.968 429.122 73.7359 428.577C73.2069 427.908 72.2577 427.793 71.4127 427.678C70.5678 427.562 69.6064 427.301 69.2565 426.524C68.9065 425.746 69.9532 424.658 70.5503 425.267C72.0177 426.764 74.4554 426.859 76.4381 426.179C78.4208 425.499 80.1129 424.189 81.9208 423.128C81.967 425.803 78.8344 427.212 76.2561 427.927C76.3161 428.799 77.3955 429.423 78.1813 429.04C78.6375 429.293 78.5751 430.027 78.1918 430.381C77.8086 430.735 77.2529 430.811 76.7348 430.871V430.871Z" fill="#00160A"/>
<path fill-rule="evenodd" clip-rule="evenodd" d="M72.7788 425.588C69.9463 424.533 69.3759 420.846 69.2595 417.825C69.1825 415.827 69.1055 413.829 69.0285 411.831C68.9854 410.712 68.9454 409.568 69.2758 408.498C69.827 406.714 71.4645 405.314 73.3134 405.047C75.1623 404.781 77.1286 405.661 78.1616 407.217C78.7521 408.107 79.0399 409.16 79.2656 410.203C79.7469 412.428 79.9872 414.705 79.9812 416.981C79.9754 419.187 79.7038 421.492 78.4794 423.328C77.2549 425.163 74.8461 426.359 72.7788 425.588H72.7788ZM75.3167 423.926C76.7826 423.464 77.3213 421.695 77.5291 420.172C77.8898 417.528 77.9202 414.84 77.6192 412.19C77.4677 410.855 77.2074 409.471 76.3865 408.407C75.5656 407.344 74.0293 406.723 72.8317 407.331C71.3464 408.086 71.1756 410.102 71.2034 411.767C71.2396 413.937 71.2758 416.108 71.3121 418.278C71.3346 419.628 71.3708 421.034 71.9962 422.231C72.6216 423.428 74.0289 424.332 75.3167 423.926V423.926Z" fill="#00160A"/>
<path fill-rule="evenodd" clip-rule="evenodd" d="M360.332 407.598C362.346 406.312 365.198 407.235 366.715 409.082C368.232 410.928 368.686 413.42 368.825 415.806C368.906 417.188 368.9 418.575 368.807 419.956C368.675 421.896 368.345 423.894 367.27 425.513C366.195 427.133 364.211 428.28 362.312 427.864C360.68 427.506 359.447 426.085 358.857 424.522C358.266 422.958 358.209 421.252 358.159 419.582C358.111 417.992 358.063 416.401 358.015 414.811C357.935 412.164 358.1 409.024 360.332 407.598ZM362.727 426.037C363.826 426.308 364.989 425.635 365.614 424.691C366.238 423.747 366.43 422.587 366.548 421.461C366.808 418.983 366.777 416.475 366.458 414.004C366.295 412.738 366.033 411.429 365.254 410.418C364.475 409.408 363.039 408.799 361.88 409.333C360.489 409.975 360.175 411.783 360.107 413.313C359.978 416.211 360.073 419.12 360.389 422.004C360.57 423.654 361.115 425.639 362.727 426.037V426.037Z" fill="#00160A"/>
<path fill-rule="evenodd" clip-rule="evenodd" d="M360.086 413.105C359.831 416.905 360.143 420.743 361.008 424.453C361.373 426.018 363.72 426.307 364.94 425.262C366.16 424.217 366.486 422.48 366.617 420.879C366.811 418.512 366.749 416.125 366.432 413.771C366.268 412.555 366.015 411.301 365.282 410.317C364.549 409.333 363.208 408.703 362.062 409.142C360.603 409.702 360.191 411.545 360.086 413.105V413.105Z" fill="white"/>
<path fill-rule="evenodd" clip-rule="evenodd" d="M356.057 230.144C356.264 229.462 357.144 229.213 357.839 229.376C358.533 229.539 359.124 229.983 359.779 230.264C362.225 231.312 365.028 229.948 367.108 228.288C367.806 227.73 368.928 227.169 369.455 227.89C368.202 230.019 365.969 231.544 363.53 231.937C363.604 232.811 364.673 233.435 365.471 233.069C365.921 233.326 365.854 234.053 365.472 234.403C365.09 234.754 364.539 234.829 364.024 234.889C362.228 235.098 360.261 235.268 358.754 234.27C359.558 233.637 360.362 233.005 361.167 232.373C359.301 232.121 357.51 231.34 356.057 230.144Z" fill="#00160A"/>
<path fill-rule="evenodd" clip-rule="evenodd" d="M449.215 336.481C460.698 335.545 472.458 338.379 482.255 344.441C484.977 346.126 487.995 348.142 491.107 347.392C498.312 345.654 506.027 346.09 512.991 348.63C515.922 349.699 518.579 346.666 520.416 344.145C525.748 336.825 532.721 330.707 540.672 326.372C546.155 335.372 540.601 347.825 545.368 357.224C552.746 371.77 550.786 390.557 540.565 403.267C551.292 413.747 558.585 427.686 561.08 442.473C559.804 442.849 558.967 441.185 558.659 439.891C555.907 428.335 550.441 417.435 542.827 408.318C541.044 406.183 538.129 403.971 535.777 405.456C517.089 417.256 493.398 420.82 472.064 415.04C468.544 414.086 466.046 418.36 464.916 421.828C462.809 428.295 460.702 434.762 458.595 441.23C458.198 430.808 461.956 420.284 468.865 412.471C458.608 400.391 453.604 383.999 455.366 368.251C455.549 366.612 455.785 364.864 455.055 363.385C451.228 355.636 448.591 347.3 447.267 338.759C447.188 338.249 447.123 337.69 447.392 337.249C447.75 336.664 448.532 336.537 449.215 336.481ZM495.791 357.186C491.735 360.911 488.389 365.407 485.989 370.364C484.57 365.611 485.339 360.253 488.036 356.091C484.388 357.455 481.011 359.538 478.155 362.186C478.158 358.227 480.17 354.322 483.392 352.021C481.997 352.062 480.602 352.103 479.207 352.143C480.66 350.341 482.707 349.026 484.95 348.454C474.676 341.127 461.796 337.536 449.213 338.492C451.432 351.607 456.729 364.191 464.558 374.945C461.213 373.577 458.48 370.783 457.186 367.409C455.751 380.928 459.192 394.913 466.736 406.222C468.141 408.328 469.711 410.372 471.749 411.873C475.131 414.363 479.463 415.126 483.645 415.508C500.37 417.035 517.526 413.48 532.268 405.434C535.101 403.888 537.877 402.156 540.123 399.838C543.095 396.771 545.002 392.805 546.229 388.714C549.449 377.981 548.083 365.952 542.539 356.214C541.537 359.201 540.536 362.189 539.535 365.176C539.113 366.436 537.237 367.752 536.879 366.472C541.852 354.689 542.918 341.296 539.873 328.874C528.517 336.411 519.002 346.7 512.373 358.609C512.094 355.835 512.807 352.972 514.354 350.652C507.184 356.144 500.971 362.879 496.074 370.468C495.185 366.105 495.088 361.582 495.791 357.186Z" fill="#00160A"/>
<path fill-rule="evenodd" clip-rule="evenodd" d="M65.5907 232.38C66.5586 232.55 67.6034 232.179 68.2476 231.437C66.2921 231.089 64.4206 230.278 62.8291 229.089C63.4631 228.004 65.0874 228.656 66.2582 229.114C69.0941 230.223 72.6349 229.084 74.2915 226.528C74.7371 225.841 75.9308 226.629 75.7998 227.437C75.6689 228.246 74.8717 228.746 74.1534 229.14C72.7808 229.892 71.4083 230.644 70.0357 231.396C71.1637 231.498 72.2497 232.013 73.0415 232.823C71.5454 234.042 69.438 234.066 67.5088 234.031C66.9849 234.022 66.4314 234.004 65.9881 233.725C65.5448 233.446 65.2846 232.806 65.5907 232.38Z" fill="#00160A"/>
<path fill-rule="evenodd" clip-rule="evenodd" d="M357.567 211.095C359.12 208.665 363.03 208.242 365.066 210.284C366.235 211.457 366.723 213.136 367.032 214.762C367.451 216.965 367.622 219.214 367.541 221.455C367.467 223.519 367.148 225.661 365.983 227.368C364.819 229.075 362.618 230.214 360.646 229.598C357.693 228.676 357.025 224.868 356.879 221.778C356.802 220.145 356.725 218.513 356.648 216.88C356.554 214.896 356.497 212.768 357.567 211.095ZM358.801 215.063C358.546 218.864 358.858 222.702 359.722 226.412C360.087 227.976 362.435 228.265 363.655 227.22C364.875 226.175 365.2 224.438 365.332 222.837C365.526 220.471 365.464 218.083 365.146 215.73C364.982 214.513 364.73 213.259 363.997 212.275C363.263 211.291 361.922 210.661 360.777 211.101C359.317 211.66 358.905 213.504 358.801 215.063Z" fill="#00160A"/>
<path fill-rule="evenodd" clip-rule="evenodd" d="M66.086 213.105C65.8314 216.905 66.1431 220.744 67.0079 224.453C67.3726 226.018 69.7202 226.307 70.9403 225.262C72.1605 224.217 72.4857 222.48 72.6171 220.879C72.8114 218.512 72.7491 216.125 72.4316 213.771C72.2675 212.555 72.0155 211.301 71.282 210.317C70.5486 209.333 69.2078 208.703 68.062 209.142C66.6026 209.702 66.1905 211.545 66.086 213.105V213.105Z" fill="white"/>
<path fill-rule="evenodd" clip-rule="evenodd" d="M66.6681 228.269C64.5275 227.2 63.9409 224.461 63.7063 222.079C63.4776 219.757 63.3466 217.426 63.3138 215.093C63.2919 213.534 63.3305 211.905 64.0626 210.528C64.8586 209.031 66.4745 208.005 68.1676 207.921C69.8608 207.837 71.5704 208.698 72.5107 210.109C73.1278 211.034 73.4131 212.138 73.6298 213.23C74.0763 215.477 74.2757 217.774 74.2233 220.065C74.1724 222.291 73.8425 224.621 72.5268 226.418C71.2112 228.214 68.6603 229.264 66.6681 228.269V228.269ZM66.0967 224.281C66.2523 225.021 66.4678 225.796 67.0177 226.316C68.0971 227.335 70.0045 226.827 70.9162 225.655C71.8278 224.483 71.9948 222.909 72.0549 221.425C72.1436 219.235 72.0745 217.038 71.8484 214.858C71.7201 213.621 71.525 212.344 70.8458 211.302C70.1666 210.26 68.8758 209.519 67.6764 209.848C65.7789 210.367 65.4129 212.858 65.4199 214.825C65.4313 217.991 65.4454 221.183 66.0967 224.281V224.281Z" fill="#00160A"/>
<path fill-rule="evenodd" clip-rule="evenodd" d="M463.296 240.225C463.776 232.999 471.042 228.534 475.824 223.095C480.19 218.129 482.75 211.607 482.927 204.997C467.829 204.4 452.807 201.906 438.327 197.591C436.111 196.931 433.825 196.181 432.145 194.592C428.223 190.882 429.193 184.412 431.216 179.406C433.671 173.329 437.239 167.704 441.689 162.893C443.211 161.248 444.861 159.66 445.858 157.653C446.854 155.646 447.064 153.064 445.72 151.272C443.454 148.251 442.976 144.284 442.74 140.515C442.504 136.747 442.397 132.829 440.685 129.463C438.973 126.098 435.086 123.481 431.475 124.585C430.6 123.248 432.33 121.704 433.853 121.221C439.605 119.393 446.048 120.993 451.091 124.31C456.133 127.627 459.959 132.491 463.245 137.553C464.528 139.53 466.697 141.852 468.789 140.765C483.072 133.349 500.504 132.268 515.595 137.863C517.692 138.641 520.916 138.974 521.344 136.778C523.473 125.844 532.599 116.608 543.508 114.348C539.221 117.423 538.961 123.677 539.819 128.882C540.678 134.087 542.189 139.633 540.049 144.454C538.322 148.346 542.673 152.005 546.196 154.396C551.517 158.007 556.275 162.446 560.247 167.504C564.176 172.508 567.451 178.939 565.657 185.044C563.307 193.035 553.903 196.198 545.811 198.171C537.911 200.096 530.011 202.022 522.112 203.948C521.966 211.655 524.718 219.382 529.701 225.262C533.698 229.979 539.506 234.84 538.235 240.891C535.532 234.457 530.461 229.372 526.388 223.706C522.314 218.039 519.103 210.948 520.946 204.217C517.34 202.928 513.555 205.505 510.828 208.194C508.101 210.883 505.224 214.053 501.401 214.268C495.102 214.622 491.17 206.936 485.013 205.561C484.871 209.683 483.792 213.769 481.883 217.425C479.851 221.312 476.934 224.652 474.044 227.951C470.461 232.043 466.879 236.134 463.296 240.225ZM469.164 142.469C465.335 144.331 471.266 151.608 467.838 154.135C466.075 144.569 461.078 135.629 453.853 129.117C449.16 124.887 442.934 121.554 436.727 122.729C440.356 124.155 442.565 127.927 443.515 131.709C444.466 135.491 444.432 139.448 445.094 143.291C446.258 150.056 449.642 156.419 454.599 161.167C452.341 161.138 450.153 159.75 449.164 157.721C442.215 163.969 436.63 171.727 432.911 180.301C431.444 183.683 430.299 187.716 432.114 190.925C433.646 193.631 436.816 194.889 439.775 195.847C450.42 199.295 461.494 201.417 472.66 202.151C479.332 202.589 486.535 202.701 491.868 206.734C493.806 208.199 495.397 210.127 497.509 211.327C499.621 212.528 502.6 212.773 504.244 210.985C510.663 204.005 520.423 201.299 529.749 199.582C539.075 197.865 548.813 196.716 556.944 191.836C559.995 190.005 562.888 187.469 563.875 184.05C565.216 179.4 562.712 174.548 559.882 170.623C554.175 162.707 546.749 156.037 538.269 151.209C537.899 152.677 536.991 154.004 535.757 154.88C535.358 153.218 536.085 151.522 536.666 149.915C540.264 139.98 538.624 129.011 536.941 118.58C525.904 124.948 520.169 139.274 523.763 151.5C521.658 151.891 520.663 148.941 520.868 146.81C521.072 144.68 521.243 141.896 519.269 141.069C503.386 134.412 484.65 134.935 469.164 142.469Z" fill="#00160A"/>
<path fill-rule="evenodd" clip-rule="evenodd" d="M176.718 369.53C177.826 371.403 177.949 373.824 177.035 375.799C176.55 376.846 174.91 376.81 174.087 376.001C173.263 375.192 173.047 373.965 172.888 372.822C172.743 371.788 172.618 370.696 173.012 369.729C173.407 368.762 174.51 368.001 175.493 368.356C176.036 368.552 176.424 369.033 176.718 369.53V369.53Z" fill="#00160A"/>
<path fill-rule="evenodd" clip-rule="evenodd" d="M193.783 443.586C190.271 434.672 189.098 424.848 190.414 415.358C187.105 418.983 180.999 419.602 177.03 416.713C177.98 426.049 176.034 435.659 171.527 443.89C172.832 436.075 174.138 428.26 175.443 420.444C175.782 418.416 175.734 415.699 173.779 415.064C167.68 413.082 162.526 408.367 160.01 402.468C159.218 400.61 156.772 399.949 154.827 400.496C152.882 401.043 151.331 402.473 149.859 403.858C150.698 400.577 153.713 397.97 157.081 397.614C158.224 395.688 156.587 393.026 154.418 392.467C152.248 391.907 149.964 392.885 148.152 394.203C148.011 392.115 150.552 391.093 152.477 390.273C154.403 389.453 156.283 386.862 154.641 385.564C153.926 384.998 152.908 385.099 152.005 385.228C149.395 385.601 146.784 385.975 144.174 386.348C144.471 384.246 147.202 383.707 149.318 383.544C151.435 383.382 154.168 382.351 153.932 380.241C153.025 372.112 154.993 363.867 158.279 356.376C161.001 350.17 152.99 343.954 153.516 337.198C153.557 336.675 153.681 336.102 154.104 335.79C154.607 335.417 155.313 335.566 155.912 335.751C160.036 337.023 163.859 339.258 166.992 342.226C168.513 343.667 170.963 342.685 172.876 341.831C179.932 338.682 188.201 338.356 195.483 340.939C202.059 343.272 207.891 332.019 214.407 334.512C212.744 339.986 211.081 345.46 209.417 350.934C208.959 352.444 208.524 354.178 209.359 355.518C212.169 360.032 213.873 365.23 214.281 370.532C214.569 374.267 215.292 379.312 219.026 379.605C217.4 380.32 215.606 381.212 215.043 382.897C214.48 384.582 216.405 386.806 217.862 385.789C219.12 384.912 221.152 385.644 221.562 387.122C219.407 386.911 217.069 387.146 215.385 388.506C213.7 389.867 213.039 392.618 214.467 394.246C217.599 392.955 221.3 393.124 224.302 394.696C222.513 396.011 220.055 395.622 217.839 395.49C215.622 395.358 212.923 395.87 212.138 397.947C209.52 404.881 203.086 410.231 195.792 411.541C192.198 412.186 191.622 417.046 191.918 420.685C192.54 428.319 193.161 435.952 193.783 443.586ZM196.683 388.72C195.532 389.771 193.548 390.866 192.696 389.562C197.619 384.279 204.371 380.732 211.515 379.675C212.972 379.459 213.295 377.513 213.191 376.043C212.678 368.812 210.603 361.695 207.149 355.321C206.631 356.661 204.991 357.448 203.622 357.013C207.706 350.877 210.393 343.817 211.422 336.519C204.885 339.229 199.077 343.675 194.754 349.278C194.152 347.128 195.114 344.637 197.005 343.45C188.382 340.286 178.473 340.814 170.235 344.877C170.449 346.214 170.664 347.551 170.878 348.888C166.837 343.993 161.571 340.118 155.696 337.716C157.606 344.848 160.39 351.746 163.967 358.205C162.414 358.541 160.727 357.195 160.709 355.606C157.464 362.667 155.68 370.396 155.502 378.166C155.45 380.399 156.35 383.421 158.572 383.19C164.638 382.562 170.934 384.672 175.397 388.827C171.255 387.631 167.113 386.434 162.97 385.238C161.188 384.723 159.143 384.241 157.581 385.241C156.018 386.242 156.204 389.345 158.059 389.381C162.917 387.965 168.408 388.916 172.506 391.885C167.709 390.817 162.692 390.749 157.867 391.686C156.663 394.59 160.751 396.863 163.894 396.848C167.038 396.833 170.974 396.494 172.5 399.242C168.646 399.042 164.792 398.841 160.938 398.64C161.996 405.508 167.899 411.34 174.778 412.315C176.091 412.501 176.952 413.723 177.929 414.62C181.816 418.184 189.279 415.763 190.333 410.596C199.285 410.321 207.811 404.367 211.151 396.057C206.61 396.702 202.07 397.347 197.529 397.991C198.591 395.941 201.117 395.155 203.413 394.916C205.71 394.676 208.137 394.756 210.174 393.668C212.21 392.579 213.533 389.708 212.075 387.917C206.401 389.911 200.728 391.905 195.054 393.9C196.942 391.086 199.918 389.024 203.216 388.244C205.515 387.7 207.958 387.754 210.158 386.893C212.358 386.032 214.323 383.766 213.701 381.488C207.431 381.888 201.323 384.484 196.683 388.72Z" fill="#00160A"/>
<path fill-rule="evenodd" clip-rule="evenodd" d="M190.997 365.199C190.235 365.16 189.314 365.012 189.033 364.303C190.888 362.202 194.906 362.871 195.981 365.459C194.32 365.372 192.658 365.286 190.997 365.199Z" fill="#00160A"/>
<path fill-rule="evenodd" clip-rule="evenodd" d="M188.15 404.586C188.745 405.303 188.621 406.43 188.062 407.175C187.503 407.92 186.609 408.34 185.711 408.587C184.403 408.946 182.854 408.941 181.859 408.019C180.419 406.686 181.112 403.974 182.883 403.128C184.654 402.282 186.897 403.076 188.15 404.586ZM182.986 404.997C182.536 405.835 183.491 406.866 184.442 406.868C185.393 406.871 186.213 406.238 186.95 405.636C185.981 404.579 184.256 404.315 183.016 405.035L182.986 404.997Z" fill="#00160A"/>
<path fill-rule="evenodd" clip-rule="evenodd" d="M193.127 375.881C191.957 376.47 190.479 375.525 190.037 374.292C189.595 373.058 189.892 371.695 190.232 370.43C190.426 369.709 190.686 368.921 191.336 368.552C192.207 368.057 193.372 368.623 193.879 369.488C194.385 370.352 194.41 371.406 194.421 372.408C194.435 373.714 194.293 375.293 193.127 375.881V375.881Z" fill="#00160A"/>
<path fill-rule="evenodd" clip-rule="evenodd" d="M172.084 404.643C175.6 405.096 179.306 403.394 181.253 400.432C183.201 397.47 183.294 393.393 181.485 390.345C180.528 388.732 179.072 386.723 180.231 385.248C180.819 384.5 181.864 384.308 182.815 384.257C183.855 384.201 184.959 384.266 185.827 384.84C186.696 385.414 187.201 386.643 186.673 387.54C184.588 391.082 184.907 395.888 187.442 399.123C189.978 402.359 194.568 403.817 198.506 402.638C199.226 402.423 200.407 402.496 200.265 403.234C200.23 403.413 200.106 403.56 199.979 403.691C197.754 405.989 193.898 405.615 191.033 404.193C188.369 402.871 186.084 400.798 184.511 398.275C183.103 400.676 181.65 403.13 179.495 404.89C177.34 406.651 174.3 407.601 171.718 406.564C171.01 406.28 170.276 405.427 170.787 404.861C171.093 404.522 171.63 404.585 172.084 404.643Z" fill="#00160A"/>
<path fill-rule="evenodd" clip-rule="evenodd" d="M178.313 364.34C178.489 364.895 177.716 365.231 177.138 365.293C176.041 365.411 174.945 365.53 173.848 365.648C173.002 365.739 171.786 365.491 171.879 364.645C173.386 363.057 176.044 362.725 177.895 363.895C178.071 364.006 178.25 364.142 178.313 364.34Z" fill="#00160A"/>
<path fill-rule="evenodd" clip-rule="evenodd" d="M474.132 425.807C473.913 423.724 473.962 421.276 475.613 419.988C477.064 418.856 479.123 419.124 480.934 419.448C483.81 419.962 486.685 420.476 489.561 420.991C491.808 421.392 494.213 421.778 496.302 420.858C497.969 420.124 499.879 420.91 501.701 420.926C503.187 420.939 504.622 420.43 506.021 419.928C510.314 418.387 514.606 416.847 518.899 415.306C519.688 415.023 520.565 414.74 521.341 415.056C522.521 415.537 522.785 417.059 522.876 418.33C522.98 419.778 523.084 421.225 523.188 422.673C523.315 424.441 523.43 426.287 522.737 427.919C522.043 429.55 520.268 430.87 518.552 430.427C514.12 429.284 509.611 428.438 505.067 427.896C504.152 427.787 502.96 427.852 502.66 428.723C501.969 430.72 499.113 430.4 497.029 430.048C492.251 429.241 487.159 430.5 483.307 433.44C482.275 434.227 481.311 435.14 480.121 435.657C478.931 436.173 477.408 436.201 476.464 435.311C475.819 434.703 475.564 433.799 475.358 432.938C474.794 430.591 474.384 428.208 474.132 425.807ZM495.693 424.144C489.893 423.043 484.065 422.092 478.216 421.291C477.293 421.165 476.434 421.927 476.13 422.807C475.826 423.688 475.944 424.652 476.078 425.574C476.372 427.597 476.728 429.612 477.145 431.613C477.276 432.24 477.428 432.895 477.853 433.374C478.279 433.852 479.071 434.068 479.567 433.664C482.737 431.088 486.491 429.234 490.464 428.283C491.658 427.997 492.899 427.781 493.955 427.154C495.012 426.527 495.86 425.361 495.693 424.144V424.144ZM512.201 419.662C509.114 420.513 505.835 421.482 503.759 423.92C503.128 424.661 502.998 426.238 503.971 426.201C508.822 426.018 513.707 426.775 518.275 428.418C519.246 428.767 520.342 428.071 520.8 427.147C521.259 426.223 521.244 425.145 521.219 424.113C521.172 422.17 521.125 420.226 521.078 418.282C521.07 417.971 521.026 417.598 520.746 417.46C520.56 417.368 520.337 417.421 520.136 417.477C517.491 418.205 514.846 418.934 512.201 419.662ZM497.116 426.875C497.251 427.332 497.446 427.793 497.807 428.103C498.692 428.865 500.182 428.319 500.775 427.313C501.368 426.307 501.309 425.056 501.173 423.896C501.011 422.505 498.934 422.051 497.881 422.974C496.828 423.898 496.72 425.532 497.116 426.875V426.875Z" fill="#00160A"/>
<path fill-rule="evenodd" clip-rule="evenodd" d="M531.673 389.574C529.105 389.26 526.453 389.662 524.092 390.723C523.483 390.997 522.89 390.097 523.154 389.483C523.418 388.87 524.108 388.577 524.738 388.355C528.382 387.074 533.009 386.44 535.608 389.298C534.496 390.058 533.011 389.737 531.673 389.574V389.574Z" fill="#00160A"/>
<path fill-rule="evenodd" clip-rule="evenodd" d="M503.637 403.191C503.698 405.174 501.818 406.787 499.865 407.141C497.913 407.495 495.925 406.912 494.026 406.336C492.373 405.834 491.858 403.512 492.73 402.02C493.602 400.529 495.368 399.791 497.073 399.512C498.478 399.282 499.97 399.306 501.26 399.906C502.551 400.505 503.594 401.768 503.637 403.191V403.191ZM494.48 403.667C494.573 404.261 495.269 404.519 495.853 404.662C496.987 404.94 498.157 405.221 499.313 405.049C500.468 404.878 501.62 404.142 501.921 403.013C500.205 401.239 497.14 400.995 495.165 402.476C494.78 402.765 494.405 403.191 494.48 403.667V403.667Z" fill="#00160A"/>
<path fill-rule="evenodd" clip-rule="evenodd" d="M473.921 393.071C470.494 393.079 467.066 393.086 463.639 393.094C462.917 393.095 461.898 392.716 462.141 392.036C465.721 390.48 469.875 390.291 473.581 391.516C474.263 391.741 475.005 392.661 474.37 392.997C474.235 393.069 474.075 393.071 473.921 393.071V393.071Z" fill="#00160A"/>
<path fill-rule="evenodd" clip-rule="evenodd" d="M511.844 380.027C512.039 378.802 512.375 377.385 513.508 376.881C514.599 376.395 515.925 377.088 516.552 378.103C517.18 379.119 517.286 380.362 517.375 381.553C515.829 381.694 514.284 381.835 512.738 381.976C511.91 382.052 511.713 380.847 511.844 380.027V380.027Z" fill="#00160A"/>
<path fill-rule="evenodd" clip-rule="evenodd" d="M525.264 394.663C524.766 394.56 524.252 394.45 523.837 394.156C523.538 393.944 523.304 393.642 523.174 393.3C526.667 391.827 531.115 393.162 533.221 396.313C530.569 395.763 527.916 395.213 525.264 394.663V394.663Z" fill="#00160A"/>
<path fill-rule="evenodd" clip-rule="evenodd" d="M518.075 373.375C518.963 371.955 521.177 372.621 522.516 373.627C523.837 374.618 525.018 375.794 526.017 377.109C525.973 377.882 524.772 377.707 524.122 377.286C522.106 375.983 520.091 374.679 518.075 373.375Z" fill="#00160A"/>
<path fill-rule="evenodd" clip-rule="evenodd" d="M469.616 396.816C471.03 396.333 472.443 395.85 473.856 395.367C474.422 395.174 475.027 394.978 475.608 395.121C476.189 395.264 476.691 395.895 476.468 396.45C473.691 397.488 470.88 398.43 468.039 399.275C467.588 398.886 467.68 398.118 468.071 397.669C468.462 397.22 469.053 397.009 469.616 396.816Z" fill="#00160A"/>
<path fill-rule="evenodd" clip-rule="evenodd" d="M481.34 379C481.879 379.365 482.157 380 482.408 380.601C482.741 381.4 483.081 382.262 482.9 383.109C482.72 383.956 481.77 384.686 480.991 384.306C480.11 383.876 479.152 385.454 478.283 384.998C477.871 384.782 477.792 384.238 477.762 383.775C477.681 382.528 477.616 381.206 478.207 380.106C478.798 379.006 480.305 378.301 481.34 379Z" fill="#00160A"/>
<path fill-rule="evenodd" clip-rule="evenodd" d="M470.558 378.443C471.86 375.242 475.594 373.237 478.982 373.921C479.442 374.015 480.011 374.359 479.848 374.8C479.762 375.033 479.503 375.144 479.269 375.23C476.366 376.301 473.462 377.372 470.558 378.443Z" fill="#00160A"/>
<path fill-rule="evenodd" clip-rule="evenodd" d="M487.854 394.624C487.125 394.716 486.195 394.646 485.921 393.964C486.41 393.573 486.997 393.158 487.607 393.3C488.217 393.442 488.438 394.507 487.825 394.636L487.854 394.624Z" fill="#00160A"/>
<path fill-rule="evenodd" clip-rule="evenodd" d="M502.467 393.577C503.235 393.449 503.64 392.37 503.145 391.769C502.65 391.168 501.513 391.357 501.24 392.086C500.967 392.815 501.7 393.705 502.467 393.577Z" fill="#00160A"/>
<path fill-rule="evenodd" clip-rule="evenodd" d="M485.407 398.785C484.332 398.629 482.949 397.929 483.279 396.893C484.465 396.21 485.935 396.795 487.288 396.991C488.642 397.187 490.469 396.446 490.246 395.096C490.473 395.665 490.699 396.233 490.925 396.802C492.303 396.435 493.589 395.728 494.639 394.763C495.232 394.217 495.761 393.279 495.235 392.669C494.015 391.257 495.339 388.61 497.201 388.74C499.063 388.87 500.007 391.674 498.604 392.904C498.24 393.223 498.606 393.808 498.983 394.111C501.616 396.225 505.288 396.977 508.54 396.067C509.995 395.66 511.852 395.062 512.777 396.257C508.137 399.607 501.088 399.024 497.061 394.959C494.796 398.655 489.698 399.406 485.407 398.785Z" fill="#00160A"/>
<path fill-rule="evenodd" clip-rule="evenodd" d="M507.268 392.427C507.715 392.628 507.785 393.353 507.385 393.636C506.984 393.919 506.324 393.612 506.283 393.124C506.452 392.761 506.844 392.513 507.245 392.517L507.268 392.427Z" fill="#00160A"/>
<path fill-rule="evenodd" clip-rule="evenodd" d="M490.42 392.937C490.888 393.656 492.262 392.762 491.794 392.043C491.325 391.324 489.952 392.218 490.42 392.937Z" fill="#00160A"/>
<path fill-rule="evenodd" clip-rule="evenodd" d="M451.426 178.929C449.624 179.129 447.682 179.568 446.087 178.707C447.974 176.932 450.79 176.587 453.378 176.715C457.762 176.931 462.088 178.263 465.835 180.55C465.048 182 462.875 181.287 461.383 180.585C458.301 179.133 454.813 178.553 451.426 178.929Z" fill="#00160A"/>
<path fill-rule="evenodd" clip-rule="evenodd" d="M514.762 163.863C514.475 162.78 514.46 161.894 515.448 161.365C516.887 160.596 521.429 160.667 521.92 161.787C522.411 162.907 520.543 168.057 517.923 168.057C516.875 168.057 515.049 164.947 514.762 163.863Z" fill="#00160A"/>
<path fill-rule="evenodd" clip-rule="evenodd" d="M543.58 176.623C537.941 176.974 532.357 178.206 527.094 180.26C526.372 180.541 525.262 180.651 525.098 179.894C526.017 178.35 527.862 177.658 529.587 177.153C533.448 176.025 537.423 175.285 541.432 174.95C542.011 174.901 542.63 174.869 543.137 175.154C543.643 175.44 543.942 176.167 543.58 176.623V176.623Z" fill="#00160A"/>
<path fill-rule="evenodd" clip-rule="evenodd" d="M544.717 182.949C540.257 183.347 535.798 183.746 531.338 184.145C530.524 184.218 529.306 183.674 529.775 183.005C534.362 181.571 539.179 180.873 543.984 180.945C545.172 180.963 546.552 181.134 547.176 182.145C546.545 182.759 545.594 182.87 544.717 182.949V182.949Z" fill="#00160A"/>
<path fill-rule="evenodd" clip-rule="evenodd" d="M479.139 168.43C478.194 169.541 476.277 169.223 475.265 168.172C474.252 167.122 473.907 165.615 473.602 164.188C473.444 163.444 473.304 162.598 473.747 161.98C474.212 161.331 480.683 161.284 480.99 161.841C481.298 162.397 481.108 162.867 480.99 163.299C480.777 164.084 479.824 167.625 479.139 168.43Z" fill="#00160A"/>
<path fill-rule="evenodd" clip-rule="evenodd" d="M445.359 186.07C450.983 183.754 457.259 183.048 463.258 184.057C463.9 184.165 464.606 184.335 464.971 184.874C465.336 185.413 464.984 186.377 464.339 186.285C457.371 185.295 449.807 185.367 443.877 189.158C443.254 188.803 443.211 187.858 443.609 187.262C444.007 186.666 444.696 186.343 445.359 186.07Z" fill="#00160A"/>
<path fill-rule="evenodd" clip-rule="evenodd" d="M486.65 191.611C486.361 190.778 486.982 189.758 487.855 189.633C488.203 189.86 488.432 190.261 488.451 190.676C488.179 191.319 487.464 191.743 486.769 191.674L486.65 191.611Z" fill="#00160A"/>
<path fill-rule="evenodd" clip-rule="evenodd" d="M477.552 155.515C478.526 155.53 479.863 156.182 479.436 157.058C475.201 157.306 471.019 158.427 467.227 160.33C466.667 160.274 466.402 159.532 466.618 159.013C466.834 158.494 467.347 158.171 467.841 157.902C470.803 156.294 474.182 155.463 477.552 155.515Z" fill="#00160A"/>
<path fill-rule="evenodd" clip-rule="evenodd" d="M501.189 190.9C501.806 190.235 503.048 190.345 503.54 191.107C503.059 192.026 501.443 191.935 501.068 190.968L501.189 190.9Z" fill="#00160A"/>
<path fill-rule="evenodd" clip-rule="evenodd" d="M505.48 190.457C505.909 189.833 507.129 190.373 506.955 191.111C506.774 191.483 506.371 191.735 505.957 191.735C505.482 191.552 505.247 190.915 505.491 190.468L505.48 190.457Z" fill="#00160A"/>
<path fill-rule="evenodd" clip-rule="evenodd" d="M490.91 187.062C490.48 187.686 489.261 187.146 489.435 186.408C489.616 186.037 490.019 185.784 490.432 185.785C490.908 185.967 491.142 186.604 490.898 187.051L490.91 187.062Z" fill="#00160A"/>
<path fill-rule="evenodd" clip-rule="evenodd" d="M483.712 188.768C483.675 189.492 484.576 190.077 485.222 189.747C485.868 189.417 485.923 188.344 485.315 187.95C484.706 187.555 483.749 188.044 483.712 188.768Z" fill="#00160A"/>
<path fill-rule="evenodd" clip-rule="evenodd" d="M502.081 188.316C502.697 188.777 503.745 188.329 503.836 187.565C503.928 186.8 503.015 186.117 502.308 186.42C501.6 186.723 501.465 187.855 502.081 188.316Z" fill="#00160A"/>
<path fill-rule="evenodd" clip-rule="evenodd" d="M513.516 157.683C517.137 155.061 522.151 156.264 526.425 157.573C527.095 157.778 527.933 158.392 527.546 158.976C527.316 159.324 526.81 159.312 526.396 159.261C522.103 158.735 517.809 158.209 513.516 157.683Z" fill="#00160A"/>
<path fill-rule="evenodd" clip-rule="evenodd" d="M497.316 188.318C498.62 192.368 503.304 194.995 507.44 193.994C509.258 193.554 511.336 192.565 512.828 193.695C510.212 195.885 506.531 196.736 503.219 195.918C499.907 195.099 497.047 192.63 495.753 189.474C493.189 193.048 489.123 195.507 484.766 196.117C484.115 196.209 483.377 196.235 482.885 195.8C482.392 195.365 482.522 194.327 483.177 194.281C486.773 194.031 490.262 192.451 492.822 189.914C494.213 188.537 495.355 186.323 494.244 184.713C493.208 183.212 492.375 181.572 491.774 179.85C491.552 179.212 491.379 178.446 491.789 177.909C492.092 177.511 492.62 177.375 493.107 177.263C494.586 176.924 496.117 176.583 497.609 176.866C499.1 177.148 500.552 178.227 500.773 179.729C501.239 182.901 496.334 185.265 497.316 188.318Z" fill="#00160A"/>
<path fill-rule="evenodd" clip-rule="evenodd" d="M202.147 177.38C202.468 176.445 204.209 176.769 204.173 177.756C203.809 178.684 202.082 178.343 202.099 177.346L202.147 177.38Z" fill="#00160A"/>
<path fill-rule="evenodd" clip-rule="evenodd" d="M186.44 181.678C186.242 180.681 184.338 181.059 184.536 182.056C184.734 183.053 186.638 182.674 186.44 181.678Z" fill="#00160A"/>
<path fill-rule="evenodd" clip-rule="evenodd" d="M189.139 183.366C189.595 182.804 190.399 182.551 191.095 182.751C191.323 183.034 191.395 183.436 191.279 183.78C190.763 183.991 190.247 184.201 189.731 184.411C189.513 184.081 189.294 183.751 189.075 183.422L189.139 183.366Z" fill="#00160A"/>
<path fill-rule="evenodd" clip-rule="evenodd" d="M189.37 181.002C189.024 180.761 188.791 180.363 188.75 179.943C189.126 179.161 190.459 179.152 190.846 179.929C190.49 180.441 189.963 180.832 189.37 181.023L189.37 181.002Z" fill="#00160A"/>
<path fill-rule="evenodd" clip-rule="evenodd" d="M177.238 183.577C176.722 184.25 175.558 183.377 175.697 182.541C175.836 181.704 176.619 181.16 177.281 180.632C178.695 179.504 179.834 178.032 181.373 177.082C182.912 176.133 185.116 175.859 186.399 177.133C182.788 178.288 179.545 180.569 177.238 183.577Z" fill="#00160A"/>
<path fill-rule="evenodd" clip-rule="evenodd" d="M172.823 174.436C174.917 172.478 177.519 171.068 180.303 170.385C180.897 170.239 181.547 170.131 182.103 170.386C182.659 170.642 183.011 171.407 182.638 171.892C179.095 172.521 175.762 174.276 173.238 176.84C172.779 177.307 171.909 176.744 171.886 176.09C171.862 175.436 172.346 174.883 172.823 174.436Z" fill="#00160A"/>
<path fill-rule="evenodd" clip-rule="evenodd" d="M199.323 178.016C199.26 177.536 200.082 177.798 200.328 178.216C199.994 178.715 199.659 179.214 199.324 179.713C198.629 179.488 198.597 178.297 199.279 178.036L199.323 178.016Z" fill="#00160A"/>
<path fill-rule="evenodd" clip-rule="evenodd" d="M220.026 175.405C216.997 174.472 213.969 173.54 210.94 172.607C210.232 172.389 209.456 172.118 209.097 171.47C213.277 170.524 217.875 171.644 221.152 174.407C221.29 174.523 221.433 174.653 221.478 174.828C221.638 175.447 220.637 175.593 220.026 175.405Z" fill="#00160A"/>
<path fill-rule="evenodd" clip-rule="evenodd" d="M199.966 180.851C200.303 180.447 201.019 180.457 201.344 180.872C201.668 181.286 201.507 181.984 201.034 182.215C200.33 182.145 199.725 181.511 199.689 180.804L199.966 180.851Z" fill="#00160A"/>
<path fill-rule="evenodd" clip-rule="evenodd" d="M217.887 181.972C214.746 180.869 211.604 179.766 208.463 178.664C208.206 178.574 207.934 178.473 207.77 178.256C207.408 177.781 207.827 177.041 208.397 176.863C208.967 176.685 209.579 176.884 210.142 177.082C211.835 177.675 213.527 178.269 215.22 178.862C216.669 179.37 218.454 180.545 217.887 181.972V181.972Z" fill="#00160A"/>
<path fill-rule="evenodd" clip-rule="evenodd" d="M629.267 45.5726C640.672 50.1912 648.43 61.3096 652.029 73.0761C655.628 84.8425 655.663 97.3606 655.668 109.665C655.705 200.829 655.741 291.994 655.778 383.158C655.778 396.495 655.675 410.356 649.89 422.373C644.585 433.389 634.545 442.025 622.859 445.622C614.379 448.233 605.349 448.252 596.476 448.252C428.464 448.223 260.451 448.194 92.4387 448.164C84.0682 448.163 75.1182 447.99 68.2279 443.237C57.1942 435.627 56.1031 420.032 56.0989 406.628C56.066 302.467 56.033 198.307 56 94.1463C56 86.4044 56.0273 78.4727 58.7025 71.2077C63.32 58.668 75.3149 49.9999 88.0663 46.004C100.818 42.0081 114.426 41.9871 127.789 42.0002C158.026 42.0346 188.264 42.0676 218.502 42.1006C347.577 42.2415 476.652 42.3823 605.727 42.5231C613.692 42.5318 621.885 42.5832 629.267 45.5726V45.5726ZM348.169 446.064C348.097 379.783 348.026 313.502 347.954 247.222C252.622 247.26 157.289 247.299 61.9566 247.338C61.1361 247.338 60.2177 247.378 59.6519 247.973C59.1207 248.531 59.089 249.383 59.0884 250.153C59.0457 305.772 59.003 361.391 58.9601 417.01C58.9601 419.907 58.9601 422.831 59.5717 425.663C61.6002 435.032 70.1421 441.881 79.2975 444.722C88.4529 447.564 98.2556 447.133 107.835 446.775C144.926 445.39 182.055 445.513 219.172 445.636C262.171 445.778 305.17 445.921 348.169 446.064ZM350.617 247.512C350.673 313.617 350.728 379.722 350.784 445.828C434.345 445.75 517.906 445.672 601.466 445.594C607.75 445.588 614.102 445.574 620.213 444.113C634.593 440.674 646.485 428.887 650.72 414.721C653.221 406.353 653.222 397.471 653.202 388.737C653.094 341.545 652.987 294.354 652.879 247.163C552.125 247.279 451.371 247.396 350.617 247.512ZM350.587 45.4834C350.674 111.761 350.761 178.039 350.848 244.317C450.683 244.323 550.518 244.33 650.353 244.337C651.185 244.337 652.14 244.28 652.647 243.621C653.011 243.149 653.026 242.504 653.027 241.908C653.041 193.598 653.056 145.287 653.07 96.9769C653.07 89.8453 653.063 82.6226 651.274 75.719C646.387 56.8537 626.972 42.8853 607.531 44.2467C593.116 45.2562 578.651 45.2702 564.2 45.2837C492.996 45.3503 421.791 45.4168 350.587 45.4834ZM348.164 244.061C348.085 177.791 348.005 111.521 347.926 45.2512C265.612 45.2219 183.298 45.1925 100.984 45.1631C81.571 45.1562 63.2579 60.436 59.7873 79.5362C58.8824 84.5163 58.8879 89.611 58.8947 94.6727C58.9783 144.481 59.0604 194.29 59.1425 244.098C155.482 244.498 251.824 244.486 348.164 244.061Z" fill="#69F5CA"/>
<path fill-rule="evenodd" clip-rule="evenodd" d="M196.998 178.022C196.413 179.554 197.157 181.329 198.334 182.471C200.051 184.136 202.695 184.775 204.982 184.076C206.628 183.573 208.623 182.517 209.841 183.732C206.211 187.388 199.32 186.873 196.275 182.718C195.323 185.199 193.145 187.175 190.583 187.88C188.022 188.585 185.139 188.003 183.052 186.359C184.586 185.088 186.86 186.08 188.853 186.091C190.96 186.103 193.02 184.814 193.93 182.914C194.841 181.013 194.554 178.6 193.224 176.965C191.868 175.299 190.818 173.384 190.142 171.344C189.986 170.871 189.849 170.357 190 169.883C190.31 168.912 191.557 168.682 192.574 168.631C194.66 168.526 196.749 168.47 198.837 168.461C199.841 168.457 201.057 168.593 201.479 169.503C201.756 170.103 201.556 170.808 201.312 171.423C200.677 173.024 199.764 174.514 198.626 175.807C198.017 176.499 197.327 177.161 196.998 178.022Z" fill="#00160A"/>
<path fill-rule="evenodd" clip-rule="evenodd" d="M214.856 137.242C211.769 136.667 208.516 137.013 205.619 138.224C205.216 138.392 204.752 138.576 204.363 138.377C203.889 138.135 203.84 137.425 204.135 136.981C204.43 136.538 204.947 136.303 205.445 136.113C210.569 134.148 216.547 134.55 221.362 137.182C219.528 138.46 217.053 137.65 214.856 137.242V137.242Z" fill="#00160A"/>
<path fill-rule="evenodd" clip-rule="evenodd" d="M213.343 152.845C213.083 153.355 212.77 153.879 212.259 154.139C211.503 154.524 210.52 154.164 210.004 153.49C209.488 152.816 209.363 151.914 209.426 151.067C209.554 149.338 211.051 147.397 212.683 147.983C214.433 148.611 214.189 151.19 213.343 152.845V152.845Z" fill="#00160A"/>
<path fill-rule="evenodd" clip-rule="evenodd" d="M183.377 149.889C183.561 151.359 182.911 153.005 181.567 153.628C180.223 154.251 178.311 153.407 178.167 151.933C178.117 151.42 178.267 150.91 178.424 150.419C178.881 148.987 179.821 147.303 181.319 147.431C182.472 147.53 183.234 148.741 183.377 149.889Z" fill="#00160A"/>
<path fill-rule="evenodd" clip-rule="evenodd" d="M170.285 139.355C170.046 138.587 170.976 138 171.744 137.76C176.27 136.345 181.163 136.121 185.799 137.115C186.481 137.262 187.232 137.488 187.572 138.097C187.912 138.705 187.391 139.702 186.729 139.484C182.175 137.988 177.118 138.071 172.616 139.718C171.784 140.023 170.549 140.201 170.285 139.355V139.355Z" fill="#00160A"/>
<path fill-rule="evenodd" clip-rule="evenodd" d="M237.106 100.669C236.661 107.729 236.216 114.81 236.633 121.871C236.958 127.368 237.805 132.833 237.882 138.339C238.106 154.252 231.867 169.665 223.381 183.128C243.755 196.831 259.115 217.824 266.01 241.39C263.072 239.558 261.809 236.006 260.576 232.771C253.766 214.908 241.782 199.052 226.455 187.626C224.257 185.988 220.521 184.749 219.305 187.206C216.559 192.758 212.5 197.655 207.554 201.384C205.76 202.736 203.752 204.073 202.35 205.771C202.362 205.91 202.368 206.05 202.368 206.191C202.368 209.063 200.04 211.391 197.168 211.391C195.216 211.391 193.515 210.316 192.625 208.725C179.68 203.033 169.146 191.984 164.191 178.725C154.726 185.289 149.268 196.46 147.176 207.787C145.083 219.114 145.973 230.754 146.869 242.237C145.924 242.878 145.04 241.331 144.932 240.194C143.84 228.696 143.227 216.989 145.612 205.689C147.998 194.388 153.699 183.404 163.117 176.72C154.376 157.689 157.776 134.343 147.112 116.319C146.479 115.249 145.946 113.58 147.055 113.016C147.466 112.807 147.957 112.872 148.412 112.949C155.847 114.211 162.932 117.48 168.715 122.32C170.207 123.569 172.44 122.657 174.183 121.794C187.581 115.159 203.581 113.97 217.812 118.553C221.388 111.682 226.655 105.7 233.017 101.284C234.245 100.432 236.002 99.6622 237.106 100.669ZM191.146 193.528C195.732 193.93 200.404 194.327 204.898 193.329C215.177 191.047 222.551 181.953 227.261 172.535C232.653 161.752 235.675 149.79 236.049 137.738C232.724 140.412 229.4 143.087 226.075 145.761C224.106 147.344 221.955 149.294 221.993 151.821C222.047 155.413 219.821 158.94 216.554 160.437C213.288 161.935 209.163 161.319 206.476 158.933C203.444 156.241 201.722 151.366 197.682 151.011C192.918 150.592 190.649 156.701 186.815 159.56C181.931 163.204 174.047 160.468 171.608 154.883C171.144 153.821 171.31 151.935 170.248 151.288C166.859 149.225 163.117 149.15 158.702 149.297C159.489 158.918 161.818 168.411 165.573 177.304C167.237 181.244 169.265 185.178 172.531 187.94C177.562 192.194 184.583 192.952 191.146 193.528ZM218.749 120.734C217.267 123.562 214.78 127.102 211.799 125.96C213.714 124.319 215.368 122.375 216.682 120.222C201.845 115.992 185.409 117.679 171.74 124.833C172.916 126.257 174.363 127.457 175.98 128.349C174.269 129.979 171.629 127.981 170.01 126.26C164.5 120.401 156.967 116.482 149.007 115.331C152.274 120.573 155.293 130.957 158.067 146.482C162.561 147.499 165.582 148.023 167.129 148.056C168.91 148.094 171.079 147.909 171.858 146.307C173.914 142.075 179.064 139.606 183.652 140.654C188.239 141.701 191.807 146.161 191.823 150.866C194.798 148.917 198.779 148.608 202.02 150.074C202.358 146.069 205.391 142.431 209.27 141.38C213.148 140.328 217.604 141.935 219.919 145.22C220.925 146.649 223.153 145.599 224.489 144.471C227.256 142.134 230.024 139.796 232.791 137.459C234.35 136.142 236.066 134.433 235.739 132.418C234.12 122.44 233.918 112.233 235.14 102.199C228.291 106.938 222.614 113.357 218.749 120.734ZM211.676 192.575C205.015 197.099 196.224 196.311 188.231 195.343C183.865 194.814 179.347 194.234 175.593 191.942C174.821 191.471 173.81 190.932 173.097 191.488C177.573 197.073 183.367 201.593 189.873 204.574C190.84 205.017 192.266 205.278 192.724 204.319C193.778 202.111 196.976 201.294 198.96 202.724C200.574 203.888 202.805 202.77 204.399 201.581C207.981 198.91 211.249 195.82 214.117 192.394C213.698 191.563 212.446 192.052 211.676 192.575ZM173.906 155.085C175.914 158.474 180.494 160.072 184.174 158.665C187.854 157.259 190.203 153.015 189.439 149.15C188.675 145.286 184.888 142.253 180.95 142.353C177.012 142.452 173.383 145.672 172.816 149.57C172.54 151.46 172.932 153.442 173.906 155.085ZM204.495 149.225C204.022 152.025 205.119 154.976 207.105 157.005C208.564 158.495 210.575 159.548 212.659 159.471C216.385 159.333 219.095 155.77 220.245 152.223C220.544 151.298 220.78 150.315 220.598 149.36C220.361 148.12 219.461 147.118 218.52 146.276C216.16 144.163 212.976 142.562 209.888 143.272C207.122 143.908 204.968 146.426 204.495 149.225Z" fill="#00160A"/>
</svg>
