<svg width="514" height="365" viewBox="0 0 514 365" fill="none" xmlns="http://www.w3.org/2000/svg">
<mask id="mask0_34_777" style="mask-type:alpha" maskUnits="userSpaceOnUse" x="0" y="0" width="514" height="365">
<rect width="514" height="365" fill="#D9D9D9"/>
</mask>
<g mask="url(#mask0_34_777)">
<path d="M498.486 271.005C496.707 296.005 491.368 314.11 483.626 327.648C483.145 328.513 482.64 329.355 482.122 330.184C477.927 336.947 473.094 342.509 467.792 347.194C466.806 348.071 465.795 348.913 464.774 349.729C458.437 354.799 451.512 358.763 444.251 362.163C437.325 365.419 430.171 367.654 422.921 368.915C327.507 385.41 264.998 395.741 166.734 397.206C138.661 397.627 110.19 396.739 83.2229 385.65C56.2667 374.561 30.6096 352.096 16.2777 317.785C-0.0618869 278.657 0.263842 230.411 1.21302 184.928C2.06677 144.515 3.97784 100.558 22.7706 70.1993C40.6128 41.3792 69.1556 32.2967 95.8103 26.1459C185.635 5.45852 277.214 0.184973 367.928 10.4803C405.115 14.6974 445.945 24.3202 469.715 65.2131C487.448 95.7165 491.729 137.235 495.348 176.471C498.234 207.838 500.734 239.542 498.486 271.005Z" fill="#202020"/>
<path d="M350.647 355.406V380.588L375.136 377.051V353.019L350.647 355.406Z" fill="#767676"/>
<mask id="mask1_34_777" style="mask-type:luminance" maskUnits="userSpaceOnUse" x="0" y="5" width="500" height="393">
<path d="M498.49 271.044C496.715 296.045 491.379 314.15 483.639 327.688C483.158 328.552 482.653 329.394 482.135 330.222C477.941 336.986 473.109 342.547 467.807 347.232C466.822 348.109 465.811 348.95 464.79 349.767C458.455 354.836 451.531 358.799 444.27 362.197C437.345 365.453 430.191 367.686 422.941 368.947C327.532 385.428 265.026 395.75 166.764 397.201C138.692 397.619 110.222 396.726 83.2535 385.633C56.2965 374.539 30.637 352.07 16.2996 317.756C-0.0444898 278.624 0.273422 230.376 1.21607 184.892C2.06329 144.477 3.96797 100.52 22.7562 70.1629C40.5938 41.3443 69.135 32.2656 95.7874 26.118C185.607 5.44377 277.184 0.1828 367.897 10.4925C405.084 14.7149 445.914 24.3441 469.69 65.2419C487.427 95.7485 491.714 137.269 495.339 176.507C498.228 207.875 500.734 239.58 498.49 271.044Z" fill="white"/>
</mask>
<g mask="url(#mask1_34_777)">
<path d="M215.241 334.319C226.28 334.32 235.233 325.422 235.205 314.392C235.007 234.328 233.284 116.549 233.23 37.3238C233.222 26.1477 224.089 17.1431 212.905 17.2899L41.4053 19.5399C30.647 19.6811 21.9317 28.2383 21.7734 38.9885C20.7236 110.29 21.2549 242.173 20.2455 313.863C20.0874 325.09 29.1267 334.292 40.3629 334.293L215.241 334.319Z" fill="#767676"/>
</g>
<path d="M18.9633 93.3624C54.4481 95.8491 90.5589 94.2269 126.124 94.3731C161.841 94.5206 197.568 94.7698 233.286 94.4532C235.769 94.4316 235.773 90.6176 233.286 90.5959C197.568 90.2794 161.841 90.5286 126.124 90.676C90.5601 90.8222 54.4481 89.2 18.9633 91.6868C17.8856 91.7618 17.8831 93.2861 18.9633 93.3624Z" fill="#202020"/>
<path d="M18.9633 177.116C54.4481 179.603 90.5589 177.981 126.124 178.127C161.841 178.274 197.568 178.524 233.286 178.207C235.769 178.185 235.773 174.371 233.286 174.35C197.568 174.033 161.841 174.282 126.124 174.43C90.5601 174.576 54.4481 172.954 18.9633 175.441C17.8856 175.516 17.8831 177.04 18.9633 177.116Z" fill="#202020"/>
<path d="M17.0476 260.87C53.1749 263.357 89.9181 261.733 126.124 261.88C162.481 262.028 198.846 262.277 235.201 261.961C237.685 261.939 237.688 258.125 235.201 258.103C198.846 257.787 162.481 258.036 126.124 258.183C89.9168 258.33 53.1762 256.706 17.0476 259.194C15.9699 259.268 15.9674 260.795 17.0476 260.87Z" fill="#202020"/>
<path d="M129.042 18.3913C128.235 58.9079 127.043 99.4423 126.774 140.011C126.487 183.3 126.527 226.588 126.597 269.879C126.633 291.978 125.763 314.305 127.08 336.368C127.243 339.092 131.158 339.096 131.32 336.368C132.469 317.125 131.757 297.676 131.789 278.402C131.823 257.185 131.894 235.967 131.888 214.748C131.876 171.463 131.799 128.163 131.215 84.8815C130.915 62.7041 129.799 40.5268 129.358 18.3913C129.353 18.1879 129.045 18.1879 129.042 18.3913Z" fill="#202020"/>
<path d="M163.778 154.464C181.281 143.326 198.798 131.603 215.423 119.191C216.582 118.326 215.542 116.383 214.258 117.198C196.728 128.323 179.532 140.537 162.883 152.935C161.993 153.599 162.793 155.092 163.778 154.464Z" fill="#202020"/>
<path d="M166.062 141.046C171.802 138.504 176.587 133.581 181.185 129.44C182.038 128.674 180.889 127.129 179.94 127.827C174.895 131.54 169.1 135.229 165.413 140.397C165.106 140.829 165.68 141.216 166.062 141.046Z" fill="#202020"/>
<path d="M43.5455 236.203C58.987 225.72 74.0643 214.74 89.2063 203.832C90.264 203.071 89.2707 201.302 88.1685 202.057C72.7778 212.589 57.3438 223.036 42.2516 233.992C40.9401 234.943 42.1631 237.141 43.5455 236.203Z" fill="#202020"/>
<path d="M72.0551 232.604C77.7409 229.137 83.4955 225.741 88.9821 221.967C90.3082 221.056 89.1279 218.944 87.7058 219.784C81.9635 223.164 76.4516 226.948 70.9045 230.639C69.6956 231.443 70.7917 233.375 72.0551 232.604Z" fill="#202020"/>
<path d="M61.6727 74.2139C73.9247 66.7914 86.6631 58.5157 97.2592 48.8369C98.218 47.9623 96.9607 46.2941 95.86 47.0233C83.8399 54.9942 72.4365 64.5415 61.1369 73.5188C60.7397 73.8347 61.2506 74.47 61.6727 74.2139Z" fill="#202020"/>
<path d="M338.416 146.708H263.468C261.959 146.708 258.262 145.997 256.902 146.708C255.935 147.214 256.697 148.074 257.18 147.011C257.659 145.95 257.18 143.527 257.18 142.379V43.9375C257.18 40.2239 258.031 35.3979 257.18 31.7656C257.01 31.0448 255.847 31.7211 256.902 32.2729C258.262 32.9836 261.959 32.2729 263.468 32.2729H335.324C335.848 32.2729 337.142 32.517 337.61 32.2729C339.149 31.4694 337.357 34.3363 337.334 31.2075C337.341 32.072 337.334 32.9366 337.334 33.7998V147.789C337.334 149.181 339.497 149.183 339.497 147.789V31.191C339.497 30.6074 339.002 30.1104 338.416 30.1104H256.097C255.511 30.1104 255.015 30.6062 255.015 31.191V147.789C255.015 148.374 255.51 148.871 256.097 148.871H338.416C339.808 148.871 339.81 146.708 338.416 146.708Z" fill="#767676"/>
<path d="M263.784 39.877H330.727V139.689H263.784V39.877Z" fill="#767676"/>
<path d="M255.639 32.2405C258.623 35.145 261.606 38.0497 264.59 40.9542C265.284 41.6282 266.348 40.5668 265.653 39.8921C262.669 36.9866 259.686 34.0828 256.702 31.1784C256.008 30.5044 254.945 31.5648 255.639 32.2405Z" fill="#767676"/>
<path d="M329.596 42.2149C330.223 42.1348 330.657 41.5156 331.055 41.0745C331.764 40.2888 332.451 39.4853 333.137 38.6793C334.722 36.818 336.287 34.939 337.846 33.0561C338.214 32.6111 338.581 32.1674 338.946 31.7224C339.556 30.9813 338.499 29.9133 337.884 30.6609C335.427 33.6485 332.97 36.6438 330.409 39.545C330.128 39.8629 329.846 40.1795 329.554 40.4871C329.458 40.5876 329.36 40.6829 329.264 40.7821C329.233 40.8126 329.196 40.838 329.166 40.8698C329.255 40.7795 329.32 40.7477 329.596 40.7134C329.19 40.7655 328.849 41.0211 328.844 41.4635C328.84 41.8309 329.194 42.2657 329.596 42.2149Z" fill="#767676"/>
<path d="M257.092 148.349C259.951 144.407 263.272 140.812 266.956 137.627C267.688 136.994 266.622 135.936 265.894 136.565C262.11 139.838 258.731 143.541 255.795 147.591C255.226 148.374 256.53 149.124 257.092 148.349Z" fill="#767676"/>
<path d="M329.484 137.799C332.284 141.176 335.085 144.553 337.884 147.929C338.502 148.674 339.561 147.607 338.947 146.867C336.147 143.49 333.346 140.114 330.546 136.737C329.929 135.992 328.871 137.06 329.484 137.799Z" fill="#767676"/>
<path d="M277.704 57.5371H317.136V103.004H277.704V57.5371Z" fill="#202020"/>
<path d="M278.064 83.3714C281.268 81.2483 285.325 80.7423 288.955 82.0429C292.376 83.2684 294.433 86.9032 297.992 87.7118C306.45 89.6328 308.83 77.5601 316.214 76.4477C317.167 76.304 316.763 74.8572 315.815 74.9996C312.008 75.573 309.531 78.5645 307.191 81.3385C304.43 84.6097 300.402 88.2216 296.1 85.1627C294.583 84.0846 293.337 82.676 291.734 81.7098C290.286 80.8363 288.659 80.2668 286.991 80.0062C283.613 79.4798 280.158 80.1841 277.306 82.0746C276.503 82.6061 277.255 83.9079 278.064 83.3714Z" fill="#767676"/>
<path d="M299.085 65.593C297.737 66.2058 296.868 67.6742 296.848 69.1363C296.825 70.7038 297.854 72.0426 299.273 72.6274C300.648 73.1944 302.226 72.8893 303.266 71.815C304.336 70.7089 304.706 69.0422 304.035 67.6335C303.308 66.1028 301.494 65.2536 299.854 65.6172C299.459 65.7049 299.226 66.1638 299.33 66.5414C299.442 66.9483 299.857 67.1529 300.254 67.0652C300.254 67.0652 300.508 67.0195 300.366 67.0385C300.417 67.0309 300.47 67.0284 300.521 67.0258C300.652 67.0195 300.783 67.0233 300.913 67.0347C300.791 67.0245 300.955 67.0423 300.984 67.0474C301.049 67.0601 301.113 67.0741 301.176 67.0907C301.227 67.1046 301.277 67.1199 301.328 67.1351C301.356 67.144 301.603 67.2432 301.515 67.2025C301.623 67.2521 301.727 67.3093 301.828 67.3716C301.885 67.4059 301.94 67.4415 301.995 67.4784C302.118 67.5649 302.058 67.5255 302.031 67.5038C302.255 67.6806 302.439 67.884 302.547 68.0492C302.711 68.3022 302.749 68.3747 302.823 68.6557C302.837 68.7065 302.847 68.7587 302.858 68.8095C302.911 69.0333 302.864 68.6938 302.875 68.9227C302.88 69.0536 302.879 69.1833 302.876 69.3142C302.872 69.5456 302.908 69.1985 302.865 69.4248C302.855 69.477 302.844 69.5278 302.833 69.5787C302.804 69.7071 302.766 69.8329 302.72 69.9563C302.635 70.1902 302.75 69.8991 302.689 70.0313C302.66 70.091 302.631 70.1495 302.599 70.2067C302.573 70.2538 302.547 70.2995 302.52 70.344C302.505 70.3695 302.358 70.5856 302.411 70.5157C302.271 70.7013 302.096 70.8767 301.912 71.0191C302.011 70.9428 301.801 71.089 301.809 71.0852C301.764 71.1132 301.72 71.1399 301.674 71.1666C301.498 71.2658 301.507 71.2619 301.351 71.3128C300.895 71.4603 300.508 71.4526 300.044 71.3153C299.767 71.2327 299.686 71.192 299.432 71.0356C299.305 70.9581 299.251 70.92 299.199 70.8767C299.077 70.7763 298.964 70.6657 298.858 70.5487C298.745 70.4203 298.647 70.2754 298.535 70.0516C298.427 69.8355 298.568 70.1699 298.487 69.941C298.47 69.8914 298.452 69.8406 298.438 69.7897C298.415 69.7147 298.4 69.6372 298.381 69.5609C298.343 69.4147 298.375 69.6117 298.362 69.449C298.349 69.2926 298.345 69.1363 298.357 68.9786C298.359 68.9265 298.364 68.8744 298.371 68.8222C298.354 68.9506 298.39 68.7358 298.395 68.7116C298.471 68.3607 298.53 68.2094 298.688 67.9348C298.843 67.6615 298.923 67.5585 299.15 67.3411C299.297 67.1987 299.291 67.2051 299.427 67.1161C299.559 67.0284 299.699 66.9559 299.843 66.8898C300.213 66.722 300.302 66.1867 300.113 65.8625C299.891 65.4837 299.455 65.4239 299.085 65.593Z" fill="#767676"/>
<path d="M451.279 178.538H376.331C374.822 178.538 371.125 177.828 369.765 178.538C368.798 179.043 369.561 179.904 370.043 178.841C370.522 177.78 370.043 175.357 370.043 174.209V75.7676C370.043 72.054 370.894 67.228 370.043 63.5957C369.874 62.8749 368.711 63.5512 369.765 64.103C371.125 64.8137 374.822 64.103 376.331 64.103H448.187C448.711 64.103 450.005 64.3471 450.474 64.103C452.012 63.2995 450.22 66.1664 450.197 63.0376C450.204 63.9021 450.197 64.7666 450.197 65.6299V179.619C450.197 181.011 452.36 181.014 452.36 179.619V63.0211C452.36 62.4375 451.866 61.9404 451.279 61.9404H368.96C368.375 61.9404 367.878 62.435 367.878 63.0211V179.619C367.878 180.204 368.373 180.701 368.96 180.701H451.279C452.671 180.701 452.673 178.538 451.279 178.538Z" fill="#767676"/>
<path d="M376.648 71.7061H443.59V171.518H376.648V71.7061Z" fill="#767676"/>
<path d="M368.502 64.0706C371.487 66.9751 374.469 69.8798 377.454 72.7843C378.147 73.4582 379.21 72.3979 378.516 71.7221C375.532 68.8177 372.549 65.9129 369.565 63.0084C368.871 62.3345 367.808 63.3948 368.502 64.0706Z" fill="#767676"/>
<path d="M442.459 74.0454C443.086 73.9654 443.52 73.3462 443.918 72.905C444.627 72.1194 445.314 71.3146 446 70.5098C447.585 68.6486 449.15 66.7695 450.709 64.8867C451.077 64.4417 451.444 63.998 451.81 63.553C452.419 62.8118 451.362 61.7439 450.747 62.4914C448.29 65.4791 445.833 68.4744 443.272 71.3743C442.991 71.6935 442.71 72.01 442.417 72.3177C442.323 72.4181 442.224 72.5135 442.127 72.6126C442.096 72.6431 442.06 72.6686 442.029 72.7004C442.118 72.6101 442.183 72.5783 442.459 72.544C442.053 72.5948 441.712 72.8517 441.707 73.2941C441.703 73.6602 442.057 74.0963 442.459 74.0454Z" fill="#767676"/>
<path d="M369.956 180.18C372.814 176.237 376.135 172.643 379.82 169.457C380.551 168.824 379.486 167.766 378.757 168.395C374.973 171.668 371.594 175.372 368.658 179.422C368.089 180.205 369.393 180.955 369.956 180.18Z" fill="#767676"/>
<path d="M442.347 169.63C445.147 173.007 447.948 176.383 450.747 179.759C451.365 180.504 452.424 179.437 451.81 178.698C449.01 175.32 446.209 171.944 443.409 168.567C442.792 167.823 441.733 168.89 442.347 169.63Z" fill="#767676"/>
<path d="M390.567 89.3667H429.999V134.834H390.567V89.3667Z" fill="#202020"/>
<path d="M390.927 115.203C394.131 113.08 398.189 112.574 401.819 113.874C405.239 115.1 407.296 118.735 410.855 119.543C419.314 121.464 421.693 109.392 429.078 108.279C430.031 108.136 429.626 106.689 428.678 106.831C424.871 107.405 422.394 110.396 420.054 113.17C417.293 116.441 413.265 120.053 408.963 116.994C407.446 115.916 406.201 114.508 404.597 113.541C403.149 112.668 401.522 112.098 399.854 111.838C396.476 111.311 393.022 112.016 390.169 113.906C389.366 114.438 390.118 115.739 390.927 115.203Z" fill="#767676"/>
<path d="M411.948 97.4245C410.6 98.0373 409.731 99.5057 409.711 100.968C409.688 102.535 410.718 103.874 412.136 104.459C413.512 105.026 415.089 104.721 416.129 103.647C417.199 102.54 417.569 100.874 416.899 99.4651C416.171 97.9344 414.358 97.0851 412.718 97.4487C412.322 97.5364 412.089 97.9954 412.193 98.3717C412.305 98.7798 412.72 98.9845 413.117 98.8968C413.117 98.8968 413.372 98.851 413.229 98.8701C413.28 98.8624 413.333 98.8599 413.386 98.8574C413.515 98.851 413.646 98.8548 413.776 98.8663C413.654 98.8561 413.818 98.8739 413.848 98.879C413.912 98.8917 413.976 98.9057 414.04 98.9222C414.091 98.9362 414.14 98.9514 414.191 98.9667C414.219 98.9756 414.466 99.0748 414.378 99.0341C414.486 99.0837 414.591 99.1409 414.691 99.2032C414.748 99.2375 414.803 99.2731 414.858 99.31C414.981 99.3964 414.921 99.357 414.895 99.3354C415.119 99.5121 415.302 99.7155 415.41 99.8808C415.574 100.134 415.612 100.206 415.686 100.487C415.7 100.538 415.71 100.59 415.722 100.641C415.774 100.865 415.727 100.525 415.738 100.754C415.743 100.885 415.742 101.015 415.739 101.146C415.736 101.377 415.771 101.03 415.728 101.256C415.718 101.309 415.708 101.359 415.696 101.41C415.667 101.539 415.629 101.664 415.583 101.788C415.498 102.022 415.614 101.731 415.552 101.863C415.524 101.923 415.494 101.981 415.462 102.038C415.437 102.085 415.411 102.131 415.383 102.176C415.368 102.201 415.222 102.417 415.274 102.347C415.134 102.533 414.96 102.708 414.775 102.851C414.874 102.774 414.664 102.921 414.672 102.917C414.627 102.945 414.583 102.971 414.537 102.998C414.362 103.097 414.37 103.093 414.214 103.144C413.758 103.292 413.372 103.284 412.907 103.147C412.63 103.064 412.55 103.024 412.295 102.867C412.168 102.79 412.115 102.751 412.062 102.708C411.94 102.608 411.827 102.497 411.721 102.38C411.608 102.252 411.51 102.107 411.398 101.883C411.29 101.667 411.431 102 411.35 101.773C411.333 101.723 411.316 101.672 411.302 101.621C411.279 101.546 411.263 101.469 411.244 101.392C411.206 101.246 411.238 101.443 411.225 101.281C411.212 101.124 411.21 100.968 411.22 100.81C411.223 100.758 411.228 100.706 411.234 100.654C411.218 100.782 411.253 100.567 411.258 100.543C411.335 100.192 411.393 100.041 411.551 99.7664C411.706 99.493 411.786 99.3901 412.013 99.1727C412.16 99.0303 412.154 99.0353 412.29 98.9476C412.422 98.8599 412.562 98.7862 412.706 98.7213C413.076 98.5535 413.166 98.0183 412.976 97.6941C412.755 97.3152 412.318 97.2555 411.948 97.4245Z" fill="#767676"/>
<path d="M276.008 306.031H494.491V320.71H276.008V306.031Z" fill="#767676"/>
<path d="M458.846 355.083L286.488 355.634L286.487 317.673L492.272 317.673C483.354 334.812 472.728 348.369 458.846 355.083Z" fill="#767676"/>
<path d="M277.862 322.051C312.695 322.904 347.675 322.376 382.528 322.439C417.417 322.503 452.306 322.57 487.194 322.621C488.569 322.623 488.571 321.111 487.194 321.112C452.306 321.164 417.417 321.231 382.528 321.295C347.675 321.358 312.695 320.83 277.862 321.683C277.526 321.69 277.525 322.042 277.862 322.051Z" fill="#202020"/>
<path d="M310.272 386.772L291.7 389.591L290.321 353.019L309.708 353.019L310.272 386.772Z" fill="#767676"/>
<path d="M305.351 206.655L313.243 286.156C313.478 288.515 315.465 290.314 317.839 290.314H444.742C447.55 290.314 449.708 287.831 449.315 285.054L438.124 206.038C437.802 203.769 435.863 202.079 433.569 202.07L309.965 201.585C307.227 201.574 305.081 203.933 305.351 206.655Z" fill="#767676"/>
<path d="M315.51 269.585H443.193C443.193 269.585 433.983 204.643 434.238 204.899C434.494 205.154 309.368 205.664 309.368 204.897C309.368 204.132 315.51 269.585 315.51 269.585Z" fill="#202020"/>
<path d="M383.062 276.487C383.062 277.334 382.374 278.023 381.527 278.023C380.678 278.023 379.993 277.334 379.993 276.487C379.993 275.642 380.678 274.954 381.527 274.954C382.374 274.954 383.062 275.642 383.062 276.487Z" fill="#202020"/>
<path d="M348.196 280.452V307.294H401.596L387.575 280.452H348.196Z" fill="#767676"/>
<path d="M330.33 291.62H400.441C401.465 291.62 401.466 290.031 400.441 290.031H330.33C329.307 290.031 329.304 291.62 330.33 291.62Z" fill="#202020"/>
<path d="M343.758 306.323V321.662C343.758 322.684 345.349 322.685 345.349 321.662V306.323C345.349 305.301 343.758 305.299 343.758 306.323Z" fill="#202020"/>
<path d="M335.469 323.501V355.714C335.469 356.736 337.06 356.737 337.06 355.714V323.501C337.06 322.479 335.469 322.477 335.469 323.501Z" fill="#202020"/>
<path d="M286.487 356.201H456.748C457.771 356.201 457.772 354.611 456.748 354.611H286.487C285.464 354.611 285.461 356.201 286.487 356.201Z" fill="#202020"/>
<path d="M346.477 305.937H490.902C491.924 305.937 491.926 304.348 490.902 304.348H346.477C345.454 304.348 345.452 305.937 346.477 305.937Z" fill="#202020"/>
<path d="M360.981 77.167C360.556 70.0055 355.972 63.6107 350.246 59.2817C343.37 54.0819 334.664 51.3549 326.048 51.7007C317.085 52.0592 308.122 55.8847 302.376 62.769C296.63 69.6521 294.511 79.6538 297.836 87.9786C300.855 95.5304 307.954 101.02 315.777 103.263C323.267 105.41 331.331 104.833 338.855 102.754C339.413 102.599 340.374 102.444 340.781 102.857C343.667 107.134 350.231 109.478 355.395 109.777C352.93 105.771 350.413 101.63 348.766 96.8373C355.691 95.327 361.401 84.2421 360.981 77.167Z" fill="#B695F6"/>
<path d="M311.456 88.9603C315.927 87.4385 320.781 85.6675 323.264 81.3424C325.277 77.836 324.85 73.1015 321.18 70.8436C317.707 68.7077 313.597 70.9695 312.453 74.6259C311.047 79.1226 314.508 83.4376 318.334 85.3255C322.71 87.4855 328.546 88.3933 333.272 86.9732C337.189 85.7946 340.675 82.7243 341.197 78.5111C341.683 74.5928 339.375 70.6453 335.281 70.0986C331.194 69.5545 328.047 72.7023 328.32 76.7579C328.961 86.3579 341.352 90.402 348.928 86.2968C349.827 85.8086 349.026 84.4356 348.125 84.9238C342.78 87.8212 335.471 86.3337 331.782 81.4441C329.916 78.9713 328.633 74.3449 331.825 72.312C334.873 70.3694 338.682 72.5307 339.483 75.7815C340.368 79.3667 338.248 82.6964 335.197 84.4381C331.74 86.4125 327.524 86.279 323.748 85.4654C320.178 84.6962 316.387 83.1947 314.586 79.7913C312.97 76.7414 314.067 71.4043 318.382 71.5695C320.376 71.6471 322.018 73.3189 322.641 75.1166C323.299 77.0134 322.785 79.0781 321.771 80.7487C319.464 84.55 315.02 86.0718 311.033 87.4283C310.069 87.7563 310.484 89.2908 311.456 88.9603Z" fill="#767676"/>
<path d="M189.544 80.9532C189.544 80.9532 188.871 88.6474 188.502 93.434C188.393 94.8414 190.035 95.6805 191.116 94.7714C193.623 92.6623 197.08 89.7064 198.426 88.3397C198.833 87.9265 199.43 87.779 199.988 87.9329C207.512 90.0115 215.575 90.5887 223.065 88.4414C230.889 86.1987 237.989 80.7091 241.005 73.1573C244.333 64.8325 242.213 54.8308 236.467 47.9477C230.721 41.0634 221.757 37.2392 212.793 36.8794C204.18 36.5336 195.473 39.2619 188.597 44.4604C182.871 48.7894 178.287 55.1842 177.861 62.3457C177.436 69.5085 182.486 79.6361 189.544 80.9532Z" fill="#B695F6"/>
<path d="M188.624 68.2504C192.713 65.8183 200.871 65.1903 200.747 58.8094C200.651 53.9338 194.637 53.096 192.291 56.9634C189.322 61.8555 194.77 67.1977 199.2 68.3865C204.339 69.7646 209.937 67.2677 212.296 62.4772C213.209 60.6211 213.636 58.2233 212.613 56.3112C211.6 54.4207 209.378 53.8041 207.471 54.7106C201.805 57.4007 205.711 64.5699 209.327 67.0999C213.785 70.2185 219.85 69.9858 224.115 66.6422C227.87 63.6977 230.123 57.1363 225.081 54.1766C222.854 52.8709 220.153 53.5625 218.693 55.6488C216.967 58.1191 217.515 61.2898 219.145 63.6558C222.477 68.4907 229.151 70.2299 234.544 68.1614C235.49 67.7991 235.079 66.262 234.121 66.6295C230.704 67.9402 226.864 67.6567 223.708 65.7688C220.648 63.938 216.7 58.2983 221.033 55.5433C222.753 54.4487 224.857 55.4785 225.83 57.0778C227.016 59.0255 226.375 61.4462 225.181 63.2222C222.976 66.5023 218.711 68.2275 214.834 67.6414C211.01 67.0643 206.634 63.9774 206.239 59.8455C206.061 57.9754 207.312 55.7188 209.447 55.8624C211.783 56.0188 211.831 59.0179 211.333 60.6503C210.223 64.2825 206.541 66.9282 202.817 67.1787C198.859 67.4457 194.209 65.039 193.269 60.9402C192.782 58.8145 193.843 56.4345 196.162 56.0544C198.598 55.6552 199.568 58.2182 198.958 60.1939C197.628 64.4936 191.163 64.8903 187.821 66.8786C186.942 67.4012 187.741 68.7755 188.624 68.2504Z" fill="#767676"/>
<path d="M355.127 259.145L444.467 269.206C444.674 270.643 452.581 289.778 455.933 317.821C464.505 389.528 470.869 531.513 466.55 542.183C462.555 552.054 427.864 547.884 424.563 544.796L402.095 335.844C402.095 335.844 394.294 538.803 386.295 545.274C379.132 551.069 361.93 549.726 352.698 541.409C343.467 533.093 345.107 297.146 355.127 259.145Z" fill="#B695F6"/>
<path d="M367.895 534.445C368.538 498.108 367.412 461.721 366.833 425.39C366.255 389.134 367.111 352.523 364.874 316.334C364.818 315.413 363.458 315.399 363.432 316.334C362.388 352.575 364.453 389.136 365.073 425.39C365.693 461.729 365.769 498.141 367.609 534.445C367.618 534.628 367.891 534.63 367.895 534.445Z" fill="#190245"/>
<path d="M431.733 317.956C432.948 353.629 436.027 389.301 438.521 424.903C441.019 460.552 443.538 496.199 446.005 531.85C446.095 533.158 448.15 533.167 448.056 531.85C445.51 496.203 443.015 460.552 440.498 424.903C437.984 389.268 436.032 353.483 432.246 317.956C432.211 317.636 431.722 317.62 431.733 317.956Z" fill="#190245"/>
<path d="M352.652 273.514C353.33 275.633 349.367 279.484 350.669 287.504C351.97 295.525 359.996 311.183 366.494 307.746C372.992 304.309 386.37 285.594 386.37 285.594C386.37 285.594 390.955 316.147 405.862 314.238C420.769 312.328 444.084 291.209 447.524 281.337C450.963 271.465 441.026 261.918 441.026 261.918L352.652 273.514Z" fill="#7535F6"/>
<path d="M371.461 288.756C373.502 289.121 373.313 286.981 371.657 286.497C370.445 286.728 370.054 288.691 371.461 288.756ZM362.589 291.254C362.185 290.29 361.375 290.246 360.639 290.088C360.37 290.419 360.191 290.687 360.073 290.92C360.564 291.338 361.102 291.748 361.681 292.15C362.04 291.967 362.374 291.72 362.589 291.254ZM415.023 288.969C416.843 288.167 417.438 288.748 416.835 286.447C416.626 286.339 416.404 286.223 416.065 286.046C415.724 286.28 415.409 286.497 415.139 286.705C415.629 287.666 413.686 288.227 415.023 288.969ZM374.091 291.314C373.562 293.306 376.968 292.463 377.014 290.784C374.72 289.08 375.57 289.666 374.091 291.314ZM374.575 282.855C374.525 283.422 374.479 283.954 374.431 284.509C378.356 286.514 377.71 281.313 374.575 282.855ZM362.643 283.92C362.33 283.486 362.043 283.087 361.78 282.722C360.678 282.649 359.682 283.046 359.382 284.09C359.945 284.856 360.72 285.074 361.459 285.387C361.868 284.878 362.241 284.417 362.643 283.92ZM424.772 287.352C424.407 286.603 423.605 286.653 422.905 286.305C419.588 287.369 423.916 290.907 424.772 287.352ZM381.754 297.426C382.306 297.435 382.862 297.44 383.422 297.436C382.868 296.922 382.201 296.834 381.754 297.426ZM391.641 290.735C391.038 290.422 390.612 290.168 390.094 289.801C388.961 289.986 389.15 291.058 388.651 291.726C389.281 292.199 389.828 292.609 390.398 293.036C391.514 292.505 391.253 291.516 391.641 290.735ZM377.615 294.586C377.838 295.865 378.49 296.254 379.507 296.248C382.144 294.946 379.227 291.99 377.615 294.586ZM386.949 293.327C386.082 293.653 385.319 294.06 384.948 294.96C385.496 295.81 386.338 296.033 387.091 296.369C388.361 295.754 388.306 293.91 386.949 293.327ZM403.671 277.631C404.708 278.643 406.006 278.197 406.521 276.478C406.311 276.239 406.077 276.063 405.839 275.914L403.754 276.061C403.535 276.407 403.459 276.913 403.671 277.631ZM362.85 280.622C363.962 281.323 365.45 282.095 365.934 280.271C365.905 279.396 365.479 278.936 364.952 278.799L364.021 278.865C363.379 279.107 362.828 279.736 362.85 280.622ZM445.761 273.983L445.295 273.131L443.497 273.257C444.109 273.984 445.067 274.219 445.761 273.983ZM436.174 280.465C436.466 280.887 436.745 281.287 437.001 281.654C438.611 281.77 438.628 281.754 439.216 279.825C438.338 278.064 436.663 278.91 436.174 280.465ZM357.207 281.749C358.161 281.528 358.594 280.042 358.219 279.274L355.792 279.444C355.291 280.263 356.007 281.92 357.207 281.749ZM417.782 276.791C418.662 278.594 421.55 277.984 421.053 275.925C418.942 275.059 418.38 275.213 417.782 276.791ZM376.388 277.991L375.663 278.043C375.926 278.101 376.177 278.087 376.388 277.991ZM380.54 281.086C381.406 279.181 378.856 278.134 377.942 279.658C377.48 281.407 379.339 282.469 380.54 281.086ZM412.265 289.516C411.16 290.092 411.16 290.092 410.509 291.497C412.729 294.294 415.103 291.286 412.265 289.516ZM401.274 278.593C399.541 278.902 399.075 280.425 400.317 281.662C401.168 281.311 402.195 281.337 402.833 280.458C402.082 279.813 402.073 278.952 401.274 278.593ZM387.932 280.912C388.005 279.912 388.022 279.025 387.19 278.512C385.279 278.865 384.247 279.755 385.865 281.312C386.983 281.457 386.983 281.457 387.932 280.912ZM367.606 285.282C368.01 285.198 368.445 285.109 368.851 285.026C369.655 283.916 369.655 283.916 369.497 282.764C369.044 282.55 368.554 282.32 368.035 282.074C366.704 282.55 366.403 284.532 367.606 285.282ZM411.071 277.466C412.51 278.504 414.094 277.174 413.559 275.496C413.512 275.451 413.464 275.419 413.417 275.38L410.983 275.552C410.654 276.038 410.6 276.74 411.071 277.466ZM391.481 276.927L388.894 277.109C389.815 278.707 391.183 277.957 391.481 276.927ZM372.501 281.751C372.88 281.117 373.187 280.609 373.544 280.01C371.066 276.017 368.653 281.599 372.501 281.751ZM444.006 279.134C443.644 279.808 443.747 280.347 443.996 280.951C444.982 280.412 445.833 279.935 446.503 279.552C446.13 278.848 444.37 278.342 444.006 279.134ZM358.894 287.113C358.174 286.579 357.179 285.896 356.25 286.091C356.213 286.1 356.188 286.124 356.154 286.137C356.641 287.039 357.262 287.975 358.055 288.907C358.421 288.725 358.569 288.252 358.894 287.113ZM403.166 283.443C403.55 284.062 403.694 284.815 404.237 285.309C405.809 285.439 405.809 285.439 406.461 284.048C406.081 283.415 405.701 282.78 405.26 282.046C404.376 282.391 403.751 282.775 403.166 283.443ZM402.891 294.844C401.7 292.246 399.072 293.467 399.836 295.892C400.752 295.74 401.663 295.58 402.568 295.414C402.693 295.257 402.807 295.079 402.891 294.844ZM410.197 287.45C409.945 286.973 409.77 286.377 409.119 286.13C408.647 286.233 408.165 286.34 407.708 286.441C407.361 286.897 407.039 287.322 406.73 287.73C407.028 288.187 407.272 288.56 407.542 288.972C408.734 289.307 409.976 288.714 410.197 287.45ZM369.912 291.68C369.492 291.03 369.094 290.415 368.643 289.721C364.386 289.868 367.585 294.847 369.912 291.68ZM412.282 285.61C412.788 285.23 413.304 284.837 413.961 284.339C413.676 283.757 413.434 283.267 413.162 282.713C410.522 281.636 409.705 284.9 412.282 285.61ZM427.443 278.085C427.818 277.462 428.394 277.071 428.441 276.3C427.169 275.089 426.68 273.853 425.306 275.868C425.39 277.292 426.006 277.949 427.443 278.085ZM415.697 278.476C413.311 279.86 414.141 282.581 416.935 281.292C417.408 280.161 417.231 278.739 415.697 278.476ZM438.782 273.59L436.424 273.756C437.081 274.522 437.989 274.473 438.782 273.59ZM418.279 284.932C419.572 286.073 420.01 285.895 421.136 284.373C420.658 281.369 417.687 281.999 418.279 284.932ZM426.476 285.542C428.238 284.677 429.004 283.136 427.029 282.032C425.118 282.554 424.456 284.826 426.476 285.542ZM432.134 276.932C432.935 277.353 433.588 277.698 434.208 278.022C437.983 276.208 432.984 272.981 432.134 276.932ZM396.593 278.036C398.849 278.351 399.2 277.334 398.785 276.412L395.677 276.631C395.674 276.644 395.669 276.65 395.667 276.663C395.981 277.131 396.261 277.545 396.593 278.036ZM398.326 292.618C398.4 291.898 398.657 291.286 399.148 290.814C398.865 289.428 397.178 288.941 396.275 289.96C396.04 290.884 396.655 291.686 396.58 292.582C397.21 292.786 397.736 292.773 398.326 292.618ZM394.349 278.498C393.963 279.402 393.361 279.28 392.826 279.093C392.165 279.739 392.184 280.481 392.156 281.212C394.182 282.873 396.846 280.239 394.349 278.498ZM382.568 289.418C380.868 289.713 380.787 292.385 382.537 292.697C384.885 292.331 384.571 289.618 382.568 289.418ZM380.868 287.42C380.288 285.811 377.798 285.031 377.655 287.245C377.492 289.269 381.036 289.301 380.868 287.42ZM366.266 286.56C365.521 286.297 364.864 286.066 364.129 285.806C360.854 288.363 366.425 290.889 366.266 286.56ZM430.746 285.814C429.361 286.25 429.361 286.25 428.897 287.562C428.994 287.703 429.107 287.867 429.211 288.018C430.143 287.645 431.064 287.257 431.973 286.863C431.742 286.429 431.312 286.049 430.746 285.814ZM418.317 290.394C418.201 290.795 418.077 291.217 417.96 291.616C417.994 291.67 418.027 291.712 418.062 291.761C419.128 291.456 420.147 291.153 421.115 290.855C421.004 289.911 420.197 289.249 418.317 290.394ZM447.973 278.031L447.251 276.708C447.246 277.2 447.475 277.696 447.973 278.031ZM385.663 286.158C385.394 286.765 384.754 287.196 384.682 288.042C385.807 289.726 387.968 289.099 388.273 287.137C387.487 286.536 386.852 285.746 385.663 286.158ZM373.308 294.947C373.543 292.364 369.375 293.307 370.393 295.379C370.556 295.73 370.797 295.987 371.064 296.177C371.475 296.278 371.89 296.376 372.313 296.465C372.881 296.339 373.339 295.856 373.308 294.947ZM383.747 277.947C383.829 277.794 383.92 277.623 384.009 277.455L381.83 277.607C382.266 278.07 382.938 278.301 383.747 277.947ZM398.265 285.406C400.446 284.249 398.101 281.325 396.208 282.633C396.528 283.319 396.433 283.715 395.976 284.254C395.873 285.458 397.428 285.472 398.265 285.406ZM424.269 279.012C420.368 278.403 420.11 282.431 424.325 281.266C424.932 280.519 425.154 279.818 424.269 279.012ZM433.76 285.565C434.679 286.085 435.149 284.886 435.656 284.312C436.417 283.284 435.026 282.759 434.41 281.985C432.966 283.225 431.568 284.396 433.76 285.565ZM363.948 293.53C364.617 293.887 365.34 294.225 366.107 294.549C365.774 293.6 364.756 293.272 363.948 293.53ZM390.85 285.666C391.514 284.619 392.051 283.647 391.144 282.465C389.11 282.282 389.11 282.282 388.678 284.035C388.333 285.09 390.049 285.56 390.85 285.666ZM389.199 297.196H389.198C389.659 297.162 390.122 297.121 390.584 297.08C390.183 296.997 389.886 297.053 389.199 297.196ZM393.91 289.335C394.379 288.949 394.804 288.599 395.216 288.261C395.316 287.801 395.411 287.364 395.519 286.865C393.069 284.451 390.448 288.695 393.91 289.335ZM439.637 276.978C440.231 277.92 441.356 277.483 442.124 278.187C445.258 275.368 440.109 273.44 439.637 276.978ZM431.632 280.524C431.26 277.664 428.378 278.16 428.78 280.966C429.453 282.361 431.635 282.549 431.632 280.524ZM382.951 282.091C381.748 282.583 381.748 282.583 381.262 283.839C381.453 284.329 381.712 284.825 381.981 285.304C384.49 285.931 385.592 282.568 382.951 282.091ZM404.923 292.963C405.671 292.53 406.045 291.746 406.638 290.848C405.522 288.885 404.245 289.338 403.137 290.997C403.157 292.137 403.642 292.881 404.923 292.963ZM399.302 287.542C399.4 289.908 403.203 289.25 402.557 287.252C401.422 285.426 400.079 285.282 399.302 287.542ZM406.89 294.376C406.902 294.437 406.922 294.484 406.935 294.544C407.778 294.362 408.609 294.177 409.431 293.987C408.549 293.015 407.442 292.496 406.89 294.376ZM409.726 281.582C412.412 277.274 403.404 279.059 407.986 282.014C408.59 281.864 409.159 281.723 409.726 281.582ZM393.005 296.395C391.127 296.37 392.147 294.275 392.974 293.481C394.537 291.796 397.552 296.441 393.005 296.395Z" fill="#190245"/>
<path d="M376.747 70.6381C376.092 67.9734 376.982 64.9857 378.991 63.113C380.999 61.2416 384.044 60.5602 386.658 61.398C387.885 57.0792 392.354 53.9212 396.839 54.2047C401.322 54.4882 405.357 58.1827 406.03 62.6223C408.085 61.3458 410.819 61.2467 412.962 62.3693C414.466 63.1575 415.626 64.5318 416.234 66.1134C419.867 65.4904 423.805 66.7236 426.359 69.396C429.244 72.418 430.22 77.122 428.772 81.0403C432.321 81.8044 435.1 85.2383 435.104 88.8654C435.109 92.4913 432.337 95.9316 428.793 96.7046C431.349 98.815 432.429 102.544 431.397 105.693C430.365 108.842 427.286 111.211 423.975 111.401C423.194 114.81 420.932 117.851 417.891 119.581C414.851 121.311 411.079 121.704 407.747 120.636L374.41 86.6838C366.955 78.4849 372.656 72.0582 376.747 70.6381Z" fill="#190245"/>
<path d="M387.426 130.496C387.665 130.553 387.785 130.582 387.785 130.582L387.759 131.247L387.599 132.031L387.483 132.6L384.339 147.964L394.709 164.081L410.321 152.021C410.321 152.021 415.832 123.729 415.986 123.305L416.013 123.266C416.545 121.81 417.872 118.252 419.294 113.777C419.408 113.405 419.534 113.034 419.647 112.664C420.156 111.008 420.665 109.272 421.162 107.483C421.361 106.794 421.545 106.105 421.718 105.403C421.746 105.323 421.76 105.231 421.788 105.15C422.231 103.428 422.648 101.691 423.011 99.9799C423.04 99.8337 423.068 99.6875 423.085 99.5552C423.185 99.1433 423.259 98.7327 423.332 98.3335C423.727 96.2637 424.015 94.2575 424.168 92.3836C424.416 89.565 424.184 86.0065 423.082 83.4307C420.597 77.6359 416.298 73.4875 411.197 71.0694C401.245 66.3311 388.301 68.186 380.11 77.2189C379.77 77.5991 379.43 77.9792 379.117 78.386C376.501 81.6699 374.403 85.948 372.722 91.4173C372.001 93.8291 371.356 96.4671 370.787 99.3467C370.598 100.316 370.435 101.245 370.339 102.148C367.521 123.362 383.448 129.323 387.054 130.397C387.201 130.439 387.333 130.468 387.426 130.496Z" fill="#A84C4C"/>
<path d="M383.991 86.157C383.761 87.1139 384.275 88.0582 385.137 88.265C386 88.4721 386.888 87.864 387.118 86.9072C387.348 85.9503 386.834 85.006 385.971 84.7989C385.108 84.5921 384.22 85.2002 383.991 86.157Z" fill="#190245"/>
<path d="M400.638 90.575C400.408 91.5318 400.922 92.4761 401.784 92.683C402.648 92.8901 403.536 92.282 403.766 91.3251C403.996 90.3683 403.482 89.424 402.618 89.2169C401.756 89.01 400.868 89.6182 400.638 90.575Z" fill="#190245"/>
<path d="M412.984 84.8015C411.654 83.4933 409.667 82.508 407.918 81.9232C406.149 81.332 404.45 81.4756 402.651 81.2404C401.669 81.112 401.426 79.7924 402.442 79.4707C406.699 78.1256 411.125 81.0536 413.711 84.0997C414.13 84.593 413.452 85.263 412.984 84.8015Z" fill="#190245"/>
<path d="M385.54 76.7949C389.224 74.2598 394.165 76.074 395.378 80.3C397.097 86.2893 392.571 94.0915 388.308 97.9882C387.557 98.676 386.152 97.6907 386.847 96.8211C389.421 93.6033 392.028 90.3817 393.209 86.3427C394.022 83.5635 394.388 80.586 391.992 78.5964C390.359 77.2398 387.917 76.9805 385.826 77.5068C385.38 77.62 385.192 77.0351 385.54 76.7949Z" fill="#190245"/>
<path d="M387.533 132.017C387.559 132.017 387.572 132.031 387.599 132.031C389.166 132.298 390.777 132.433 392.376 132.38C395.523 132.274 398.615 131.462 401.166 129.615C401.516 129.369 401.854 129.108 402.179 128.821C402.246 128.756 402.155 128.673 402.087 128.699C397.537 130.592 392.627 131 387.773 130.45C387.64 130.434 387.533 130.445 387.426 130.498C386.835 130.753 386.776 131.883 387.533 132.017Z" fill="#190245"/>
<path d="M421.461 99.9695C424.308 98.8342 427.892 99.9542 428.972 101.247C430.053 102.54 430.504 104.27 430.515 105.955C430.533 108.756 429.294 111.637 426.969 113.203C424.646 114.768 419.658 114.712 417.614 112.796L421.461 99.9695Z" fill="#A84C4C"/>
<path d="M425.913 107.835C425.521 107.409 424.495 106.99 423.952 106.856C423.059 106.637 422.415 106.945 421.662 107.384C420.848 107.858 420.045 106.737 420.693 106.083C421.552 105.218 422.97 104.916 424.137 105.232C424.698 105.383 425.281 105.698 425.669 106.138C426.109 106.638 426.051 107.088 426.177 107.688C426.207 107.834 426.023 107.955 425.913 107.835Z" fill="#190245"/>
<path d="M410.915 68.9343C415.857 68.0291 423.038 72.1648 426.43 75.8682L424.754 91.2719C424.722 93.3226 424.422 95.5423 423.767 97.9414C423.767 97.9414 421.524 105.216 418.769 104.43C416.687 103.835 418.008 89.9179 418.008 89.9179C416.302 88.0643 410.832 92.4669 411.209 70.6176C411.209 70.6176 411.427 70.7142 411.793 70.9011L410.915 68.9343Z" fill="#190245"/>
<path d="M412.435 70.7042C412.425 70.6788 412.424 70.6508 412.412 70.6254C412.43 70.5949 412.452 70.5657 412.469 70.5352L412.435 70.7042Z" fill="#190245"/>
<path d="M411.831 73.707L412.435 70.7041C412.841 71.7288 412.69 73.0218 411.831 73.707Z" fill="#190245"/>
<path d="M380.569 69.9502C380.933 68.1869 381.929 66.5062 383.469 65.5704C384.858 64.725 386.583 64.5445 388.187 64.8191C389.791 65.0924 391.294 65.7891 392.705 66.599C393.256 64.1758 395.688 62.3247 398.173 62.4391C400.657 62.5535 402.91 64.6182 403.236 67.0821C405.522 66.7375 407.916 67.1495 409.954 68.2403C410.964 68.7819 411.922 69.5269 412.396 70.5694C412.403 70.5872 412.405 70.6075 412.412 70.6253C411.463 72.3238 409.66 73.5176 407.722 73.7147C405.749 73.9143 403.7 73.0752 402.434 71.5496C401.794 74.2347 399.254 76.3489 396.494 76.49C393.735 76.6324 390.99 74.7915 390.077 72.1853C389.198 73.9906 388.084 75.6827 386.772 77.2033C386.139 77.9368 385.381 78.6729 384.419 78.7861C383.522 78.8929 382.631 78.4085 382.049 77.7194C381.467 77.0304 381.148 76.1595 380.906 75.2899C380.424 73.5558 380.205 71.7136 380.569 69.9502Z" fill="#190245"/>
<path d="M415.924 67.269C415.65 66.5278 416.808 65.5959 417.265 65.1433C418.079 64.336 418.928 63.5974 419.868 62.9401C420.489 62.5078 421.284 63.5173 420.686 63.9991C419.651 64.8331 418.61 65.657 417.588 66.5088C417.423 66.6461 416.135 67.8411 415.924 67.269Z" fill="#190245"/>
<path d="M415.028 67.5716C415.134 65.2205 415.588 62.8585 416.088 60.5607C416.298 59.5967 417.78 60.004 417.569 60.9692C417.078 63.2228 416.515 65.5141 415.654 67.6555C415.531 67.9622 415.011 67.96 415.028 67.5716Z" fill="#190245"/>
<path d="M378.191 72.0631C375.943 70.9634 373.243 71.0091 371.435 72.9072C369.619 74.8168 369.862 77.6672 371.407 79.6543C371.88 80.2633 371.112 81.11 370.531 80.529C368.233 78.2228 368.119 74.5918 370.361 72.1864C372.503 69.8878 376.061 69.7187 378.319 71.8965C378.41 71.9843 378.295 72.1139 378.191 72.0631Z" fill="#190245"/>
<path d="M392.132 103.022C394.725 102.145 397.349 101.415 400.042 101.127C400.46 101.082 400.927 101.066 401.249 101.335C401.565 101.6 401.635 102.052 401.652 102.464C401.74 104.783 400.696 107.138 398.86 108.559C397.026 109.982 394.433 110.399 392.275 109.541C391.248 109.132 390.562 108.249 389.881 107.378C389.22 106.53 388.876 105.315 388.981 104.378C389.02 104.019 390.735 103.261 392.132 103.022Z" fill="#190245"/>
<path d="M296.885 249.506C296.885 249.506 292.476 247.677 282.027 245.897C271.579 244.117 268.612 241.1 266.417 243.232C264.222 245.366 267.17 248.636 270.248 250.133C273.324 251.631 279.794 253.758 279.794 253.758C279.794 253.758 258.192 268.413 256.804 270.402C255.574 272.164 255.266 275.034 258.952 275.175C262.638 275.316 272.304 269.132 272.304 269.132C272.304 269.132 258.397 276.467 258.723 278.84C259.023 281.042 260.928 281.565 263.628 281.252C266.327 280.939 271.488 277.022 271.488 277.022C271.488 277.022 270.329 280.45 274.125 280.854C277.92 281.257 279.889 278.726 279.889 278.726C279.889 278.726 281.253 280.99 286.262 280.464C291.271 279.937 302.39 269.848 303.25 263.288C303.25 263.288 316.656 260.514 317.997 258.954C320.329 256.241 314.018 243.389 310.033 243.863C306.047 244.337 296.885 249.506 296.885 249.506Z" fill="#A84C4C"/>
<path d="M262.335 275.577C268.427 272.275 274.28 268.554 279.856 264.441C280.67 263.838 279.879 262.459 279.053 263.069C273.477 267.182 267.624 270.902 261.531 274.206C260.632 274.692 261.434 276.065 262.335 275.577Z" fill="#190245"/>
<path d="M272.295 277.543C273.011 275.002 273.779 272.269 275.879 270.499C276.512 269.965 277.759 269.155 278.61 269.662C279.04 269.919 279.101 270.509 279.125 270.963C279.165 271.666 279.151 272.375 279.146 273.08C279.133 274.84 279.055 276.6 278.919 278.356C278.841 279.375 280.432 279.37 280.51 278.356C280.648 276.57 280.726 274.781 280.737 272.989C280.745 271.571 280.985 269.594 279.775 268.556C278.632 267.573 276.98 267.917 275.79 268.625C274.514 269.384 273.504 270.541 272.761 271.812C271.801 273.455 271.273 275.305 270.762 277.121C270.483 278.107 272.018 278.527 272.295 277.543Z" fill="#190245"/>
<path d="M280.018 278.012C280.139 276.51 280.259 275.005 280.567 273.528C280.713 272.823 280.896 272.12 281.147 271.445C281.352 270.892 281.648 270.307 282.166 269.99C283.26 269.316 284.197 270.705 284.802 271.439C285.642 272.455 286.416 273.758 286.068 275.121C285.815 276.111 287.348 276.534 287.602 275.543C287.954 274.161 287.583 272.747 286.842 271.556C286.474 270.963 286.026 270.419 285.568 269.894C285.159 269.422 284.73 268.957 284.196 268.624C283.025 267.894 281.56 268.205 280.647 269.2C279.71 270.221 279.331 271.702 279.05 273.023C278.701 274.664 278.563 276.342 278.428 278.012C278.345 279.031 279.937 279.026 280.018 278.012Z" fill="#190245"/>
<path d="M295.817 256.621C291.987 260.568 289.308 265.551 288.159 270.93C287.947 271.928 289.48 272.355 289.693 271.353C290.787 266.23 293.29 261.507 296.942 257.744C297.655 257.009 296.531 255.884 295.817 256.621Z" fill="#190245"/>
<path d="M276.989 261.143C279.017 262.63 280.858 264.384 282.473 266.318C282.748 266.647 283.313 266.601 283.598 266.318C283.923 265.991 283.872 265.524 283.598 265.194C281.891 263.151 279.937 261.343 277.792 259.772C277.444 259.517 276.905 259.713 276.704 260.056C276.467 260.459 276.642 260.889 276.989 261.143Z" fill="#190245"/>
<path d="M446.257 155.703C446.257 155.703 454.16 156.666 463.964 171.548C470.839 181.986 501.979 239.721 498.192 253.229C492.72 272.755 484.685 275.033 477.234 275.041C453.096 275.07 446.64 239.69 446.64 239.69L446.257 155.703Z" fill="#B695F6"/>
<path d="M355.028 152.827C355.028 152.827 347.036 154.297 340.971 171.671C336.1 185.62 328.949 222.629 330.876 235.825C333.27 252.231 339.013 262.997 340.345 262.753C368.007 257.68 370.783 237.215 370.783 237.215L355.028 152.827Z" fill="#B695F6"/>
<path d="M448.248 271.844C448.877 266.744 451.376 163.906 451.203 157.941C447.678 154.597 438.404 151.585 436.854 151.158L414.466 145.348C414.466 145.348 399.335 160.952 395.351 162.399C391.366 163.846 382.75 144.298 382.75 144.298C377.204 145.223 357.499 149.982 355.028 152.826C351.732 156.618 357.611 249.061 357.586 250.504C357.561 251.947 351.478 258.279 353.332 275.632C353.332 275.632 353.589 290.16 379.143 290.821C404.695 291.48 448.248 271.844 448.248 271.844Z" fill="#B695F6"/>
<path d="M339.311 222.47C337.688 223.859 308.675 235.291 305.11 240.483C301.545 245.675 310.918 266.23 318.811 268.64C323.554 270.089 335.422 266.206 353.333 256.547C371.819 246.575 339.311 222.47 339.311 222.47Z" fill="#B695F6"/>
<path d="M386.087 139.42C384.348 137.783 375.175 146.398 375.175 146.398C375.175 146.398 377.607 164.143 381.874 160.668C383.797 159.103 386.844 155.994 386.844 155.994C386.844 155.994 393.256 164.493 394.707 164.082C398.849 162.908 402.684 157.427 402.684 157.427C402.684 157.427 405.889 164.118 406.571 164.082C408.655 163.972 422.745 148.291 420.188 146.834C417.63 145.377 416.257 138.649 412.777 139.44C409.298 140.231 394.271 162.02 394.271 162.02C394.271 162.02 387.734 140.968 386.087 139.42Z" fill="#7535F6"/>
<path d="M352.802 178.357C353.693 200.532 353.32 223.182 355.976 245.257C356.347 248.342 356.205 247.888 355.103 250.174C354.174 252.102 352.979 253.852 352.193 255.874C349.658 262.397 349.56 269.449 352.27 275.925C352.798 277.187 354.829 276.733 354.393 275.341C351.97 267.61 352.15 260.114 356.208 252.966C356.747 252.016 357.851 250.903 358.243 249.89C359.303 247.15 358.251 243.154 358.079 240.207C356.879 219.554 355.325 198.968 353.75 178.357C353.704 177.756 352.777 177.742 352.802 178.357Z" fill="#190245"/>
<path d="M340.7 178.223C343.327 182.27 347.046 186.452 350.726 189.567C351.229 189.993 352.146 189.431 351.709 188.809C348.932 184.842 345.118 180.746 341.32 177.746C340.997 177.492 340.436 177.815 340.7 178.223Z" fill="#190245"/>
<path d="M381.565 161.282C384.979 159.096 388.302 156.723 391.404 154.104C392.285 153.361 391.085 151.776 390.157 152.49C386.932 154.974 383.902 157.711 381.033 160.595C380.689 160.941 381.137 161.555 381.565 161.282Z" fill="#190245"/>
<path d="M400.834 154.654C401.83 157.97 403.216 161.518 405.067 164.452C405.71 165.475 407.137 164.587 406.657 163.524C405.243 160.385 403.426 157.273 401.716 154.281C401.448 153.81 400.675 154.122 400.834 154.654Z" fill="#190245"/>
<path d="M362.419 281.275C374.829 285.345 390.56 282.611 403.115 280.489C416.611 278.21 431.439 274.876 442.787 266.816C443.59 266.245 442.87 264.937 442.002 265.472C418.775 279.8 388.876 280.791 362.49 280.749C362.181 280.747 362.135 281.182 362.419 281.275Z" fill="#190245"/>
<path d="M301.134 246.23C301.134 246.23 307.546 242.827 309.429 243.424C311.311 244.018 318.811 255.271 319.24 260.456L309.491 263.105C309.491 263.105 304.348 247.051 301.134 246.23Z" fill="#7535F6"/>
<path d="M320.529 265.051C322.189 256.43 315.301 245.011 308.221 240.523C307.174 239.86 305.962 241.403 306.888 242.25C310.418 245.478 313.506 248.57 315.592 252.965C317.431 256.836 317.862 261.484 320.087 265.109C320.189 265.274 320.488 265.264 320.529 265.051Z" fill="#190245"/>
<path d="M448.545 272.284C451.534 259.733 450.678 246.508 446.744 234.215C446.157 232.379 443.379 233.126 443.845 235.013C446.902 247.368 447.958 259.479 447.807 272.185C447.802 272.602 448.445 272.701 448.545 272.284Z" fill="#190245"/>
<path d="M465.948 224.84C470.866 226.823 475.847 228.631 480.355 231.469C484.97 234.374 488.19 238.284 492.239 241.772C493.274 242.664 494.93 241.544 494.192 240.266C489.027 231.31 476.18 224.568 466.019 224.314C465.695 224.305 465.685 224.734 465.948 224.84Z" fill="#190245"/>
<path d="M470.146 225.056C473.557 224.706 477.516 225.128 480.767 223.965C481.608 223.665 481.49 222.42 480.552 222.385C477.088 222.263 473.445 223.861 470.08 224.565C469.807 224.622 469.862 225.085 470.146 225.056Z" fill="#190245"/>
<path d="M417.029 183.758C417.029 183.758 421.494 229.18 425.436 232.965C429.376 236.75 446.716 235.003 449.87 231.51C453.021 228.016 454.071 180.846 453.546 181.72C453.022 182.594 417.029 183.758 417.029 183.758Z" fill="#7535F6"/>
<path d="M455.499 183.471C455.652 187.137 446.758 190.489 435.633 190.957C424.506 191.426 415.36 188.833 415.205 185.167C415.05 181.5 423.946 178.149 435.072 177.68C446.199 177.211 455.343 179.804 455.499 183.471Z" fill="#190245"/>
<path d="M415.205 185.167V182.863L455.261 180.252L455.488 183.777L415.205 185.167Z" fill="#190245"/>
<path d="M455.499 181.167C455.652 184.832 446.758 188.184 435.633 188.653C424.506 189.121 415.36 186.528 415.205 182.863C415.05 179.195 423.946 175.845 435.072 175.375C446.199 174.907 455.343 177.499 455.499 181.167Z" fill="#190245"/>
<path d="M449.245 176.918C449.349 179.397 443.337 181.674 435.814 181.98C428.29 182.285 421.545 180.549 421.457 178.165C421.367 175.686 427.914 173.321 435.436 173.003C442.958 172.687 449.141 174.44 449.245 176.918Z" fill="#190245"/>
<path d="M449.363 231.062C450.886 234.847 451.287 249.218 455.368 249.275C459.449 249.334 463.403 247.142 465.869 243.892C468.334 240.642 469.38 236.442 469.175 232.368C469.013 229.168 467.994 225.823 465.538 223.763C463.081 221.702 458.961 221.476 456.862 223.898" fill="#7535F6"/>
<path d="M455.027 204.181C455.027 204.181 461.954 215.668 463.709 226.212C464.331 229.945 461.088 241.51 456.569 240.743C452.049 239.976 451.369 237.978 449.616 228.932C447.862 219.887 455.027 204.181 455.027 204.181Z" fill="#A84C4C"/>
<path d="M454.675 210.347C454.675 210.347 456.615 206.036 455.399 203.438C453.824 200.073 445.824 194.13 442.206 195.124C438.587 196.118 439.19 200.732 440.953 201.745C442.716 202.758 447.482 204.384 448.902 205.816C450.19 207.113 449.532 208.153 449.532 208.153C449.532 208.153 440.139 204.074 437.218 206.841C434.297 209.607 437.17 211.955 437.17 211.955C437.17 211.955 432.48 215.735 438.162 219.557C438.162 219.557 437.671 222.647 439.886 224.591C442.1 226.535 449.402 228.933 449.402 228.933C449.402 228.933 449.582 229.83 450.462 230.074C453.359 230.879 458.325 226.923 456.139 223.837C456.139 223.837 457.639 219.839 456.151 217.355L455.287 216.243C455.287 216.243 457.139 212.277 454.675 210.347Z" fill="#A84C4C"/>
<path d="M455.568 224.389C453.223 221.836 449.63 220.411 446.342 219.556C444.785 219.151 443.173 218.857 441.557 218.887C440.731 218.903 439.405 218.957 438.961 219.753C438.463 220.646 437.099 219.827 437.599 218.933C438.223 217.814 439.573 217.465 440.759 217.345C442.548 217.166 444.397 217.464 446.135 217.869C449.896 218.746 454.045 220.381 456.712 223.284C457.403 224.035 456.263 225.145 455.568 224.389Z" fill="#190245"/>
<path d="M455.553 217.934C450.317 214.414 443.912 212.114 437.537 212.975C436.533 213.11 436.122 211.573 437.135 211.437C443.953 210.516 450.747 212.791 456.374 216.572C457.219 217.14 456.405 218.507 455.553 217.934Z" fill="#190245"/>
<path d="M455.09 212.27C453.77 210.837 451.976 209.81 450.225 209.004C446.817 207.434 443.039 206.815 439.307 206.8C438.282 206.796 438.289 205.207 439.314 205.21C443.28 205.227 447.22 205.924 450.849 207.554C452.79 208.424 454.778 209.584 456.233 211.165C456.924 211.917 455.786 213.025 455.09 212.27Z" fill="#190245"/>
<path d="M446.453 219.377C446.01 221.266 444.345 222.752 442.421 222.985C440.498 223.219 438.517 222.135 437.656 220.405C437.464 220.021 437.572 219.541 437.959 219.323C438.319 219.121 438.849 219.241 439.041 219.626C439.633 220.813 440.926 221.568 442.224 221.421C443.551 221.27 444.628 220.199 444.921 218.948C445.019 218.53 445.501 218.285 445.902 218.398C446.331 218.517 446.551 218.957 446.453 219.377Z" fill="#190245"/>
<path d="M443.458 212.993C443.196 214.614 442.053 216.109 440.436 216.555C438.868 216.989 437.037 216.352 436.361 214.806C435.971 213.916 435.961 212.967 436.396 212.093C436.587 211.709 437.142 211.613 437.488 211.822C437.881 212.058 437.951 212.527 437.759 212.913C437.717 213 437.713 213.004 437.75 212.925C437.732 212.972 437.716 213.021 437.702 213.069C437.68 213.141 437.663 213.215 437.651 213.289C437.68 213.126 437.647 213.42 437.647 213.454C437.647 213.53 437.649 213.607 437.658 213.682C437.642 213.534 437.674 213.748 437.681 213.778C437.703 213.878 437.732 213.975 437.767 214.072C437.719 213.941 437.809 214.159 437.812 214.165C437.858 214.258 437.912 214.344 437.966 214.431C438.049 214.56 437.914 214.392 438.031 214.512C438.095 214.576 438.153 214.642 438.218 214.703C438.261 214.74 438.256 214.738 438.204 214.698C438.246 214.729 438.288 214.76 438.333 214.789C438.399 214.834 438.471 214.869 438.539 214.911C438.627 214.953 438.634 214.958 438.559 214.928C438.609 214.948 438.658 214.967 438.708 214.984C438.784 215.01 438.861 215.032 438.938 215.051C438.989 215.064 439.041 215.075 439.094 215.085C439.181 215.101 439.199 215.103 439.147 215.094C439.094 215.085 439.113 215.085 439.2 215.096C439.254 215.099 439.307 215.102 439.361 215.103C439.674 215.109 439.954 215.065 440.246 214.953C440.53 214.843 440.795 214.657 441.021 214.438C441.185 214.278 441.23 214.227 441.328 214.086C441.441 213.925 441.543 213.754 441.631 213.578C441.631 213.578 441.731 213.345 441.683 213.463C441.725 213.358 441.763 213.251 441.796 213.143C441.853 212.953 441.895 212.76 441.926 212.564C441.995 212.14 442.526 211.907 442.907 212.012C443.36 212.14 443.527 212.567 443.458 212.993Z" fill="#190245"/>
<path d="M444.57 206.431C444.711 208.56 442.892 210.214 440.942 210.636C439.983 210.845 438.784 210.931 437.845 210.593C436.831 210.228 436.246 209.248 436.366 208.183C436.508 206.896 437.451 206.046 438.466 205.356C438.823 205.116 439.352 205.308 439.549 205.66C439.776 206.061 439.603 206.501 439.246 206.742C438.873 206.995 438.466 207.302 438.218 207.653C438.161 207.734 438.115 207.82 438.064 207.904C438.012 208.011 438.006 208.022 438.041 207.941C438.022 207.991 438.006 208.04 437.992 208.091C437.982 208.124 437.936 208.413 437.947 208.268C437.938 208.372 437.936 208.478 437.945 208.582C437.933 208.447 437.973 208.689 437.98 208.72C437.99 208.757 438.002 208.794 438.016 208.83C437.989 208.757 437.996 208.764 438.035 208.848C438.073 208.906 438.148 209.007 438.274 209.064C438.667 209.24 439.167 209.219 439.611 209.206C440.428 209.183 441.351 208.963 441.962 208.495C442.666 207.956 443.033 207.239 442.979 206.424C442.95 205.996 443.37 205.631 443.778 205.632C444.234 205.635 444.542 206.001 444.57 206.431Z" fill="#190245"/>
<path d="M448.592 198.05C447.377 199.211 445.623 199.676 443.987 199.318C443.155 199.136 442.304 198.702 441.769 198.027C441.131 197.221 440.978 196.204 441.428 195.271C441.615 194.884 442.177 194.794 442.52 195.001C442.917 195.239 442.979 195.704 442.791 196.092C442.735 196.209 442.731 196.434 442.786 196.63C442.848 196.85 442.993 197.046 443.183 197.216C443.565 197.561 444.149 197.764 444.623 197.828C445.644 197.967 446.733 197.627 447.486 196.907C448.225 196.202 449.334 197.341 448.592 198.05Z" fill="#190245"/>
<path d="M418.702 198.76C418.702 198.76 430.314 199.877 430.859 201.971C431.406 204.065 432.973 218.416 432.169 218.889C429.697 220.341 421.342 217.567 421.342 217.567C421.342 217.567 418.871 202.624 418.702 198.76Z" fill="#DCDCDC"/>
<path d="M414.804 184.088C427.512 190.716 442.895 190.318 455.208 182.958C456.085 182.432 455.286 181.058 454.404 181.584C442.589 188.648 427.815 189.083 415.607 182.716C414.7 182.243 413.895 183.614 414.804 184.088Z" fill="#B695F6"/>
<path d="M421.484 176.474C421.057 178.947 424.198 179.392 425.991 179.783C428.819 180.401 431.723 180.599 434.611 180.653C437.413 180.705 440.235 180.661 443.001 180.169C445.354 179.75 447.887 179.068 449.524 177.216C450.2 176.452 449.079 175.325 448.4 176.093C447.046 177.623 445.005 178.16 443.066 178.545C440.777 179 438.431 179.084 436.104 179.079C433.946 179.075 431.781 179.012 429.635 178.774C428.871 178.689 422.833 177.967 423.017 176.896C423.19 175.897 421.658 175.467 421.484 176.474Z" fill="#B695F6"/>
<path d="M189.937 355.428C199.927 355.758 209.987 353.848 219.159 349.878C221.887 348.699 224.776 347.078 225.741 344.268C226.39 342.38 226.03 340.312 225.621 338.357C222.465 323.272 216.72 308.73 208.714 295.558C205.634 290.49 202.043 285.457 196.874 282.548L181.734 288.593L189.937 355.428Z" fill="#190245"/>
<path d="M187.601 265.123L92.2553 263.343C91.2972 268.493 40.726 508.77 45.9847 524.069C48.5638 531.574 76.6358 536.559 79.9401 533.596L139.133 331.479C139.133 331.479 139.553 521.354 145.703 529.516C151.855 537.677 183.137 531.574 183.137 528.581C183.137 516.402 195.29 304.231 187.601 265.123Z" fill="#B695F6"/>
<path d="M67.4015 516.169C83.7769 447.871 101.588 380.159 120.551 312.534C120.797 311.658 119.464 311.299 119.194 312.159C98.2036 378.935 80.7471 447.417 66.8262 516.01C66.7521 516.385 67.311 516.546 67.4015 516.169Z" fill="#190245"/>
<path d="M167.03 328.496C162.773 394.139 167.287 460.073 165.603 525.805C165.577 526.79 167.056 526.773 167.123 525.805C171.635 460.186 166.215 394.205 168.158 328.496C168.179 327.766 167.077 327.778 167.03 328.496Z" fill="#190245"/>
<path d="M138.45 332.784C143.497 330.152 148.354 326.595 152.781 323.024C152.985 322.861 152.723 322.543 152.505 322.67C147.601 325.532 142.553 328.811 138.299 332.588C138.188 332.685 138.328 332.849 138.45 332.784Z" fill="#190245"/>
<path d="M155.136 440.288C157.013 438.15 153.038 437.435 152.588 439.897C153.087 440.253 153.528 440.568 154.264 441.092C154.446 440.574 154.653 440.411 155.136 440.288ZM147.985 432.92C148.716 432.101 148.147 430.883 147.054 430.652C143.76 431.448 146.02 434.106 147.985 432.92ZM148.936 480.335C149.058 480.453 149.179 480.549 149.299 480.626C149.513 479.969 149.719 479.301 149.924 478.633C149.223 478.718 148.665 479.21 148.936 480.335ZM149.403 471.078C149.187 472.193 149.399 474.03 150.886 473.822C151.098 473.691 151.267 473.557 151.416 473.423C151.56 472.885 151.705 472.35 151.845 471.805C151.481 471.236 150.539 470.886 149.403 471.078ZM142.395 466.203C144.025 466.626 144.282 465.863 144.596 464.411C143.02 462.462 140.817 464.203 142.395 466.203ZM154.127 455.827C155.018 455.761 154.72 454.619 155.447 454.406C155.952 451.248 149.954 453.489 154.127 455.827ZM149.857 459.223C150.673 458.739 151.753 458.962 152.001 457.662C150.49 454.721 147.282 457.624 149.857 459.223ZM144.918 458.063C145.106 457.074 143.861 456.479 142.929 456.315C142.522 456.721 142.064 457.179 141.576 457.664C141.761 458.051 141.91 458.364 142.059 458.674C143.166 459.134 144.129 459.036 144.918 458.063ZM146.108 460.067C142.759 463.454 150.347 463.385 147.686 460.239C147.221 460.189 146.726 460.135 146.108 460.067ZM144.09 450.813C143.872 450.053 144.876 449.089 143.816 448.685C142.12 449.323 142.12 449.323 141.611 451.014C142.063 452.284 144.32 452.358 144.09 450.813ZM145.154 482.805C144.779 484.827 147.11 485.001 148.186 483.924C148.268 483.69 148.346 483.448 148.427 483.213C147.388 481.859 146.762 481.789 145.154 482.805ZM145.708 445.662C144.385 447.422 146.334 448.413 147.892 447.528C149.807 445.517 147.15 445.149 145.708 445.662ZM141.936 473.439C142.685 473.854 144.926 474.46 144.549 472.895C144.395 472.425 144.525 472.146 144.801 471.825C144.554 471.512 144.309 471.202 144.038 470.858C143.455 471.073 142.449 471.102 142.314 471.802C142.372 472.153 141.976 472.436 141.75 472.712L141.761 473.301C141.811 473.346 141.853 473.391 141.936 473.439ZM148.524 475.912C147.967 474.897 147.014 474.923 146.002 474.51C145.725 475.013 144.936 475.278 144.988 476.063C146.318 477.666 147.602 478.019 148.524 475.912ZM142.604 478.156C142.258 478.53 142.02 478.836 141.867 479.095L141.887 480.274C142.217 480.63 142.844 480.945 143.506 481.508C143.792 481.352 144.012 481.234 144.262 481.096C144.313 480.376 144.43 479.741 144.648 479.028C143.938 478.725 143.301 478.452 142.604 478.156ZM140.999 431.483L141.021 432.695C141.241 432.354 141.252 431.925 140.999 431.483ZM143.568 492.802C143.176 493.069 142.563 493.123 142.127 493.343L142.165 495.435C142.435 495.549 142.776 495.615 143.164 495.725C143.564 494.938 143.955 494.135 144.338 493.322C144.171 493.121 143.935 492.939 143.568 492.802ZM150.683 434.255C149.948 434.438 149.342 434.752 148.994 435.4C149.114 436.372 149.949 436.808 150.363 437.571C151.003 437.266 151.573 436.992 152.12 436.732C152.094 435.59 151.742 434.718 150.683 434.255ZM152.733 460.838C152.244 461.312 152.102 461.838 152.687 462.235C153.134 462.626 153.536 462.802 153.898 462.835C154.093 461.884 154.281 460.928 154.465 459.965C153.938 459.697 153.504 460 152.733 460.838ZM142.176 485.776C142.104 485.841 142.05 485.928 141.993 486.01L142.034 488.287C142.219 488.488 142.473 488.608 142.795 488.586C145.953 489.007 144.292 484.679 142.176 485.776ZM145.287 453.46C146.107 455.151 146.974 456.34 148.609 454.726C148.355 453.763 148.262 453.236 148.163 452.363C147.224 452.827 145.939 452.523 145.287 453.46ZM148.163 452.363C148.17 452.359 148.178 452.358 148.186 452.354C148.184 452.353 148.183 452.351 148.182 452.35C148.191 452.346 148.193 452.341 148.202 452.337C148.187 452.334 148.173 452.328 148.158 452.325C148.159 452.339 148.161 452.349 148.163 452.363ZM144.505 436.382C145.271 434.434 142.963 433.36 141.77 435.106C141.488 436.954 143.534 438.23 144.505 436.382ZM157.632 434.254C155.825 434.137 156.262 437.259 157.713 437.288C157.815 436.302 157.91 435.313 158.003 434.321C157.88 434.297 157.772 434.255 157.632 434.254ZM156.902 444.389C157.011 443.537 157.111 442.683 157.212 441.827C156.369 442.562 155.929 443.854 156.902 444.389ZM145.015 490.769C145.073 490.993 145.151 491.18 145.239 491.345C145.52 490.707 145.801 490.068 146.073 489.415C145.57 489.645 145.143 490.098 145.015 490.769ZM155.916 450.994C155.936 451.022 155.962 451.038 155.983 451.063C156.026 450.776 156.065 450.485 156.107 450.198C156 450.437 155.93 450.704 155.916 450.994ZM155.792 431.194C154.944 429.603 153.206 430.381 152.617 431.805C153.078 434.175 156.548 433.624 155.792 431.194ZM151.922 443.165C151.697 442.395 151.599 441.541 150.338 441.367C146.698 442.554 150.991 447.002 151.922 443.165ZM148.202 452.337C148.525 452.424 148.873 452.576 149.102 452.184C149.628 451.292 150.495 451.727 151.304 451.894C152.124 450.018 151.874 448.417 149.458 449.012C148.298 449.95 149.639 451.735 148.202 452.337ZM143.211 444.866C145.182 444.306 144.741 442.417 143.455 441.3C141.19 441.47 141.088 444.624 143.211 444.866ZM155.596 445.283C150.504 444.376 152.963 450.878 155.877 447.066C155.508 446.452 155.457 446.038 155.596 445.283ZM146.911 441.163C149.234 440.467 148.875 437.827 146.633 437.905C144.362 438.131 145.456 440.61 146.911 441.163ZM152.589 468.782C152.66 468.482 152.733 468.182 152.803 467.881C152.59 468.18 152.531 468.489 152.589 468.782ZM148.544 467.688C146.795 466.554 145.056 467.752 145.665 469.737C145.881 470.477 146.928 470.182 147.495 470.521C147.904 470.589 148.337 470.242 148.267 469.816C148.055 468.989 148.773 468.534 148.544 467.688ZM151.893 466.162C151.752 465.306 152.027 464.228 151.265 463.688C150.483 463.755 149.79 463.813 149.02 463.879C148.225 465.951 150.126 468.108 151.893 466.162ZM156.983 429.828C157.469 429.751 157.947 429.673 158.417 429.598C158.492 428.665 158.562 427.73 158.629 426.796C157.614 426.487 156.438 427.249 156.226 428.36C156.232 428.974 156.317 429.546 156.983 429.828ZM147.613 352.254C147.702 351.799 147.785 351.377 147.87 350.942C147.314 350.607 146.815 350.307 146.262 349.971C145.738 350.351 145.282 350.707 144.998 351.228C145.916 352.713 146.344 351.994 147.613 352.254ZM142.073 407.346C145.257 407.758 145.375 405.497 142.399 404.982C142.189 405.891 141.73 406.504 142.073 407.346ZM152.73 417.078C152.895 417.42 153.087 417.823 153.285 418.237C156.008 418.989 155.689 416.497 153.797 415.702C153.2 416 152.887 416.427 152.73 417.078ZM158.208 392.932C158.352 391.442 159.672 390.911 158.24 389.689C157.406 390.283 156.574 390.863 156.264 392.045C156.855 392.503 157.564 392.606 158.208 392.932ZM155.142 323.003C155.748 321.89 155.648 321.22 155.213 320.961L153.007 322.498C153.098 323.563 153.798 323.635 155.142 323.003ZM153.703 335.759C153.377 336.315 153.074 336.834 152.758 337.375C154.071 340.159 158.003 335.05 153.703 335.759ZM140.756 418.144C140.784 418.13 140.812 418.13 140.842 418.115C140.811 417.907 140.777 417.725 140.745 417.534L140.756 418.144ZM139.527 335.418C139.423 335.464 139.335 335.502 139.25 335.539L139.296 338.013C140.585 338.069 141.964 336.219 139.527 335.418ZM145.956 418.461C146.065 418.882 146.922 419.22 146.955 418.503C146.968 417.776 147.735 418.183 148.098 417.815C148.39 415.995 147.501 415.072 145.693 416.164C146.398 416.951 145.808 417.583 145.956 418.461ZM145.232 409.549C145.638 410.102 146.215 410.323 146.305 410.94C147.459 412.135 148.275 409.914 148.292 408.953C146.888 407.719 146.392 408.795 145.232 409.549ZM142.387 419.723C142.246 420.198 141.54 420.46 141.643 421.179C142.704 421.552 142.941 422.676 144.234 422.259C145.052 420.767 144.069 419.361 142.387 419.723ZM140.586 408.806L140.618 410.577C141.071 410.07 141.163 409.32 140.586 408.806ZM149.075 332.495C147.591 335.284 154.127 334.344 151.16 331.838C150.228 331.468 149.656 332.063 149.075 332.495ZM157.976 419.334C157.152 419.415 156.784 420.01 156.334 420.79C156.995 421.33 157.591 421.821 158.172 422.298C158.52 422.161 158.761 422.012 158.961 421.858C158.994 421.308 159.022 420.758 159.054 420.208C158.788 419.903 158.419 419.605 157.976 419.334ZM142.011 412.144C141.903 412.777 141.798 413.397 141.689 414.035C142.251 414.512 142.87 414.801 143.628 415.012C143.959 414.398 144.278 413.808 144.614 413.186C143.805 412.558 143.137 411.561 142.011 412.144ZM149.013 369.988C149.408 370.793 150.198 370.82 150.83 371.032C151.711 370.596 151.72 369.809 151.948 369.072C151.547 368.714 151.185 368.386 150.914 368.142C149.7 368.233 149.104 368.793 149.013 369.988ZM152.276 387.944C153.146 388.471 153.781 389.22 154.85 389.388C156.83 386.802 153.822 385.322 152.276 387.944ZM147.708 357.27C146.895 356.702 145.711 357.452 145.328 358.245C146.107 360.036 146.561 360.315 148.018 359.824C147.763 358.996 148.118 357.954 147.708 357.27ZM153.891 356.757C153.495 357.249 153.183 357.639 152.781 358.134C152.76 358.307 152.715 358.649 152.672 358.995C153.174 359.983 154.019 359.834 154.845 359.725C156.251 358.404 155.373 357.558 153.891 356.757ZM152.965 372.91C152.641 375.592 155.986 375.022 155.894 372.827C154.788 371.668 154.498 371.681 152.965 372.91ZM147.623 337.673C148.281 336.719 148.633 335.606 147.309 335.082C144.731 335.086 145.028 339.336 147.623 337.673ZM144.62 347.972C143.958 347.231 144.333 346.282 143.416 345.833C142.403 346.03 142.025 347.083 141.67 347.983C142.942 349.549 143.265 349.557 144.62 347.972ZM157.179 404.966C155.261 405.29 156.727 407.576 158.161 407.585C158.487 407.334 158.878 407.033 159.305 406.705C158.85 405.151 158.989 404.523 157.179 404.966ZM140.319 394.157L140.368 396.867C140.387 396.87 140.403 396.872 140.422 396.875C141.203 395.956 141.086 394.803 140.319 394.157ZM142.632 397.359C141.59 397.926 141.579 399.968 142.861 400.252C145.18 400.666 145.031 397.105 142.632 397.359ZM156.406 369.871C157.157 371.477 159.802 370.864 159.241 368.886C158.067 367.772 155.741 367.836 156.406 369.871ZM140.049 379.381L140.097 381.992C140.478 381.573 140.721 380.809 140.821 379.998C140.624 379.675 140.354 379.506 140.049 379.381ZM146.934 379.029C145.916 379.408 145.019 379.843 145.324 381.222C147.678 383.085 149.771 380.351 146.934 379.029ZM149.371 339.518C148.973 340.25 149.798 340.918 149.304 341.538C150.314 342.665 150.837 341.522 151.851 341.096C153.188 339.753 150.634 338.472 149.371 339.518ZM146.799 367.636C148.205 367.479 147.987 366.313 148.287 365.349C147.502 365.076 147.072 364.822 146.478 364.243C146.009 364.888 145.349 365.287 145.058 366.154C145.683 366.688 146.239 367.16 146.799 367.636ZM151.406 385.513C151.799 384.909 151.201 384.339 151.693 383.664C150.854 381.985 148.669 382.591 148.941 384.372C149.159 385.34 150.509 386.189 151.406 385.513ZM152.751 365.092C152.323 365.942 153.281 366.544 153.369 367.313C157.221 367.905 154.867 362.493 152.751 365.092ZM144.08 331.478C142.931 331.184 141.427 331.906 141.665 333.31C143.954 335.025 145.808 334.031 144.08 331.478ZM154.522 404.23C154.925 403.664 155.298 403.137 155.625 402.679C154.876 399.527 153.793 400.872 152.308 402.502C152.888 403.422 153.751 403.45 154.522 404.23ZM156.311 341.008C156.589 341.551 157.147 341.795 157.716 341.791C157.644 340.883 157.573 339.999 157.503 339.139C156.843 339.34 156.261 339.962 156.311 341.008ZM158.293 356.395C158.428 356.259 158.551 356.133 158.684 356C158.643 355.288 158.601 354.58 158.559 353.883C158.227 353.645 157.83 353.502 157.313 353.516C157.014 353.734 156.691 353.968 156.288 354.262C155.927 355.943 156.868 356.154 158.293 356.395ZM141.096 424.613C141.169 424.131 141.057 423.831 140.856 423.628L140.894 425.708C141.161 425.461 141.118 425.03 141.096 424.613ZM159.062 363.155C159.031 362.508 158.999 361.868 158.966 361.231C158.093 360.673 156.598 361.024 156.072 362.173C156.925 363.473 158.287 364.11 159.062 363.155ZM144.52 361.98C144.192 361.184 142.356 360.73 141.806 361.423C141.978 361.96 141.6 362.401 141.604 362.896C141.936 365.056 144.614 363.66 144.52 361.98ZM144.083 370.738C146.366 367.448 140.89 366.702 141.992 370.638C142.725 370.859 143.376 370.775 144.083 370.738ZM154.164 342.309C153.678 342.504 153.171 342.71 152.685 342.907C152.181 347.498 158.301 344.767 154.164 342.309ZM157.507 375.366C157.218 375.548 156.891 375.756 156.61 375.932C156.523 377.958 156.523 377.958 158.004 378.575C158.493 378.088 158.988 377.599 159.475 377.114C158.942 375.903 158.942 375.903 157.507 375.366ZM150.907 404.747C150.02 404.91 149.195 405.116 148.791 406.055C149.477 407.391 149.931 408.551 151.611 407.538C151.709 406.495 151.841 405.488 150.907 404.747ZM158.242 348.974C158.175 347.989 158.107 347.02 158.039 346.074C157.881 346.076 157.714 346.085 157.523 346.118C156.537 347.23 156.537 347.23 156.537 348.601C157.13 349.216 157.74 349.236 158.242 348.974ZM148.986 413.532C149.119 413.896 149.253 414.262 149.375 414.6C151.257 415.775 153.711 413.163 151.056 412.153C149.776 412.117 149.341 412.765 148.986 413.532ZM150.601 419.174C150.494 419.535 150.411 419.818 150.308 420.166C149.669 420.363 149.041 420.582 148.612 421.165C149.765 423.174 151.508 422.686 152.276 420.847C151.777 420.082 151.534 419.388 150.601 419.174ZM143.184 389.843C142.754 390.068 142.275 390.317 141.798 390.565C141.856 391.28 141.908 391.917 141.957 392.517C143.372 393.344 143.678 393.296 144.875 392.007C144.264 391.281 144.272 390.195 143.184 389.843ZM157.89 385.409C159.966 385.135 159.847 382.844 157.897 382.46C156.088 382.687 155.846 385.695 157.89 385.409ZM139.646 357.187L139.699 360.133C139.941 360.034 140.174 359.843 140.355 359.52C141.593 358.502 140.644 357.441 139.646 357.187ZM157.168 397.339C156.871 397.868 156.605 398.337 156.264 398.941C158.385 403.211 161.361 397.669 157.168 397.339ZM157.058 333.988C156.981 333.141 156.906 332.337 156.834 331.563C156.521 331.993 156.432 332.668 156.096 333.203C156.427 333.488 156.746 333.768 157.058 333.988ZM152.326 354.211C150.721 353.472 148.347 353.588 149.123 355.808C150.592 357.299 152.172 356.03 152.326 354.211ZM147.023 371.381C145.847 371.857 144.684 373.182 145.758 374.344C148.528 374.922 149.197 373.019 147.023 371.381ZM143.931 385.663C145.225 383.88 144.54 382.729 142.362 382.801C141.303 384.184 141.305 384.205 142.527 385.728C142.96 385.706 143.452 385.683 143.931 385.663ZM142.356 375.509C140.803 377.868 144.318 379.876 144.925 376.891C144.194 375.493 143.851 375.312 142.356 375.509ZM153.682 328.056C151.934 328.208 153.009 329.574 153.043 330.714C153.943 330.498 154.741 330.308 155.624 330.095C155.854 328.466 155.406 327.219 153.682 328.056ZM151.886 324.904C151.562 324.676 151.2 324.419 150.869 324.187C150.701 324.208 150.56 324.259 150.413 324.305L149.363 325.037C149.183 325.269 149.022 325.532 148.892 325.864C149.714 328.412 152.471 327.345 151.886 324.904ZM153.51 396.739C154.803 397.347 154.719 395.614 155.703 395.169C154.435 391.507 151.103 394.942 153.51 396.739ZM153.054 423.057C152.887 423.541 152.728 424 152.571 424.462C153.364 426 155.023 426.39 155.911 424.792C155.542 423.079 154.443 423.081 153.054 423.057ZM146.328 401.066C144.438 402.006 145.416 404.87 147.404 403.844C149.37 402.666 148.314 401.318 146.328 401.066ZM151.865 348.668C153.136 346.208 149.332 345.043 148.906 347.769C149.608 350.031 150.308 348.532 151.865 348.668ZM139.909 371.691L139.962 374.583C140.059 374.539 140.158 374.485 140.258 374.415C141.414 373.305 141.096 371.955 139.909 371.691ZM149.349 398.065C149.569 398.568 149.08 398.783 148.96 399.299C150.328 401.25 150.935 400.536 152.351 399.078C151.942 397.963 149.87 396.285 149.349 398.065ZM139.778 364.487L139.833 367.489C139.681 366.549 141.152 366.965 140.955 365.993C140.707 365.038 140.256 364.599 139.778 364.487ZM140.451 401.433L140.492 403.641C140.787 403.472 141.065 403.219 141.297 402.851C141.101 402.3 140.811 401.79 140.451 401.433ZM157.942 414.722C159.837 414.661 159.559 411.853 157.793 411.68C155.9 411.499 155.537 414.904 157.942 414.722ZM154.532 379.112C153.038 379.53 153.038 379.53 152.616 380.837C153.977 384.497 157.568 380.322 154.532 379.112ZM154.138 349.462C153.753 349.71 152.986 349.92 152.847 350.374C153.354 350.978 152.635 351.64 152.944 352.224C155.073 354.097 157.469 350.698 154.138 349.462ZM141.731 355.943C142.9 357.528 145.481 355.936 144.213 354.454C143.695 352.267 140.745 353.954 141.731 355.943ZM151.561 375.788C150.95 375.732 150.537 375.502 150.078 375.122C149.78 375.296 149.523 375.448 149.28 375.59C149.062 376.76 149.013 378.496 150.589 378.648C151.145 378.218 151.697 377.792 152.302 377.325C152.038 376.777 151.802 376.287 151.561 375.788ZM151.985 361.781C151.557 361.398 151.191 361.069 150.762 360.683C150.172 361.314 149.173 360.649 148.664 361.622C148.889 364.135 152.028 364.842 151.985 361.781ZM141.287 343.715C140.802 343.049 140.264 342.44 139.373 342.273L139.427 345.196C140.165 345.221 140.952 344.82 141.287 343.715ZM147.458 386.707C146.968 386.446 146.481 386.155 145.911 386.522C145.693 387.169 145.475 387.816 145.231 388.539C146.274 390.311 147.469 389.399 148.791 388.413C148.754 387.567 147.595 387.551 147.458 386.707ZM156.274 325.936C156.282 326 156.283 326.068 156.294 326.127C156.288 326.062 156.28 326.001 156.274 325.936ZM144.259 341.578C144.328 340.794 144.328 340.794 144.823 340.118C144.171 337.751 141.732 338.562 141.464 340.484C142.608 341.798 142.947 341.928 144.259 341.578ZM145.231 394.158C145.145 394.6 145.061 395.031 144.95 395.601C147.85 399.823 150.499 392.255 145.231 394.158ZM151.907 392.613V390.64C151.476 390.414 151.08 390.204 150.692 389.999C150.221 390.161 149.795 390.307 149.268 390.488C148.417 392.065 150.025 394.473 151.907 392.613ZM147.549 423.227C144.689 422.003 144.362 426.856 147.526 425.999C148.753 425.059 148.976 423.984 147.549 423.227ZM147.425 342.259C146.916 342.351 146.474 342.431 146.051 342.504C145.78 342.915 145.534 343.286 145.26 343.697C145.523 343.98 145.753 344.23 146.017 344.517C143.438 347.667 151.296 344.567 147.425 342.259ZM159.686 402.522C159.692 402.539 159.695 402.556 159.7 402.573C159.7 402.546 159.7 402.52 159.702 402.493C159.697 402.503 159.69 402.512 159.686 402.522ZM153.956 408.014C153.021 408.332 152.792 409.216 152.327 409.843C152.477 410.249 152.599 410.574 152.736 410.945C156.161 412.295 156.885 409.705 153.956 408.014ZM140.177 386.386L140.224 389.018C140.532 388.652 140.717 388.089 141.308 387.487C140.957 386.887 140.567 386.546 140.177 386.386ZM139.507 349.579L139.562 352.601C140.581 352.418 141.354 351.798 140.856 350.53C140.406 349.967 139.938 349.672 139.507 349.579ZM146.159 327.566C145.114 328.323 145.264 329.439 145.159 330.629C147.067 331.282 148.413 330.678 148.219 328.55C147.275 327.459 147.275 327.459 146.159 327.566ZM141.873 428.36H141.263C141.597 428.981 142.08 429.476 142.567 430.01C143.494 429.663 144.622 429.59 144.316 428.36H144.927C144.804 426.346 141.342 426.209 141.873 428.36ZM152.256 428.36H151.95C151.693 428.756 151.434 429.154 151.13 429.623C150.22 429.531 149.328 429.384 148.897 428.36C149.06 427.84 149.224 427.317 149.416 426.704C150.416 426.82 152.454 426.938 152.256 428.36Z" fill="#190245"/>
<path d="M202.623 226.541C202.623 226.541 219.201 196.462 231.559 198.151C243.919 199.838 252.752 212.027 249.388 221.693C246.022 231.361 234.527 268.278 217.77 269.364C201.014 270.45 190.932 254.591 190.932 254.591L202.623 226.541Z" fill="#7535F6"/>
<path d="M164.917 149.161V149.237L105.663 164.76C101.846 166.387 97.9656 168.015 93.9831 168.777C93.4487 168.879 92.9016 168.968 92.3545 169.032C91.1712 169.184 89.9752 169.248 88.7792 169.197C84.6186 169.032 80.3053 167.201 77.3788 163.845C76.3228 162.662 75.4576 161.289 74.8469 159.725C74.8087 159.662 74.7705 159.586 74.7705 159.522C74.7069 159.408 74.656 159.28 74.6178 159.166C71.755 151.118 75.8775 141.939 80.9287 135.595C84.0587 131.667 87.6086 128.221 91.4639 125.336L91.4766 125.323C98.1183 120.365 105.625 117.059 113.387 115.788C114.226 115.648 115.079 115.533 115.931 115.444C116.389 115.394 116.835 115.355 117.293 115.317C117.445 115.305 117.611 115.305 117.763 115.292C130.385 114.478 143.211 118.991 153.389 127.904C153.415 127.929 153.453 127.954 153.479 127.98C158.492 132.417 164.739 141.774 164.917 149.161Z" fill="#7535F6"/>
<path d="M91.7273 151.528C92.8533 151.064 92.8978 150.034 93.3381 149.228C91.3583 146.913 89.8111 150.06 91.7273 151.528ZM79.4923 153.988C79.9465 156.121 82.037 154.701 82.2915 153.214C81.2685 151.434 79.645 152.684 79.4923 153.988ZM95.099 147.709C95.6131 147.644 95.9935 147.504 96.2836 147.329C95.6067 146.711 94.996 146.083 94.4527 145.447C94.3534 145.518 94.2555 145.586 94.1562 145.677C94.3382 146.984 94.3382 146.984 95.099 147.709ZM85.849 135.798C85.7383 135.236 85.6441 134.758 85.5169 134.113C84.6619 133.21 82.8717 134.155 82.9964 135.201C83.3412 136.357 85.2522 137.084 85.849 135.798ZM75.7566 149.758C76.4094 150.291 76.4145 151.121 77.2491 151.332C77.8051 150.991 78.3942 150.632 78.9859 150.272C78.9617 149.954 78.9439 149.707 78.9223 149.447C76.9832 148.974 77.7682 147.176 75.7566 149.758ZM79.6615 146.207C79.3421 148.324 82.3347 148.048 82.364 145.995C82.191 144.336 79.8931 144.67 79.6615 146.207ZM88.5273 140.391C88.7945 140.25 89.0159 140.13 89.264 139.999C89.3849 139.476 89.5083 138.949 89.619 138.469C87.1646 135.503 85.4011 139.987 88.5273 140.391ZM90.0287 127.784C90.1788 128.41 90.5007 128.815 90.8824 129.03C91.1445 128.031 91.4423 127.199 91.6993 126.575C90.9511 126.77 90.2055 127.252 90.0287 127.784ZM76.8165 162.89L77.7352 164.188L78.2187 163.845L78.3001 163.786C78.0507 163.084 77.4578 162.734 76.8165 162.89ZM78.8599 142.379C78.6144 142.006 78.2428 141.747 77.8395 141.592C77.4425 142.344 77.0672 143.108 76.7275 143.888C76.9132 144.014 77.099 144.14 77.272 144.28C78.2772 143.808 78.2772 143.808 78.8599 142.379ZM77.4781 155.384C76.6473 155.987 75.931 156.589 75.6956 157.592C75.8075 157.82 75.9195 158.044 76.0366 158.28C76.5824 158.414 77.1066 158.544 77.5621 158.658C78.949 157.782 79.047 156.102 77.4781 155.384ZM85.933 149.612C84.027 146.095 80.7659 151.219 85.0945 151.38C85.7001 150.91 85.709 150.267 85.933 149.612ZM81.0026 140.634C82.3729 139.722 82.5256 139.299 82.1681 137.468C81.6133 137.364 80.8181 137.193 80.3486 137.613V138.369C80.0725 138.49 79.804 138.608 79.5203 138.733C79.477 138.799 79.4338 138.865 79.3905 138.933C79.5063 139.298 79.6132 139.64 79.7289 140.008C80.1603 140.221 80.6031 140.437 81.0026 140.634ZM82.948 141.971C83.3373 144.541 85.2802 145.001 86.3032 142.594C85.1517 141.063 84.5448 140.944 82.948 141.971ZM89.5032 130.48C87.4458 128.686 85.9648 130.802 87.4852 132.709C88.8314 133.252 90.5822 131.708 89.5032 130.48ZM84.9825 158.992C85.5118 158.386 85.8134 157.716 86.0246 157.042C85.8655 156.61 85.7281 156.236 85.5538 155.767C85.1047 155.642 84.7293 155.54 84.3387 155.432C82.392 156.636 82.822 158.457 84.9825 158.992ZM74.5415 154.307C74.7833 154.003 75.0365 153.687 75.3253 153.326C75.0823 152.942 74.8227 152.666 74.5619 152.462C74.5263 153.078 74.5161 153.693 74.5415 154.307ZM90.3188 142.345C90.5325 143.175 90.7692 144.026 91.8787 144.349C92.4042 144.097 92.7795 143.84 93.048 143.587C92.5327 142.806 92.1077 142.022 91.7502 141.239C91.0873 141.233 90.4638 141.547 90.3188 142.345ZM79.734 159.523C79.617 159.846 79.4999 160.174 79.3472 160.596C79.6526 161.203 79.6806 161.93 80.2035 162.426L82.3844 160.867C82.2711 159.679 80.8944 159.244 79.734 159.523ZM97.3702 150.155L98.1183 149.618L98.6527 149.237C98.5013 149.126 98.3677 149.017 98.2201 148.906C97.8219 149.168 97.5038 149.589 97.3702 150.155ZM89.605 152.803C88.5858 152.134 87.6595 152.127 86.7498 152.804C86.0106 156.256 90.2933 155.961 89.605 152.803ZM88.4102 147.907C88.8187 147.566 89.2335 147.218 89.6419 146.875V145.405C87.171 142.951 84.7891 147.672 88.4102 147.907ZM75.039 160.073C75.1306 160.237 75.1993 160.439 75.2502 160.675L74.9741 160.285L74.9105 160.196C74.9525 160.154 74.997 160.115 75.039 160.073Z" fill="#190245"/>
<path d="M91.9257 270.673C80.9224 263.249 74.4194 253.625 73.6547 253.41C72.8887 253.197 91.1649 203.727 91.1649 203.727L96.9554 148.338C96.3077 148.338 73.1228 156.55 65.9913 170.914C61.122 180.722 40.1446 225.049 36.6927 241.574C33.2408 258.099 26.9617 266.271 45.5381 284.711C45.5381 284.711 72.5261 308.468 89.5528 304.24C89.5528 304.24 101.778 289.008 104.039 286.178C104.873 285.134 102.929 278.096 91.9257 270.673Z" fill="#7535F6"/>
<path d="M183.047 202.532C174.511 176.942 168.466 150.026 168.466 150.026L158.125 146.732L147.775 140.462L136.442 151.32L117.61 140.462L96.9554 148.337C96.9554 148.337 77.1435 253.684 80.8117 263.341C83.9735 271.67 110.036 292.312 124.627 299.286C133.995 303.622 156.38 306.795 163.309 306.215C178.524 304.942 197.675 298.907 198.003 286.177C198.332 273.447 193.156 232.833 183.047 202.532Z" fill="#7535F6"/>
<path d="M234.244 246.071C229.585 231.283 194.261 174.884 186.574 164.27C178.238 152.759 167.778 149.839 167.778 149.839L191.804 288.592C191.804 288.592 240.965 267.4 234.244 246.071Z" fill="#7535F6"/>
<path d="M85.1529 314.267C88.5398 303.499 97.6741 295.283 104.691 286.827C105.436 285.932 104.231 284.661 103.388 285.526C95.7331 293.382 86.5805 302.952 84.29 314.029C84.174 314.59 84.9781 314.82 85.1529 314.267Z" fill="#190245"/>
<path d="M84.0542 255.125C97.2595 258.417 107.672 265.876 116.329 276.191C117.09 277.099 118.691 275.887 117.987 274.913C109.949 263.809 97.6588 256.788 84.3487 254.056C83.6554 253.913 83.3555 254.951 84.0542 255.125Z" fill="#190245"/>
<path d="M88.5858 208.032C84.7982 223.658 78.4968 238.068 72.0929 252.75C71.8514 253.299 72.5667 253.749 72.9101 253.228C81.7725 239.805 86.67 224.004 89.6563 208.328C89.7876 207.635 88.7559 207.332 88.5858 208.032Z" fill="#190245"/>
<path d="M72.062 253.197C84.4587 262.342 94.9848 273.668 103.375 286.567C103.911 287.39 105.213 286.648 104.704 285.789C96.5974 272.154 85.8788 260.886 72.82 251.9C72.0136 251.345 71.298 252.634 72.062 253.197Z" fill="#190245"/>
<path d="M174.745 181.384C180.11 195.745 184.408 210.688 188.345 225.489C191.577 237.638 194.413 249.972 195.839 262.475C196.961 272.307 197.75 283.256 193.907 292.614C193.408 293.831 195.529 294.736 196.049 293.517C199.826 284.663 199.626 274.563 198.708 265.159C197.493 252.711 194.726 240.415 191.429 228.368C187.031 212.299 181.411 196.688 175.107 181.285C175.017 181.066 174.66 181.155 174.745 181.384Z" fill="#190245"/>
<path d="M178.036 189.744C179.141 189.521 179.772 188.361 180.453 187.534C181.602 186.135 182.777 184.758 183.929 183.36C185.978 180.872 188.04 178.37 189.909 175.741C190.863 174.396 188.608 173.062 187.683 174.441C185.794 177.259 183.646 179.889 181.616 182.603C180.388 184.243 177.179 187.277 177.53 189.457C177.567 189.687 177.838 189.784 178.036 189.744Z" fill="#B695F6"/>
<path d="M67.287 170.276C78.6758 177.113 86.7533 190.977 88.4863 203.964C88.592 204.751 89.8296 204.793 89.757 203.964C88.594 190.71 79.4672 175.975 67.5577 169.813C67.2528 169.654 66.9899 170.096 67.287 170.276Z" fill="#B695F6"/>
<path d="M149.257 190.548C148.56 190.67 148.079 191.295 148.135 191.999C148.313 194.21 148.82 198.554 151.064 198.705C153.509 198.869 167.752 196.595 172.133 195.882C172.868 195.763 173.363 195.088 173.264 194.351C172.967 192.158 172.194 187.969 170.57 187.612C168.692 187.198 153.69 189.772 149.257 190.548Z" fill="#B695F6"/>
<path d="M127.168 152.357C123.602 163.631 123.31 176.699 127.844 187.766C128.207 188.652 129.47 188.334 129.294 187.366C127.12 175.424 126.281 164.731 128.375 152.69C128.51 151.906 127.415 151.576 127.168 152.357Z" fill="#DCDCDC"/>
<path d="M142.983 152.694C146.767 162.95 147.573 174.326 152.156 184.321C152.638 185.376 154.31 184.624 154.003 183.543C151.023 173.055 147.251 162.771 143.483 152.557C143.369 152.245 142.867 152.381 142.983 152.694Z" fill="#DCDCDC"/>
<path d="M99.7511 148.47C90.8974 150.312 81.8554 152.653 75.0477 158.961C74.296 159.657 75.4226 160.779 76.172 160.084C82.7664 153.973 91.6083 151.785 100.174 150.003C101.175 149.796 100.752 148.262 99.7511 148.47Z" fill="#190245"/>
<path d="M74.3481 159.634C72.633 161.357 71.1532 163.307 69.9229 165.401C69.7066 165.772 69.8389 166.272 70.2091 166.489C70.5807 166.707 71.0782 166.574 71.297 166.203C72.4676 164.21 73.8405 162.397 75.4729 160.758C76.1956 160.032 75.0721 158.908 74.3481 159.634Z" fill="#190245"/>
<path d="M98.2838 147.637C101.503 151.643 105.826 154.329 110.713 155.84C111.665 156.134 112.012 154.72 111.118 154.373C106.622 152.64 102.655 150.042 99.0184 146.904C98.5037 146.461 97.869 147.122 98.2838 147.637Z" fill="#190245"/>
<path d="M97.8168 278.758C122.104 291.063 149.343 301.066 176.922 295.608C184.224 294.164 191.277 291.597 197.722 287.865C198.607 287.352 197.808 285.978 196.919 286.491C173.344 300.147 144.665 296.535 120.276 287.172C112.875 284.33 105.689 280.967 98.6196 277.386C97.7086 276.925 96.9032 278.295 97.8168 278.758Z" fill="#190245"/>
<path d="M201.92 231.572C207.156 222.59 212.934 214.102 219.566 206.089C220.345 205.145 219.038 203.783 218.199 204.723C211.167 212.595 205.361 221.444 201.162 231.13C200.945 231.633 201.628 232.073 201.92 231.572Z" fill="#190245"/>
<path d="M72.9956 253.106C67.6466 250.764 59.8076 251.459 54.4166 253.429C53.1545 253.891 53.652 255.658 54.9676 255.429C58.1078 254.884 61.1423 254.121 64.3461 253.936C67.1555 253.774 70.0208 254.117 72.806 253.805C73.1267 253.77 73.3786 253.274 72.9956 253.106Z" fill="#190245"/>
<path d="M59.5177 253.759C59.9668 253.759 59.9681 253.062 59.5177 253.062C59.0685 253.062 59.0685 253.759 59.5177 253.759Z" fill="#190245"/>
<path d="M123.304 142.085C123.304 142.085 102.755 135.214 106.07 131.241C109.384 127.268 119.844 118.993 133.415 122.99C146.988 126.986 149.061 140.955 149.061 140.955L123.304 142.085Z" fill="#190245"/>
<path d="M164.285 105.947C164.248 105.089 164.164 104.206 164.054 103.288C162.978 94.3284 160.945 87.7873 157.75 83.0961C157.484 82.6968 157.194 82.3091 156.904 81.9353C146.304 68.2836 122.126 69.2028 114.056 84.6916C112.846 87.0245 114.588 90.3376 114.612 92.9986C114.625 94.7632 114.757 96.6613 114.975 98.6205C115.205 100.749 115.545 102.949 115.931 105.113C116.379 107.591 116.9 110.035 117.407 112.282C118.508 117.072 119.621 120.952 120.058 122.463L120.069 122.5C120.19 122.911 120.264 123.141 120.264 123.141L119.851 133.539L119.779 135.304L119.671 138.036L119.561 140.726L136.795 152.171L145.447 141.995L145.601 138.641L145.916 131.931L145.94 131.314C145.94 131.314 146.183 131.278 146.63 131.181C150.09 130.444 165.41 125.994 164.285 105.947Z" fill="#FFC1C1"/>
<path d="M153.592 89.8735C153.739 90.7859 153.19 91.633 152.369 91.7643C151.545 91.8985 150.761 91.2664 150.612 90.3542C150.465 89.443 151.013 88.5961 151.835 88.4634C152.658 88.3306 153.443 88.9625 153.592 89.8735Z" fill="#190245"/>
<path d="M137.008 92.4897C137.155 93.4021 136.608 94.249 135.785 94.3805C134.962 94.5145 134.177 93.8826 134.028 92.9704C133.881 92.0592 134.429 91.2123 135.251 91.0796C136.074 90.9469 136.859 91.5787 137.008 92.4897Z" fill="#190245"/>
<path d="M125.643 86.6814C126.992 85.5422 128.925 84.7909 130.616 84.3637C132.322 83.934 133.882 84.2137 135.585 84.112C136.596 84.0522 136.697 82.7847 135.813 82.4262C131.932 80.8548 127.58 83.3441 124.96 85.9986C124.517 86.4474 125.175 87.0767 125.643 86.6814Z" fill="#190245"/>
<path d="M151.919 81.1902C148.808 78.6666 144.185 79.6493 142.55 83.3095C140.092 88.817 144.031 96.843 147.789 100.829C148.478 101.56 149.786 100.595 149.203 99.7379C147.028 96.5379 144.839 93.3468 144.01 89.4832C143.449 86.8693 143.381 83.5574 145.978 82.0674C147.515 81.1851 149.892 81.2563 151.559 81.8081C151.896 81.9199 152.208 81.4254 151.919 81.1902Z" fill="#190245"/>
<path d="M153.476 63.8037C153.476 63.8037 158.006 60.9038 152.924 56.8761C145.271 50.8093 133.892 58.2988 133.892 58.2988C133.892 58.2988 134.267 55.3327 129.629 55.7078C116.439 56.777 115.34 68.453 115.34 68.453C101.697 73.9376 101.498 83.5083 102.857 91.6538C105.708 108.737 120.07 122.495 120.07 122.495L116.719 106.08C116.719 106.08 123.802 101.954 120.886 93.154C119.369 88.5785 115.814 89.237 116.373 85.2208C116.93 81.2034 129.108 75.9031 129.108 75.9031L134.318 74.7869C134.318 74.7869 141.408 82.1887 150.061 83.8007C158.042 85.2869 157.967 78.6836 157.967 78.6836C157.967 78.6836 164.35 79.3917 165.058 72.6218C166.133 62.3595 153.476 63.8037 153.476 63.8037Z" fill="#190245"/>
<path d="M116.609 99.1471C114.027 97.8834 110.595 98.6767 109.492 99.8095C108.39 100.944 107.844 102.53 107.714 104.105C107.498 106.724 108.454 109.506 110.517 111.136C112.58 112.766 117.249 113.066 119.298 111.418L116.609 99.1471Z" fill="#FFC1C1"/>
<path d="M111.894 106.185C112.292 105.817 113.313 105.495 113.836 105.415C114.681 105.288 115.261 105.649 115.926 106.104C116.701 106.635 117.411 105.513 116.873 104.878C116.132 104.005 114.789 103.65 113.686 103.877C113.155 103.986 112.584 104.244 112.199 104.637C111.771 105.077 111.8 105.496 111.645 106.04C111.603 106.188 111.787 106.285 111.894 106.185Z" fill="#190245"/>
<path d="M115.562 71.2099C114.118 67.4917 113.202 63.6593 112.575 59.7249C112.425 58.7843 111.01 59.1891 111.148 60.1179C111.748 64.1224 113.017 67.8976 114.722 71.5627C114.941 72.0287 115.75 71.6961 115.562 71.2099Z" fill="#190245"/>
<path d="M118.07 72.2185C115.126 69.4052 111.842 67.0381 108.184 65.2387C107.174 64.7414 106.282 66.2279 107.293 66.7616C110.765 68.5936 114.042 70.7162 117.058 73.2314C117.753 73.8111 118.747 72.8664 118.07 72.2185Z" fill="#190245"/>
<path d="M133.991 129.55C138.694 132.214 143.628 133.554 148.978 132.17C149.937 131.921 149.528 130.508 148.572 130.7C143.472 131.711 139.017 130.411 134.046 129.419C133.97 129.403 133.918 129.508 133.991 129.55Z" fill="#190245"/>
<path d="M113.227 137.861C121.518 142.972 130.697 147.138 137.732 154.021C138.463 154.74 139.59 153.616 138.857 152.897C131.719 145.912 122.442 141.674 114.03 136.49C113.155 135.952 112.356 137.325 113.227 137.861Z" fill="#190245"/>
<path d="M137.816 152.122C140.536 146.859 145.084 142.596 150.567 140.314C150.967 140.149 151.243 139.789 151.123 139.337C151.024 138.962 150.541 138.617 150.145 138.782C144.274 141.225 139.367 145.664 136.443 151.32C135.973 152.228 137.345 153.033 137.816 152.122Z" fill="#190245"/>
<path d="M145.927 104.666C143.334 103.789 140.71 103.059 138.017 102.77C137.6 102.726 137.133 102.709 136.811 102.979C136.494 103.243 136.424 103.696 136.409 104.108C136.32 106.427 137.363 108.781 139.199 110.203C141.034 111.625 143.627 112.042 145.785 111.184C146.813 110.776 147.497 109.892 148.178 109.022C148.84 108.174 149.183 106.958 149.079 106.021C149.039 105.663 147.323 104.905 145.927 104.666Z" fill="#190245"/>
<path d="M237.302 194.026C238.26 193.312 237.91 183.418 240.024 178.885C242.663 173.227 247.488 164.971 249.688 165.098C253.973 165.347 253.046 169.105 252.527 172.274C252.007 175.442 250.15 180.712 250.15 180.712C250.15 180.712 252.418 182.135 257.993 178.698C265.263 174.216 271.636 163.286 275.365 163.887C279.093 164.487 276.526 170.373 276.526 170.373C276.526 170.373 279.02 168.119 280.367 170.592C281.716 173.064 278.414 178.901 278.414 178.901C278.414 178.901 283.278 183.823 278.322 188.507C278.322 188.507 279.106 192.89 271.294 198.809C263.48 204.729 248.288 206.036 248.075 206.322C246.846 207.967 245.068 219.297 242.028 217.488C238.989 215.679 226.905 211.657 226.964 206.861C226.985 205.081 237.302 194.026 237.302 194.026Z" fill="#FFC1C1"/>
<path d="M278.732 188.652C278.712 187.13 278.347 185.642 277.661 184.283C277.022 183.021 276.04 181.701 274.775 181.01C273.411 180.263 271.695 180.413 270.744 181.724C269.927 182.853 269.935 184.419 269.938 185.75C269.943 187.712 270.178 189.674 270.611 191.587C270.835 192.584 272.369 192.162 272.144 191.165C271.742 189.384 271.533 187.576 271.528 185.75C271.525 184.757 271.37 182.744 272.515 182.23C273.874 181.62 275.232 183.35 275.848 184.314C276.678 185.614 277.121 187.111 277.142 188.652C277.156 189.674 278.746 189.676 278.732 188.652Z" fill="#190245"/>
<path d="M279.383 179.022C278.34 177.045 276.888 174.769 274.377 174.713C272.242 174.666 270.364 176.428 270.352 178.571C270.346 179.731 270.855 180.916 271.758 181.657C272.09 181.929 272.559 181.982 272.883 181.657C273.164 181.376 273.216 180.807 272.883 180.534C271.477 179.382 271.688 177.137 273.449 176.465C275.677 175.616 277.131 178.16 278.011 179.824C278.488 180.729 279.861 179.927 279.383 179.022Z" fill="#190245"/>
<path d="M276.686 168.754C272.646 172.847 268.693 177.134 264.1 180.621C263.755 180.883 263.583 181.304 263.815 181.709C264.007 182.047 264.562 182.253 264.903 181.994C269.611 178.418 273.669 174.073 277.811 169.878C278.53 169.15 277.406 168.024 276.686 168.754Z" fill="#190245"/>
<path d="M268.981 186.189C267.814 183.815 265.963 181.804 263.717 180.409C263.353 180.183 262.842 180.332 262.629 180.694C262.406 181.074 262.549 181.555 262.914 181.782C264.936 183.037 266.542 184.823 267.608 186.991C267.796 187.376 268.343 187.482 268.696 187.276C269.089 187.046 269.17 186.575 268.981 186.189Z" fill="#190245"/>
<path d="M225.46 203.328C227.381 211.379 235.792 217.973 243.982 218.489C245.136 218.561 245.309 216.832 244.25 216.522C236.086 214.132 230.73 210.104 225.836 203.169C225.704 202.983 225.404 203.091 225.46 203.328Z" fill="#190245"/>
<path d="M245.528 195.735C250.754 192.191 257.25 190.781 263.471 191.941C264.471 192.128 264.899 190.596 263.893 190.409C257.263 189.173 250.316 190.572 244.725 194.363C243.883 194.934 244.678 196.311 245.528 195.735Z" fill="#190245"/>
<path d="M271.455 182.122C271.097 183.095 271.421 184.266 272.146 184.987C272.959 185.796 274.146 185.913 275.171 185.474C275.694 185.25 276.145 184.842 276.423 184.345C276.625 183.983 276.522 183.462 276.136 183.258C275.762 183.061 275.265 183.155 275.049 183.543C275.018 183.599 274.984 183.65 274.951 183.703C274.868 183.837 275.063 183.584 274.961 183.69C274.919 183.735 274.878 183.782 274.833 183.825C274.808 183.849 274.743 183.885 274.728 183.917C274.828 183.842 274.845 183.829 274.777 183.877C274.752 183.896 274.727 183.913 274.7 183.931C274.66 183.955 274.621 183.979 274.579 184.002C274.527 184.03 274.461 184.05 274.411 184.085C274.574 183.971 274.498 184.048 274.426 184.072C274.331 184.104 274.192 184.105 274.108 184.151C274.242 184.134 274.266 184.132 274.179 184.142C274.149 184.144 274.117 184.147 274.087 184.148C274.04 184.151 273.994 184.152 273.947 184.151C273.887 184.149 273.819 184.134 273.761 184.139C273.963 184.121 273.869 184.154 273.788 184.137C273.728 184.123 273.667 184.107 273.608 184.087C273.579 184.077 273.55 184.067 273.52 184.055C273.63 184.104 273.658 184.115 273.603 184.088C273.555 184.063 273.505 184.04 273.458 184.011C273.428 183.993 273.291 183.874 273.384 183.969C273.484 184.069 273.341 183.931 273.322 183.912C273.281 183.875 273.243 183.837 273.206 183.796C273.191 183.779 273.176 183.762 273.16 183.744C273.107 183.679 273.12 183.697 273.197 183.795C273.186 183.751 273.131 183.698 273.106 183.659C273.078 183.613 273.051 183.565 273.025 183.516C273.011 183.488 272.997 183.46 272.983 183.432C273.029 183.543 273.041 183.571 273.018 183.514C272.981 183.411 272.945 183.308 272.922 183.201C272.916 183.178 272.912 183.155 272.907 183.132C272.893 183.047 272.896 183.07 272.915 183.205C272.919 183.153 272.905 183.094 272.902 183.042C272.901 182.987 272.901 182.933 272.903 182.879C272.905 182.848 272.907 182.817 272.911 182.787C272.892 182.912 272.888 182.944 272.898 182.882C272.929 182.769 272.948 182.656 272.989 182.544C273.132 182.153 272.828 181.656 272.434 181.567C271.983 181.464 271.609 181.703 271.455 182.122Z" fill="#190245"/>
<path d="M272.766 176.532C272.956 177.583 273.775 178.45 274.771 178.792C275.816 179.149 277.042 178.811 277.811 178.04C278.105 177.745 278.128 177.207 277.811 176.916C277.494 176.625 276.999 176.602 276.686 176.916C276.653 176.949 276.62 176.982 276.586 177.012C276.486 177.101 276.533 177.021 276.596 177.012C276.532 177.021 276.419 177.131 276.362 177.162C276.321 177.185 276.278 177.204 276.237 177.227C276.153 177.274 276.387 177.178 276.247 177.223C276.159 177.253 276.072 177.283 275.98 177.306C275.935 177.316 275.888 177.323 275.844 177.334C275.743 177.359 276.042 177.321 275.862 177.331C275.767 177.337 275.676 177.343 275.583 177.339C275.536 177.338 275.49 177.333 275.443 177.33C275.341 177.325 275.636 177.373 275.462 177.33C275.372 177.309 275.283 177.289 275.195 177.259C275.163 177.249 275.127 177.228 275.094 177.222C275.256 177.251 275.166 177.253 275.091 177.213C275.012 177.171 274.938 177.123 274.863 177.075C274.775 177.017 274.873 177.07 274.896 177.104C274.873 177.068 274.807 177.028 274.775 176.998C274.716 176.944 274.661 176.886 274.608 176.827C274.526 176.731 274.596 176.776 274.616 176.842C274.606 176.809 274.56 176.762 274.54 176.731C274.491 176.658 274.447 176.58 274.407 176.5C274.336 176.354 274.388 176.513 274.412 176.519C274.396 176.515 274.373 176.408 274.369 176.394C274.339 176.3 274.317 176.206 274.299 176.11C274.225 175.699 273.705 175.431 273.322 175.554C272.88 175.696 272.687 176.092 272.766 176.532Z" fill="#190245"/>
<path d="M84.3611 155.432L192.987 301.382L201.327 296.349C201.327 296.349 96.7266 150.252 91.7493 151.528C86.7712 152.803 84.3611 155.432 84.3611 155.432Z" fill="#190245"/>
</g>
</svg>
