<svg width="859" height="354" viewBox="0 0 859 354" fill="none" xmlns="http://www.w3.org/2000/svg">
<path fill-rule="evenodd" clip-rule="evenodd" d="M294.253 236.041H317.336V152.078C317.336 141.738 326.095 137.394 333.256 139.46C337.991 140.839 341.602 145.213 341.602 152.078V202.269C341.602 216.687 348.231 226.63 357.109 232.401C377.765 245.854 412.212 235.857 412.034 202.245V117.75H388.952V202.298C389.011 210.738 383.033 215.089 376.877 215.089C370.722 215.089 364.685 210.721 364.685 202.281V202.275V152.055C364.626 132.588 353.084 121.183 339.648 117.294C319.525 111.458 294.253 122.917 294.253 152.078V236.041ZM261.711 117.72H285.386V236.093H261.711V117.72ZM604.695 236.086V117.712H663.881C679.329 117.712 692.528 127.603 697.381 141.387C698.683 145.092 699.393 149.075 699.393 153.224C699.393 157.379 698.683 161.363 697.381 165.062C696.256 168.264 694.658 171.253 692.705 173.964C697.203 177.917 700.695 182.99 702.708 188.737C704.01 192.442 704.72 196.425 704.72 200.574V236.086H681.046V200.574C681.046 194.046 675.778 188.737 669.208 188.737H628.369V236.086H604.695ZM628.369 165.062H663.881C670.451 165.062 675.719 159.759 675.719 153.224C675.719 146.696 670.451 141.387 663.881 141.387H628.369V165.062ZM246.863 141.437C242.01 127.653 228.87 117.763 213.422 117.763H154.236V236.136H218.749C234.197 236.136 247.336 226.252 252.19 212.462C253.492 208.762 254.261 204.779 254.261 200.624C254.261 196.475 253.492 192.492 252.19 188.787C250.177 183.04 246.685 177.968 242.246 174.014C244.199 171.303 245.738 168.314 246.863 165.112C248.165 161.413 248.934 157.43 248.934 153.275C248.934 149.126 248.165 145.143 246.863 141.437ZM177.91 165.112V141.437H213.422C219.933 141.437 225.26 146.746 225.26 153.275C225.26 159.809 219.933 165.112 213.422 165.112H177.91ZM177.91 212.462V188.787H218.749C225.26 188.787 230.587 194.096 230.587 200.624C230.587 207.158 225.26 212.462 218.749 212.462H177.91ZM452.848 117.72C472.196 117.72 489.384 127.023 500.191 141.395C507.625 151.29 512.034 163.588 512.034 176.907C512.034 190.226 507.625 202.524 500.191 212.419C489.384 226.791 472.196 236.094 452.848 236.094H423.254V117.72H452.848ZM452.848 141.395H446.929V212.419H452.848C472.45 212.419 488.36 196.507 488.36 176.907C488.36 157.307 472.45 141.395 452.848 141.395ZM562.953 150.601C553.986 150.66 546.281 152.966 539.881 156.773C539.853 155.583 539.902 154.404 540.044 153.252C540.832 146.771 544.989 141.206 553.028 140.896C553.042 140.895 594 140.895 594 140.895V118H552.68C530.892 118.645 519.427 133.173 517.327 150.488C516.256 159.26 517.83 168.768 521.86 177.268C517.916 185.901 516.44 195.518 517.575 204.321C519.845 221.949 531.58 236.274 552.936 235.996H594V213.101H552.765C544.996 213.216 541.094 207.729 540.278 201.396C540.108 200.09 540.044 198.744 540.094 197.383C546.486 201.073 554.149 203.282 563.01 203.296C584.784 203.33 593.432 189.121 592.971 176.488C592.517 164.005 582.649 150.473 562.953 150.601ZM563.046 180.401C558.278 180.394 554.22 179.121 550.892 177.022C554.213 174.855 558.285 173.528 563.102 173.496C567.068 173.47 570.006 174.812 570.098 177.324C570.19 179.742 567.217 180.407 563.046 180.401Z" fill="#5D14F0"/>
</svg>
