<svg width="357" height="272" viewBox="0 0 357 272" fill="none" xmlns="http://www.w3.org/2000/svg">
<g opacity="0.5">
<path fill-rule="evenodd" clip-rule="evenodd" d="M45.2103 215.969C34.2743 205.605 27.5903 192.657 18.9903 181.133C18.7383 180.793 18.4943 180.437 18.3183 180.057C11.5903 165.449 5.01828 150.845 1.82228 134.877C-0.0457154 125.553 0.0342846 116.465 1.45028 107.217C2.15428 102.617 2.45028 97.9453 3.36228 93.3933C6.16628 79.4213 12.9743 67.2533 20.9623 55.6813C23.3663 52.2013 26.1263 48.9613 28.4663 45.4373C37.2303 32.2413 49.5943 23.7453 63.9943 17.8253C73.3663 13.9733 82.9863 10.7253 92.1543 6.36933C93.2823 5.83333 94.5263 5.35333 95.7543 5.23733C110.922 3.80133 126.086 2.30933 141.274 1.09733C156.086 -0.0866682 170.922 0.241332 185.742 1.19733C193.774 1.71333 201.838 1.93733 209.838 2.74933C227.19 4.51333 243.966 8.43333 260.074 15.4813C271.326 20.4053 282.67 25.0093 293.458 30.9653C305.854 37.8093 316.37 46.8973 326.326 56.7693C330.882 61.2893 334.37 66.5853 337.486 72.1533C339.35 75.4773 340.998 78.9573 343.178 82.0613C355.85 100.113 358.586 120.213 355.51 141.465C354.786 146.477 353.178 151.365 353.598 156.525C351.098 166.821 348.666 177.157 342.534 186.073C337.722 193.065 332.51 199.729 326.022 205.301C323.774 207.233 321.51 209.177 319.478 211.329C315.074 215.997 309.702 219.341 304.61 223.129C293.642 231.289 281.426 237.049 269.338 243.109C267.838 243.861 266.246 244.461 264.638 244.949C258.166 246.921 251.67 248.825 245.178 250.741C237.87 252.897 230.594 255.185 223.23 257.145C211.702 260.217 199.746 260.261 188.002 261.821C186.346 262.041 184.59 261.921 182.934 261.637C170.402 259.509 157.702 258.861 145.11 257.289C143.018 257.029 140.962 256.485 138.894 256.053C124.794 253.117 110.61 250.509 96.9303 245.841C93.5063 244.673 90.4103 244.937 87.2183 246.813C83.5743 248.953 79.7023 250.705 75.8943 252.557C67.8383 256.469 60.8343 261.973 53.5783 267.105C51.5183 268.561 49.3583 269.885 47.1663 271.133C45.4703 272.097 42.5663 270.649 42.1223 268.637C41.5743 266.169 41.0343 263.725 41.7623 261.129C45.8383 246.653 45.6943 231.845 45.2103 215.969ZM52.8274 252.473C54.0594 252.321 55.5994 252.597 56.4754 251.957C65.4274 245.441 75.9714 241.725 85.1154 235.565C87.3234 234.077 89.7714 233.637 92.3834 234.421C96.0274 235.513 99.7074 236.485 103.323 237.661C127.187 245.417 151.311 251.669 176.723 250.721C177.991 250.673 179.263 250.821 180.535 250.809C194.519 250.661 208.459 250.417 222.267 247.537C231.423 245.625 240.243 242.725 249.067 239.817C269.755 233.001 288.711 222.593 306.119 209.737C319.595 199.785 329.367 186.549 335.415 170.609C341.223 155.305 344.039 139.721 342.927 123.337C342.259 113.505 340.051 104.025 336.871 94.8449C333.539 85.2289 329.063 76.0129 321.523 68.7929C310.195 57.9409 298.959 46.9369 284.699 39.8289C274.479 34.7329 264.187 29.7889 253.927 24.7769C239.663 20.7729 225.847 15.2529 211.331 12.1249C207.611 11.3249 203.823 10.4129 200.055 10.3609C194.519 10.2889 189.079 9.63288 183.603 9.02488C178.555 8.46488 173.459 8.12488 168.383 8.10888C164.175 8.09688 159.687 7.89288 155.823 9.22088C150.847 10.9329 145.871 11.2049 140.839 11.3729C127.227 11.8289 113.891 14.1729 100.635 17.0009C86.4634 20.0249 73.1394 25.6889 60.3234 32.1489C49.3074 37.7009 39.6514 45.5329 32.9234 56.2529C22.2194 73.3129 13.8354 91.1569 14.5194 112.013C14.6314 115.393 14.1394 118.789 14.1114 122.177C14.0514 128.965 14.2194 135.777 15.9394 142.377C17.8554 149.753 19.9074 157.105 22.2874 164.341C24.1354 169.953 26.1514 175.593 28.8714 180.813C31.7954 186.425 35.3714 191.753 39.1354 196.853C43.6514 202.969 48.3674 209.025 55.5914 212.361C57.8634 213.413 58.3434 215.597 57.9554 217.737C56.2874 226.897 56.0194 236.285 53.3794 245.293C52.6674 247.717 52.2754 250.273 53.1314 252.793C52.8834 252.657 52.7834 252.549 52.8274 252.473Z" fill="#69F5CA"/>
<path d="M78.3379 128.156C78.3379 121.957 78.0126 116.294 77.3622 111.167C77.3622 110.363 77.917 109.961 79.0267 109.961C80.1363 109.961 81.6095 111.033 83.4462 113.176C85.2829 115.28 87.0431 117.595 88.7267 120.121C90.4103 122.646 92.094 124.98 93.7776 127.123C95.4995 129.228 96.724 130.28 97.451 130.28C98.178 130.28 99.3451 129.17 100.952 126.951C102.598 124.693 104.205 122.244 105.774 119.604C107.381 116.925 109.103 114.477 110.939 112.257C112.814 110 114.307 108.871 115.416 108.871C116.564 108.871 117.138 109.177 117.138 109.789C117.482 114.496 117.655 118.705 117.655 122.416C117.655 126.128 117.636 129.151 117.597 131.485C117.559 133.781 117.521 135.465 117.482 136.536C117.482 137.569 117.425 139.961 117.31 143.711C117.195 147.422 117.138 149.603 117.138 150.254C116.564 151.057 115.78 151.459 114.785 151.459C114.364 151.459 113.962 151.344 113.579 151.115C113.35 146.408 113.235 140.86 113.235 134.47C113.235 128.08 113.292 121.46 113.407 114.61C112.642 115.223 111.551 116.658 110.136 118.915C108.758 121.135 107.419 123.354 106.118 125.573C104.817 127.754 103.344 129.744 101.698 131.543C100.053 133.303 98.5224 134.183 97.1066 134.183C95.6908 134.183 94.0646 133.15 92.2279 131.083C90.4295 129.017 88.4206 126.224 86.2012 122.703C84.0202 119.145 82.5853 116.925 81.8965 116.045C82.0878 119.26 82.1835 122.608 82.1835 126.09C82.1835 129.534 82.1643 131.944 82.1261 133.322C82.0878 139.444 81.973 145.012 81.7817 150.024C81.1695 150.828 80.2129 151.23 78.9119 151.23C78.5675 151.23 78.2422 151.172 77.9361 151.057C77.9361 151.057 78.07 143.424 78.3379 128.156ZM129.507 108.756C129.468 109.636 129.449 110.612 129.449 111.683C129.449 112.755 129.507 113.864 129.621 115.012C129.086 115.624 128.359 115.931 127.44 115.931C126.292 115.931 125.718 115.012 125.718 113.176C125.718 113.099 125.718 112.812 125.718 112.315C125.718 111.817 125.718 111.377 125.718 110.994C125.757 110.574 125.833 110.095 125.948 109.56C126.216 108.641 126.809 108.182 127.727 108.182C128.646 108.182 129.239 108.373 129.507 108.756ZM125.833 136.88C125.833 129.381 126.216 125.057 126.981 123.909C127.249 123.488 127.574 123.277 127.957 123.277C128.34 123.277 128.971 123.488 129.851 123.909C129.66 127.161 129.564 130.701 129.564 134.527C129.564 134.527 129.602 138.755 129.679 147.212C129.679 148.398 129.411 149.24 128.875 149.737C128.378 150.196 127.9 150.426 127.44 150.426C127.019 150.426 126.579 150.311 126.12 150.082C125.929 145.107 125.833 140.707 125.833 136.88ZM164.276 128.041C163.932 127.161 163.282 126.472 162.325 125.975C161.368 125.478 160.182 125.229 158.766 125.229C157.351 125.229 156.011 125.65 154.749 126.492C153.524 127.333 152.912 128.462 152.912 129.878C152.912 131.294 153.486 132.423 154.634 133.264C155.82 134.068 157.236 134.68 158.881 135.101C160.565 135.522 162.248 135.981 163.932 136.479C165.616 136.938 167.032 137.722 168.179 138.832C169.366 139.903 169.959 141.319 169.959 143.079C169.959 145.643 168.887 147.594 166.745 148.934C164.64 150.273 162.095 150.943 159.111 150.943C157.351 150.943 155.036 150.464 152.166 149.508C149.334 148.551 147.918 147.403 147.918 146.064C147.918 145.069 148.76 144.572 150.444 144.572C150.941 144.572 151.592 144.878 152.395 145.49C154.844 147.288 157.351 148.188 159.914 148.188C161.292 148.188 162.478 147.958 163.473 147.499C165.31 146.619 166.228 145.203 166.228 143.251C166.228 142.065 165.635 141.109 164.449 140.382C163.301 139.655 161.885 139.081 160.201 138.66C158.556 138.239 156.891 137.78 155.208 137.282C153.524 136.785 152.089 135.962 150.903 134.814C149.755 133.628 149.181 132.136 149.181 130.337C149.181 128.003 150.233 126.109 152.338 124.655C154.442 123.201 157.044 122.474 160.144 122.474C162.248 122.474 164.143 123.029 165.826 124.138C167.548 125.21 168.409 126.779 168.409 128.845C168.409 130.222 167.625 130.911 166.056 130.911C165.405 130.911 164.965 130.796 164.736 130.567C164.544 130.337 164.43 129.935 164.391 129.361C164.391 128.749 164.353 128.309 164.276 128.041ZM177.796 139.348C177.72 140.114 177.681 140.63 177.681 140.898C177.681 143.194 178.37 144.973 179.748 146.236C181.163 147.499 182.828 148.13 184.741 148.13C186.654 148.13 188.204 147.862 189.39 147.327C190.615 146.791 191.495 146.217 192.03 145.605C193.408 143.883 194.671 143.022 195.819 143.022C196.24 143.022 196.737 143.137 197.311 143.366C196.928 145.241 195.474 146.963 192.949 148.532C190.462 150.063 187.324 150.828 183.536 150.828C180.857 150.828 178.542 149.986 176.591 148.302C174.678 146.58 173.721 144.246 173.721 141.3C173.721 138.354 174.295 135.503 175.443 132.748C176.629 129.955 178.313 127.582 180.494 125.631C182.713 123.641 184.952 122.646 187.209 122.646C189.505 122.646 191.342 123.124 192.719 124.081C194.135 124.999 194.843 126.358 194.843 128.156C194.843 131.485 193.351 134.24 190.366 136.421C187.42 138.564 184.282 139.635 180.953 139.635C180.073 139.635 179.021 139.54 177.796 139.348ZM182.158 137.454C183.957 137.454 185.564 136.88 186.98 135.732C188.395 134.585 189.39 133.379 189.964 132.116C190.576 130.854 190.883 129.706 190.883 128.673C190.883 127.64 190.481 126.74 189.677 125.975C188.874 125.171 187.936 124.77 186.865 124.77C184.952 124.77 183.172 126.09 181.527 128.73C179.92 131.37 178.772 134.106 178.083 136.938C179.767 137.282 181.125 137.454 182.158 137.454ZM225.588 149.393C224.899 150.12 224.115 150.483 223.235 150.483C221.589 150.483 220.365 149.603 219.561 147.843C218.758 146.083 218.279 143.94 218.126 141.415C218.011 138.889 217.935 136.364 217.897 133.838C217.858 131.313 217.648 129.17 217.265 127.41C216.921 125.65 216.251 124.77 215.256 124.77C213.917 124.77 212.769 125.975 211.813 128.386C210.894 130.796 210.244 133.475 209.861 136.421C208.79 144.648 207.757 149.259 206.762 150.254C206.073 150.598 205.48 150.77 204.982 150.77C204.485 150.77 204.064 150.713 203.72 150.598C202.916 147.078 202.4 141.013 202.17 132.403C202.093 128.118 202.017 125.344 201.94 124.081C202.744 123.545 203.433 123.277 204.007 123.277C204.581 123.277 205.04 123.335 205.384 123.45C205.575 125.095 205.671 128.462 205.671 133.551C205.709 138.641 205.748 141.568 205.786 142.333C205.977 141.53 206.207 140.229 206.475 138.43C206.781 136.632 207.049 135.159 207.278 134.011C207.508 132.824 207.871 131.447 208.369 129.878C208.866 128.309 209.421 127.066 210.033 126.147C210.646 125.191 211.487 124.387 212.559 123.737C213.63 123.048 214.835 122.703 216.175 122.703C217.973 122.703 219.274 123.526 220.078 125.171C220.92 126.779 221.379 128.787 221.455 131.198C221.532 133.609 221.57 136.058 221.57 138.545C221.608 141.032 221.914 143.309 222.488 145.375C223.101 147.441 224.134 148.781 225.588 149.393ZM229.352 126.951C227.63 126.951 226.463 126.53 225.851 125.688C225.851 125.076 226.1 124.598 226.597 124.253C227.133 123.909 227.707 123.698 228.319 123.622C228.931 123.507 229.926 123.411 231.304 123.335C231.419 122.302 231.476 120.982 231.476 119.374C231.514 117.729 231.552 116.332 231.591 115.184C231.705 112.162 232.165 110.306 232.968 109.617C233.313 109.311 233.676 109.158 234.059 109.158C234.48 109.158 234.843 109.196 235.149 109.273C235.264 112.028 235.321 113.692 235.321 114.266L234.977 122.876C235.054 122.914 235.264 122.933 235.608 122.933L239.741 122.761C242.726 122.761 244.218 123.22 244.218 124.138C244.218 125.439 243.682 126.205 242.611 126.434C242.113 126.549 241.52 126.606 240.832 126.606C240.181 126.606 239.32 126.53 238.249 126.377C237.216 126.185 236.469 126.09 236.01 126.09C235.551 126.09 235.245 126.109 235.092 126.147C234.977 127.257 234.92 128.367 234.92 129.476C234.92 130.548 234.939 131.906 234.977 133.551C235.054 135.159 235.207 137.091 235.436 139.348C235.704 141.606 236.259 143.558 237.101 145.203C237.943 146.81 239.014 147.614 240.315 147.614C240.965 147.614 241.731 147.365 242.611 146.867C243.491 146.332 244.161 146.064 244.62 146.064C245.117 146.064 245.538 146.179 245.882 146.408C246.265 146.6 246.456 146.829 246.456 147.097C246.456 147.901 245.634 148.685 243.988 149.45C242.381 150.177 241.004 150.541 239.856 150.541C235.647 150.541 233.026 146.561 231.992 138.602C231.686 136.306 231.457 132.365 231.304 126.779C230.691 126.893 230.041 126.951 229.352 126.951ZM253.941 108.756C253.903 109.636 253.883 110.612 253.883 111.683C253.883 112.755 253.941 113.864 254.056 115.012C253.52 115.624 252.793 115.931 251.875 115.931C250.727 115.931 250.153 115.012 250.153 113.176C250.153 113.099 250.153 112.812 250.153 112.315C250.153 111.817 250.153 111.377 250.153 110.994C250.191 110.574 250.267 110.095 250.382 109.56C250.65 108.641 251.243 108.182 252.162 108.182C253.08 108.182 253.673 108.373 253.941 108.756ZM250.267 136.88C250.267 129.381 250.65 125.057 251.415 123.909C251.683 123.488 252.009 123.277 252.391 123.277C252.774 123.277 253.405 123.488 254.285 123.909C254.094 127.161 253.998 130.701 253.998 134.527C253.998 134.527 254.037 138.755 254.113 147.212C254.113 148.398 253.845 149.24 253.31 149.737C252.812 150.196 252.334 150.426 251.875 150.426C251.454 150.426 251.014 150.311 250.554 150.082C250.363 145.107 250.267 140.707 250.267 136.88ZM262.906 115.414C262.6 115.644 262.255 115.758 261.873 115.758C261.528 115.758 261.108 115.605 260.61 115.299C260.151 114.993 259.921 114.668 259.921 114.323C259.921 113.941 260.17 113.596 260.668 113.29C263.193 111.798 266.599 111.052 270.884 111.052C276.126 111.052 279.341 111.894 280.527 113.577C281.062 114.304 281.33 115.338 281.33 116.677C281.33 117.978 280.756 119.623 279.608 121.613C278.46 123.564 277.198 125.363 275.82 127.008C274.443 128.615 273.142 130.375 271.917 132.289C270.731 134.202 270.1 135.809 270.023 137.11C269.985 137.646 269.679 138.067 269.105 138.373C268.569 138.679 268.072 138.832 267.613 138.832H267.153C266.503 138.679 266.158 138.277 266.12 137.627C266.235 135.866 266.885 133.972 268.072 131.944C269.258 129.916 270.501 128.156 271.802 126.664C273.142 125.133 274.347 123.45 275.418 121.613C276.528 119.776 277.083 118.226 277.083 116.964C277.083 115.701 276.566 114.84 275.533 114.381C274.5 113.922 272.606 113.692 269.851 113.692C267.134 113.692 264.819 114.266 262.906 115.414ZM269.507 144.916C270.157 144.992 270.731 145.241 271.229 145.662C271.726 146.045 271.975 146.619 271.975 147.384C271.975 148.111 271.515 148.781 270.597 149.393C269.679 150.005 268.722 150.311 267.727 150.311C266.235 150.311 265.489 149.776 265.489 148.704C265.489 147.594 265.871 146.695 266.637 146.006C267.402 145.279 268.359 144.916 269.507 144.916Z" fill="#69F5CA"/>
</g>
</svg>
