<svg width="170" height="200" viewBox="0 0 170 200" fill="none" xmlns="http://www.w3.org/2000/svg">
<path fill-rule="evenodd" clip-rule="evenodd" d="M100.6 0C126.7 0 148.9 16.71 157.1 40C159.3 46.26 160.6 52.99 160.6 60C160.6 67.02 159.3 73.75 157.1 80C155.2 85.41 152.599 90.46 149.299 95.04C156.799 101.72 162.7 110.29 166.1 120C168.3 126.26 169.6 132.99 169.6 140C169.6 147.02 168.3 153.75 166.1 160C157.9 183.3 135.7 200 109.6 200H0.599609V0H100.6ZM40.5996 40V80H100.6C111.6 80 120.6 71.04 120.6 60C120.6 48.97 111.6 40 100.6 40H40.5996ZM40.5996 120V160H109.6C120.6 160 129.6 151.04 129.6 140C129.6 128.97 120.6 120 109.6 120H40.5996Z" fill="#5D14F0"/>
</svg>
